<svg style="display:none" xmlns="http://www.w3.org/2000/svg" xmlns:xlink="http://www.w3.org/1999/xlink" version="1.1">
	<symbol id="Logo" viewBox="0 0 126 16" fill="none" xmlns="http://www.w3.org/2000/svg"><path d="M0.459999 0.999999H10.02V2.98H2.84V6.92H8.22V8.9H2.84V15H0.459999V0.999999Z" fill="#161616"/><path d="M23.6177 2.98H22.8977L18.6977 15H16.2577L21.2177 0.999999H25.2577L30.2377 15H27.7977L23.6177 2.98ZM18.9777 9.62H27.1377V11.58H18.9777V9.62Z" fill="#161616"/><path d="M40.435 11.16C40.515 11.5333 40.6683 11.8733 40.895 12.18C41.135 12.4733 41.4483 12.7067 41.835 12.88C42.235 13.0533 42.7083 13.14 43.255 13.14C44.095 13.14 44.7217 12.9467 45.135 12.56C45.5483 12.16 45.755 11.6933 45.755 11.16C45.755 10.72 45.6217 10.3533 45.355 10.06C45.1017 9.76667 44.7417 9.52 44.275 9.32C43.8083 9.10667 43.275 8.90667 42.675 8.72C42.1283 8.56 41.6017 8.39333 41.095 8.22C40.5883 8.03333 40.1283 7.80667 39.715 7.54C39.315 7.26 38.995 6.90667 38.755 6.48C38.515 6.04 38.4017 5.49333 38.415 4.84C38.415 3.98667 38.615 3.26667 39.015 2.68C39.415 2.08 39.975 1.62667 40.695 1.32C41.415 1.01333 42.2417 0.86 43.175 0.86C43.9617 0.86 44.6683 0.973333 45.295 1.2C45.935 1.41333 46.475 1.73333 46.915 2.16C47.355 2.57333 47.6817 3.08667 47.895 3.7L45.715 4.42C45.635 4.12667 45.475 3.86667 45.235 3.64C44.995 3.4 44.695 3.21333 44.335 3.08C43.9883 2.94667 43.6083 2.87333 43.195 2.86C42.7417 2.84667 42.335 2.91333 41.975 3.06C41.6283 3.20667 41.3483 3.42 41.135 3.7C40.9217 3.96667 40.815 4.28 40.815 4.64C40.815 5.05333 40.935 5.38 41.175 5.62C41.415 5.84667 41.7283 6.04 42.115 6.2C42.515 6.34667 42.955 6.5 43.435 6.66C43.995 6.82 44.5483 7.00667 45.095 7.22C45.655 7.42 46.1617 7.68 46.615 8C47.0817 8.30667 47.455 8.7 47.735 9.18C48.015 9.66 48.155 10.26 48.155 10.98C48.155 11.7533 47.975 12.4533 47.615 13.08C47.2683 13.7067 46.735 14.2067 46.015 14.58C45.295 14.9533 44.4017 15.14 43.335 15.14C42.4683 15.14 41.675 15.0133 40.955 14.76C40.2483 14.4933 39.655 14.12 39.175 13.64C38.7083 13.1467 38.4017 12.5667 38.255 11.9L40.435 11.16Z" fill="#161616"/><path d="M57.4952 0.999999H59.8752V6.92H66.4752V0.999999H68.8352V15H66.4752V8.9H59.8752V15H57.4952V0.999999Z" fill="#161616"/><path d="M78.7725 0.999999H81.1525V15H78.7725V0.999999Z" fill="#161616"/><path d="M97.485 15.14C96.4983 15.14 95.5717 14.9667 94.705 14.62C93.8383 14.2733 93.0783 13.7867 92.425 13.16C91.785 12.52 91.2783 11.7667 90.905 10.9C90.545 10.02 90.365 9.05333 90.365 8C90.365 6.96 90.545 6.00667 90.905 5.14C91.2783 4.26 91.785 3.5 92.425 2.86C93.0783 2.22 93.8383 1.72667 94.705 1.38C95.5717 1.03333 96.4983 0.86 97.485 0.86C98.4717 0.86 99.3917 1.03333 100.245 1.38C101.112 1.72667 101.865 2.22 102.505 2.86C103.158 3.5 103.665 4.26 104.025 5.14C104.398 6.00667 104.585 6.96 104.585 8C104.585 9.05333 104.398 10.02 104.025 10.9C103.665 11.7667 103.158 12.52 102.505 13.16C101.865 13.7867 101.112 14.2733 100.245 14.62C99.3917 14.9667 98.4717 15.14 97.485 15.14ZM97.485 13.12C98.3917 13.12 99.1983 12.9133 99.905 12.5C100.612 12.0733 101.165 11.48 101.565 10.72C101.965 9.94667 102.165 9.04 102.165 8C102.165 6.94667 101.965 6.04 101.565 5.28C101.165 4.52 100.612 3.93333 99.905 3.52C99.1983 3.09333 98.3917 2.88 97.485 2.88C96.5783 2.88 95.7717 3.09333 95.065 3.52C94.3583 3.93333 93.7983 4.52 93.385 5.28C92.985 6.04 92.785 6.94667 92.785 8C92.785 9.04 92.985 9.94667 93.385 10.72C93.7983 11.48 94.3583 12.0733 95.065 12.5C95.7717 12.9133 96.5783 13.12 97.485 13.12Z" fill="#161616"/><path d="M125.089 0.999999V15H122.669L116.149 4.74V15H113.769V0.999999H116.209L122.729 11.22V0.999999H125.089Z" fill="#161616"/></symbol>
	<symbol id="ChevronLeft" xmlns="http://www.w3.org/2000/svg" fill="none" viewBox="0 0 24 24" stroke="currentColor"><path stroke-linecap="round" stroke-linejoin="round" d="M15.75 19.5L8.25 12l7.5-7.5" /></symbol>
	<symbol id="ChevronRight" xmlns="http://www.w3.org/2000/svg" fill="none" viewBox="0 0 24 24" stroke="currentColor"><path stroke-linecap="round" stroke-linejoin="round" d="M8.25 4.5l7.5 7.5-7.5 7.5" /></symbol>
	<symbol id="ChevronUp" xmlns="http://www.w3.org/2000/svg" fill="none" viewBox="0 0 24 24" stroke="currentColor"><path stroke-linecap="round" stroke-linejoin="round" d="M4.5 15.75l7.5-7.5 7.5 7.5" /></symbol>	
	<symbol id="ChevronDown" xmlns="http://www.w3.org/2000/svg" fill="none" viewBox="0 0 24 24" stroke="currentColor"><path stroke-linecap="round" stroke-linejoin="round" d="M19.5 8.25l-7.5 7.5-7.5-7.5" /></symbol>
	<symbol id="QuestionMarkCircle" xmlns="http://www.w3.org/2000/svg" fill="none" viewBox="0 0 24 24" stroke="currentColor"><path stroke-linecap="round" stroke-linejoin="round" d="M9.879 7.519c1.171-1.025 3.071-1.025 4.242 0 1.172 1.025 1.172 2.687 0 3.712-.203.179-.43.326-.67.442-.745.361-1.45.999-1.45 1.827v.75M21 12a9 9 0 11-18 0 9 9 0 0118 0zm-9 5.25h.008v.008H12v-.008z" /></symbol>
	<symbol id="User" width="20" height="20" viewBox="0 0 20 20" fill="none" xmlns="http://www.w3.org/2000/svg"><path fill-rule="evenodd" clip-rule="evenodd" d="M10.0003 3.33366C8.61961 3.33366 7.50033 4.45295 7.50033 5.83366C7.50033 7.21437 8.61961 8.33366 10.0003 8.33366C11.381 8.33366 12.5003 7.21437 12.5003 5.83366C12.5003 4.45295 11.381 3.33366 10.0003 3.33366ZM5.83366 5.83366C5.83366 3.53247 7.69914 1.66699 10.0003 1.66699C12.3015 1.66699 14.167 3.53247 14.167 5.83366C14.167 8.13484 12.3015 10.0003 10.0003 10.0003C7.69914 10.0003 5.83366 8.13484 5.83366 5.83366ZM8.33366 13.3337C7.67062 13.3337 7.03473 13.597 6.56589 14.0659C6.09705 14.5347 5.83366 15.1706 5.83366 15.8337V17.5003C5.83366 17.9606 5.46056 18.3337 5.00033 18.3337C4.54009 18.3337 4.16699 17.9606 4.16699 17.5003V15.8337C4.16699 14.7286 4.60598 13.6688 5.38738 12.8874C6.16878 12.106 7.22859 11.667 8.33366 11.667H11.667C12.7721 11.667 13.8319 12.106 14.6133 12.8874C15.3947 13.6688 15.8337 14.7286 15.8337 15.8337V17.5003C15.8337 17.9606 15.4606 18.3337 15.0003 18.3337C14.5401 18.3337 14.167 17.9606 14.167 17.5003V15.8337C14.167 15.1706 13.9036 14.5347 13.4348 14.0659C12.9659 13.597 12.33 13.3337 11.667 13.3337H8.33366Z" fill="currentColor"/></symbol>
	<symbol id="ShoppingCart" width="20" height="20" viewBox="0 0 20 20" fill="none" xmlns="http://www.w3.org/2000/svg"><path d="M14.9997 5.00033H13.333C13.333 3.15866 11.8413 1.66699 9.99968 1.66699C8.15801 1.66699 6.66634 3.15866 6.66634 5.00033H4.99967C4.08301 5.00033 3.33301 5.75033 3.33301 6.66699V16.667C3.33301 17.5837 4.08301 18.3337 4.99967 18.3337H14.9997C15.9163 18.3337 16.6663 17.5837 16.6663 16.667V6.66699C16.6663 5.75033 15.9163 5.00033 14.9997 5.00033ZM9.99968 3.33366C10.9163 3.33366 11.6663 4.08366 11.6663 5.00033H8.33301C8.33301 4.08366 9.08301 3.33366 9.99968 3.33366ZM14.9997 16.667H4.99967V6.66699H6.66634V8.33366C6.66634 8.79199 7.04134 9.16699 7.49967 9.16699C7.95801 9.16699 8.33301 8.79199 8.33301 8.33366V6.66699H11.6663V8.33366C11.6663 8.79199 12.0413 9.16699 12.4997 9.16699C12.958 9.16699 13.333 8.79199 13.333 8.33366V6.66699H14.9997V16.667Z" fill="currentColor"/></symbol>
	<symbol id="Bars3" xmlns="http://www.w3.org/2000/svg" viewBox="0 0 20 20" stroke="currentColor" fill="none"><path fill-rule="evenodd" clip-rule="evenodd" d="M2.5 5.00033C2.5 4.54009 2.8731 4.16699 3.33333 4.16699H16.6667C17.1269 4.16699 17.5 4.54009 17.5 5.00033C17.5 5.46056 17.1269 5.83366 16.6667 5.83366H3.33333C2.8731 5.83366 2.5 5.46056 2.5 5.00033ZM2.5 10.0003C2.5 9.54009 2.8731 9.16699 3.33333 9.16699H16.6667C17.1269 9.16699 17.5 9.54009 17.5 10.0003C17.5 10.4606 17.1269 10.8337 16.6667 10.8337H3.33333C2.8731 10.8337 2.5 10.4606 2.5 10.0003ZM2.5 15.0003C2.5 14.5401 2.8731 14.167 3.33333 14.167H16.6667C17.1269 14.167 17.5 14.5401 17.5 15.0003C17.5 15.4606 17.1269 15.8337 16.6667 15.8337H3.33333C2.8731 15.8337 2.5 15.4606 2.5 15.0003Z" fill="currentColor"/></symbol>
	<symbol id="Heart" xmlns="http://www.w3.org/2000/svg" viewBox="0 0 24 24" stroke="currentColor"><path stroke-linecap="round" stroke-linejoin="round" d="M21 8.25c0-2.485-2.099-4.5-4.688-4.5-1.935 0-3.597 1.126-4.312 2.733-.715-1.607-2.377-2.733-4.313-2.733C5.1 3.75 3 5.765 3 8.25c0 7.22 9 12 9 12s9-4.78 9-12z" /></symbol>
	<symbol id="MagnifyingGlass" width="20" height="20" viewBox="0 0 20 20" fill="none" xmlns="http://www.w3.org/2000/svg"><path fill-rule="evenodd" clip-rule="evenodd" d="M8.33366 3.33366C5.57223 3.33366 3.33366 5.57223 3.33366 8.33366C3.33366 11.0951 5.57223 13.3337 8.33366 13.3337C11.0951 13.3337 13.3337 11.0951 13.3337 8.33366C13.3337 5.57223 11.0951 3.33366 8.33366 3.33366ZM1.66699 8.33366C1.66699 4.65176 4.65176 1.66699 8.33366 1.66699C12.0156 1.66699 15.0003 4.65176 15.0003 8.33366C15.0003 9.87425 14.4778 11.2928 13.6002 12.4217L18.0896 16.9111C18.415 17.2365 18.415 17.7641 18.0896 18.0896C17.7641 18.415 17.2365 18.415 16.9111 18.0896L12.4217 13.6002C11.2928 14.4778 9.87425 15.0003 8.33366 15.0003C4.65176 15.0003 1.66699 12.0156 1.66699 8.33366Z" fill="currentColor"/></symbol>
	<symbol id="XMark" xmlns="http://www.w3.org/2000/svg" fill="none" viewBox="0 0 24 24" stroke="currentColor"><path stroke-linecap="round" stroke-linejoin="round" d="M6 18L18 6M6 6l12 12" /></symbol>
	<symbol id="Plus" xmlns="http://www.w3.org/2000/svg" fill="none" viewBox="0 0 24 24" stroke="currentColor"><path stroke-linecap="round" stroke-linejoin="round" d="M12 4.5v15m7.5-7.5h-15" /></symbol>
	<symbol id="Minus" xmlns="http://www.w3.org/2000/svg" fill="none" viewBox="0 0 24 24" stroke="currentColor"><path stroke-linecap="round" stroke-linejoin="round" d="M19.5 12h-15" /></symbol>
	<symbol id="MapPin" xmlns="http://www.w3.org/2000/svg" fill="none" viewBox="0 0 24 24" stroke="currentColor"><path stroke-linecap="round" stroke-linejoin="round" d="M15 10.5a3 3 0 11-6 0 3 3 0 016 0z" /><path stroke-linecap="round" stroke-linejoin="round" d="M19.5 10.5c0 7.142-7.5 11.25-7.5 11.25S4.5 17.642 4.5 10.5a7.5 7.5 0 1115 0z" /></symbol>	
	<symbol id="Phone" xmlns="http://www.w3.org/2000/svg" fill="none" viewBox="0 0 24 24" stroke="currentColor"><path stroke-linecap="round" stroke-linejoin="round" d="M2.25 6.75c0 8.284 6.716 15 15 15h2.25a2.25 2.25 0 002.25-2.25v-1.372c0-.516-.351-.966-.852-1.091l-4.423-1.106c-.44-.11-.902.055-1.173.417l-.97 1.293c-.282.376-.769.542-1.21.38a12.035 12.035 0 01-7.143-7.143c-.162-.441.004-.928.38-1.21l1.293-.97c.363-.271.527-.734.417-1.173L6.963 3.102a1.125 1.125 0 00-1.091-.852H4.5A2.25 2.25 0 002.25 4.5v2.25z" /></symbol>
	<symbol id="Elo" xmlns="http://www.w3.org/2000/svg" viewBox="0 0 40 14" stroke="currentColor" fill="none"><path d="M6.57655 3.09309C6.98496 2.95495 7.4234 2.88288 7.87985 2.88288C9.87385 2.88288 11.5375 4.3003 11.9159 6.18018L14.7387 5.6036C14.0901 2.40841 11.2672 0 7.87985 0C7.10508 0 6.36033 0.126126 5.66364 0.36036L6.57655 3.09309Z" fill="currentColor"/><path d="M3.24323 12.2463L5.15314 10.0841C4.30029 9.32733 3.76576 8.22823 3.76576 6.997C3.76576 5.77178 4.30029 4.66667 5.15314 3.91592L3.24323 1.75977C1.79579 3.04505 0.882874 4.91292 0.882874 7.00301C0.882874 9.08709 1.79579 10.961 3.24323 12.2463Z" fill="currentColor"/><path d="M11.9159 7.82617C11.5315 9.70605 9.87387 11.1175 7.87988 11.1175C7.42342 11.1175 6.98498 11.0454 6.57057 10.9073L5.65765 13.64C6.35435 13.8742 7.1051 14.0003 7.87988 14.0003C11.2673 14.0003 14.0901 11.5979 14.7387 8.40275L11.9159 7.82617Z" fill="currentColor"/><path d="M24.1441 9.75962C23.6757 10.2161 23.045 10.4924 22.3484 10.4803C21.8679 10.4743 21.4234 10.3302 21.0511 10.0899L20.1141 11.5794C20.7568 11.9818 21.5075 12.2221 22.3243 12.2341C23.5075 12.2521 24.5886 11.7836 25.3754 11.0209L24.1441 9.75962ZM22.4505 3.68755C20.0961 3.65151 18.1502 5.5374 18.1141 7.89175C18.1021 8.77463 18.3544 9.60346 18.8048 10.2881L26.5405 6.97884C26.1081 5.12298 24.4505 3.72358 22.4505 3.68755ZM19.8859 8.22809C19.8739 8.13199 19.8679 8.02989 19.8679 7.92779C19.8919 6.5404 21.033 5.42929 22.4204 5.45331C23.1772 5.46532 23.8499 5.80767 24.3003 6.34821L19.8859 8.22809ZM28.973 1.76562V10.0119L30.4024 10.6065L29.7237 12.2341L28.3063 11.6455C27.988 11.5074 27.7718 11.2972 27.6096 11.0569C27.4535 10.8167 27.3333 10.4803 27.3333 10.0359V1.76562H28.973Z" fill="currentColor"/><path d="M34.1321 5.57925C34.3844 5.49516 34.6487 5.45312 34.9309 5.45312C36.1502 5.45312 37.1592 6.31798 37.3934 7.46513L39.1171 7.11078C38.7207 5.15882 36.997 3.69336 34.9309 3.69336C34.4565 3.69336 34 3.77144 33.5796 3.90958L34.1321 5.57925ZM32.0961 11.1588L33.2613 9.84351C32.7387 9.38105 32.4144 8.70837 32.4144 7.95762C32.4144 7.20687 32.7448 6.5342 33.2613 6.07774L32.0961 4.76243C31.2132 5.54321 30.6547 6.69036 30.6547 7.96363C30.6547 9.2369 31.2132 10.378 32.0961 11.1588ZM37.3934 8.46813C37.1592 9.61528 36.1442 10.4801 34.9309 10.4801C34.6547 10.4801 34.3844 10.4321 34.1321 10.348L33.5736 12.0177C34 12.1618 34.4565 12.2399 34.9309 12.2399C36.997 12.2399 38.7207 10.7744 39.1171 8.82249L37.3934 8.46813Z" fill="currentColor"/></symbol>
	<symbol id="Mastercard" xmlns="http://www.w3.org/2000/svg" viewBox="0 0 26 20" fill="none" stroke="currentColor"><g clip-path="url(#clip0_81_156)"><path d="M4.77191 19.9552V18.6263C4.77191 18.1167 4.46174 17.7846 3.95265 17.7846C3.68527 17.7846 3.39918 17.8734 3.19971 18.159C3.04463 17.9151 2.82538 17.7846 2.49116 17.7846C2.36689 17.7793 2.24323 17.8048 2.13124 17.8589C2.01926 17.913 1.92244 17.9941 1.84944 18.0948V17.8274H1.42859V19.9536H1.84944V18.737C1.84944 18.3627 2.07083 18.1836 2.381 18.1836C2.69116 18.1836 2.86816 18.383 2.86816 18.737V19.9552H3.28902V18.737C3.28902 18.3627 3.51041 18.1836 3.82057 18.1836C4.13073 18.1836 4.30773 18.383 4.30773 18.737V19.9552H4.77191ZM11.6821 17.8509H10.9067V17.2092H10.4869V17.8509H10.0441V18.2253H10.4869V19.2242C10.4869 19.7114 10.6639 19.9996 11.1954 19.9996C11.3968 19.9954 11.5941 19.9422 11.7703 19.8445L11.6371 19.4702C11.5177 19.5449 11.3791 19.5833 11.2382 19.5809C11.0168 19.5809 10.9061 19.4477 10.9061 19.2263V18.2082H11.6815V17.8536L11.6821 17.8509ZM15.6243 17.7846C15.5097 17.7821 15.3964 17.8093 15.2954 17.8637C15.1945 17.918 15.1093 17.9977 15.0484 18.0948V17.8274H14.6275V19.9536H15.0484V18.7595C15.0484 18.405 15.2254 18.1836 15.5136 18.1836C15.6109 18.1875 15.7074 18.2024 15.8013 18.2279L15.9345 17.829C15.8329 17.8034 15.729 17.7885 15.6243 17.7846ZM9.66656 18.006C9.44517 17.8509 9.13501 17.7846 8.80292 17.7846C8.27137 17.7846 7.93928 18.0285 7.93928 18.4493C7.93928 18.8039 8.18314 19.0028 8.64784 19.0697L8.86923 19.0916C9.11308 19.136 9.26816 19.2247 9.26816 19.3354C9.26816 19.4905 9.09116 19.6028 8.75854 19.6028C8.50456 19.608 8.2558 19.5303 8.04998 19.3814L7.82859 19.7135C8.13875 19.9349 8.51522 19.9809 8.73768 19.9809C9.358 19.9809 9.69009 19.6932 9.69009 19.2943C9.69009 18.9199 9.42271 18.7408 8.95907 18.6739L8.73768 18.652C8.53822 18.6301 8.36335 18.5632 8.36335 18.4306C8.36335 18.2755 8.54036 18.1632 8.78421 18.1632C9.05159 18.1632 9.31576 18.2739 9.44891 18.3402L9.66656 18.006ZM16.0896 18.8921C16.0896 19.5338 16.5104 19.9996 17.197 19.9996C17.5072 19.9996 17.7286 19.9333 17.95 19.7558L17.7286 19.4237C17.5718 19.5506 17.3768 19.6209 17.1751 19.6231C16.8008 19.6231 16.5104 19.3354 16.5104 18.9146C16.5104 18.4937 16.797 18.2082 17.1751 18.2082C17.3768 18.2104 17.5718 18.2807 17.7286 18.4076L17.95 18.0755C17.7286 17.8985 17.5072 17.8317 17.197 17.8317C16.5323 17.7873 16.0896 18.2525 16.0896 18.8948V18.8921ZM13.1216 17.7846C12.5013 17.7846 12.0805 18.2274 12.0805 18.8921C12.0805 19.5568 12.5232 19.9996 13.1655 19.9996C13.4779 20.0062 13.7831 19.9046 14.0291 19.7119L13.8077 19.4017C13.6298 19.5396 13.4125 19.6172 13.1874 19.6231C12.8997 19.6231 12.5896 19.4461 12.5457 19.0697H14.1184V18.8927C14.1184 18.2279 13.7195 17.7852 13.1216 17.7852V17.7846ZM13.0997 18.1836C13.4099 18.1836 13.6313 18.383 13.6532 18.7151H12.5019C12.5682 18.405 12.7692 18.1836 13.0997 18.1836ZM7.36335 18.8921V17.829H6.94249V18.0964C6.78741 17.8969 6.56816 17.7862 6.25586 17.7862C5.658 17.7862 5.21469 18.2515 5.21469 18.8937C5.21469 19.536 5.65747 20.0012 6.25586 20.0012C6.56602 20.0012 6.78741 19.8905 6.94249 19.691V19.9584H7.36335V18.8921ZM5.658 18.8921C5.658 18.4932 5.90185 18.1836 6.32271 18.1836C6.72164 18.1836 6.96442 18.4937 6.96442 18.8921C6.96442 19.313 6.69704 19.6007 6.32271 19.6007C5.90185 19.6226 5.658 19.2905 5.658 18.8921ZM22.0259 17.7846C21.9113 17.7821 21.798 17.8093 21.697 17.8637C21.5961 17.918 21.5109 17.9977 21.45 18.0948V17.8274H21.0291V19.9536H21.4495V18.7595C21.4495 18.405 21.6265 18.1836 21.9147 18.1836C22.012 18.1875 22.1085 18.2024 22.2024 18.2279L22.3355 17.829C22.234 17.8034 22.13 17.7885 22.0254 17.7846H22.0259ZM20.3869 18.8921V17.829H19.966V18.0964C19.8109 17.8969 19.5917 17.7862 19.2794 17.7862C18.6815 17.7862 18.2382 18.2515 18.2382 18.8937C18.2382 19.536 18.681 20.0012 19.2794 20.0012C19.5896 20.0012 19.8109 19.8905 19.966 19.691V19.9584H20.3869V18.8921ZM18.6815 18.8921C18.6815 18.4932 18.9254 18.1836 19.3462 18.1836C19.7452 18.1836 19.988 18.4937 19.988 18.8921C19.988 19.313 19.7206 19.6007 19.3462 19.6007C18.9254 19.6226 18.6815 19.2905 18.6815 18.8921ZM24.6618 18.8921V16.9873H24.2409V18.0948C24.0858 17.8953 23.8666 17.7846 23.5543 17.7846C22.9564 17.7846 22.5131 18.2499 22.5131 18.8921C22.5131 19.5344 22.9559 19.9996 23.5543 19.9996C23.8644 19.9996 24.0858 19.8889 24.2409 19.6894V19.9568H24.6618V18.8921ZM22.9564 18.8921C22.9564 18.4932 23.2003 18.1836 23.6211 18.1836C24.02 18.1836 24.2628 18.4937 24.2628 18.8921C24.2628 19.313 23.9954 19.6007 23.6211 19.6007C23.1997 19.6231 22.9559 19.291 22.9559 18.8921H22.9564Z" fill="currentColor"/><path d="M9.95478 7.97327C9.95505 6.76731 10.2281 5.57704 10.7536 4.49159C11.279 3.40613 12.0433 2.45361 12.989 1.70535C11.8128 0.780601 10.4002 0.205442 8.9126 0.045623C7.42499 -0.114196 5.92242 0.147775 4.57667 0.801588C3.23091 1.4554 2.09627 2.47468 1.30244 3.74289C0.508619 5.01111 0.0876465 6.47709 0.0876465 7.97327C0.0876465 9.46944 0.508619 10.9354 1.30244 12.2036C2.09627 13.4719 3.23091 14.4911 4.57667 15.1449C5.92242 15.7988 7.42499 16.0607 8.9126 15.9009C10.4002 15.7411 11.8128 15.1659 12.989 14.2412C12.0433 13.4929 11.279 12.5404 10.7536 11.4549C10.2281 10.3695 9.95505 9.17922 9.95478 7.97327Z" fill="currentColor"/><path d="M25.9019 7.97297C25.9029 9.46805 25.4832 10.9333 24.6907 12.201C23.8982 13.4688 22.7648 14.4879 21.4203 15.1418C20.0758 15.7957 18.5744 16.0579 17.0879 15.8986C15.6013 15.7393 14.1896 15.1648 13.0142 14.2409C13.9601 13.4928 14.7245 12.5403 15.25 11.4548C15.7755 10.3693 16.0485 9.17898 16.0485 7.97297C16.0485 6.76696 15.7755 5.5766 15.25 4.4911C14.7245 3.4056 13.9601 2.45312 13.0142 1.70506C14.1896 0.781104 15.6013 0.20662 17.0879 0.0473072C18.5744 -0.112005 20.0758 0.150287 21.4203 0.804186C22.7648 1.45808 23.8982 2.47719 24.6907 3.74493C25.4832 5.01268 25.9029 6.47789 25.9019 7.97297Z" fill="currentColor" fill-opacity="0.4"/><path fill-rule="evenodd" clip-rule="evenodd" d="M13.0141 1.70508H12.989C12.0432 2.45333 11.279 3.40585 10.7536 4.49131C10.2281 5.57677 9.95504 6.76704 9.95477 7.97299C9.95504 9.17894 10.2281 10.3692 10.7536 11.4547C11.279 12.5401 12.0433 13.4926 12.989 14.2409H13.0141C13.0141 14.2409 13.0141 14.2409 13.0141 14.2409C13.9601 13.4928 14.7245 12.5404 15.25 11.4549C15.7755 10.3694 16.0484 9.17899 16.0484 7.97299C16.0484 6.76698 15.7755 5.57661 15.25 4.49111C14.7245 3.40561 13.9601 2.45314 13.0141 1.70508Z" fill="currentColor" fill-opacity="0.6"/></g><defs><clipPath id="clip0_81_156"><rect width="25.8027" height="20" fill="white" transform="translate(0.0986328)"/></clipPath></defs></symbol>
	<symbol id="Visa" xmlns="http://www.w3.org/2000/svg" viewBox="0 0 40 12" fill="none" stroke="currentColor"><path d="M14.2514 11.8628L16.2325 0.237305H19.4012L17.4187 11.8628H14.2514Z" fill="currentColor"/><path d="M28.8667 0.488266C28.2389 0.252744 27.2552 0 26.0267 0C22.8956 0 20.6902 1.57674 20.6714 3.83653C20.6537 5.50698 22.2459 6.43886 23.4479 6.99494C24.6813 7.56486 25.0959 7.92824 25.09 8.437C25.0821 9.21631 24.105 9.57221 23.1942 9.57221C21.926 9.57221 21.2522 9.39601 20.2115 8.96208L19.8031 8.77728L19.3585 11.3797C20.0986 11.7043 21.4671 11.9854 22.8882 12C26.2191 12 28.3815 10.4413 28.4061 8.02807C28.4179 6.70556 27.5737 5.69921 25.7455 4.86948C24.638 4.33169 23.9597 3.97282 23.9669 3.42826C23.9669 2.94504 24.541 2.42833 25.7816 2.42833C26.8177 2.41223 27.5684 2.6382 28.1533 2.87372L28.4372 3.00787L28.8667 0.488266Z" fill="currentColor"/><path d="M37.0208 0.237305H34.5723C33.8138 0.237305 33.2461 0.444322 32.913 1.20137L28.2071 11.8552H31.5345C31.5345 11.8552 32.0785 10.4228 32.2015 10.1082C32.5651 10.1082 35.7976 10.1132 36.2597 10.1132C36.3545 10.5202 36.6452 11.8552 36.6452 11.8552H39.5855L37.0208 0.237305ZM33.136 7.74409C33.3981 7.07428 34.3985 4.49428 34.3985 4.49428C34.3798 4.52522 34.6587 3.82121 34.8186 3.38473L35.0328 4.38703C35.0328 4.38703 35.6395 7.16205 35.7663 7.74391H33.136V7.74409Z" fill="currentColor"/><path d="M0.45503 0.237305L0.414551 0.479138C1.66716 0.782359 2.78593 1.22123 3.76542 1.76717L6.57706 11.8441L9.92966 11.8404L14.9183 0.237305H11.5615L8.45929 8.16502L8.12885 6.55384C8.11337 6.50406 8.09654 6.4542 8.07932 6.40422L7.00087 1.21879C6.80912 0.482646 6.25282 0.262959 5.56461 0.237305H0.45503Z" fill="currentColor"/></symbol>		
	<symbol id="Pix" viewBox="0 0 512 512" xmlns="http://www.w3.org/2000/svg" fill="none" stroke="currentColor"> <defs/> <g fill="currentColor" fill-rule="evenodd"> <path d="M393.072 391.897c-20.082 0-38.969-7.81-53.176-22.02l-77.069-77.067c-5.375-5.375-14.773-5.395-20.17 0l-76.784 76.786c-14.209 14.207-33.095 22.019-53.179 22.019h-9.247l97.521 97.52c30.375 30.375 79.614 30.375 109.988 0l97.239-97.238h-15.123zm-105.049 74.327c-8.55 8.53-19.93 13.25-32.05 13.25h-.02c-12.12 0-23.522-4.721-32.05-13.25l-56.855-56.855c7.875-4.613 15.165-10.248 21.758-16.84l63.948-63.948 64.23 64.23c7.637 7.66 16.188 14.013 25.478 18.952l-54.439 54.46zM310.958 22.78c-30.374-30.374-79.613-30.374-109.988 0l-97.52 97.52h9.247c20.082 0 38.97 7.834 53.178 22.02l76.784 76.785c5.57 5.592 14.622 5.57 20.17 0l77.069-77.068c14.207-14.187 33.094-22.02 53.176-22.02h15.123l-97.239-97.237zm6.028 96.346l-64.23 64.23-63.97-63.97c-6.593-6.592-13.86-12.206-21.736-16.818l56.853-56.877c17.69-17.645 46.476-17.668 64.121 0l54.44 54.461c-9.292 4.961-17.842 11.315-25.479 18.974h.001z"/> <path d="M489.149 200.97l-58.379-58.377h-37.706c-13.838 0-27.394 5.635-37.185 15.426l-77.068 77.069c-7.202 7.18-16.623 10.77-26.067 10.77-9.443 0-18.885-3.59-26.066-10.77l-76.785-76.785c-9.792-9.814-23.346-15.427-37.207-15.427h-31.81L22.78 200.97c-30.374 30.375-30.374 79.614 0 109.988l58.095 58.074 31.81.021c13.86 0 27.416-5.635 37.208-15.426l76.784-76.764c13.925-13.947 38.208-13.924 52.133-.02l77.068 77.066c9.791 9.792 23.346 15.405 37.185 15.405h37.706l58.379-58.356c30.374-30.374 30.374-79.613 0-109.988zm-362.19 129.724c-3.763 3.786-8.942 5.917-14.273 5.917H94.302l-48.59-48.564c-17.689-17.69-17.689-46.476 0-64.143L94.3 175.296h18.385c5.331 0 10.51 2.154 14.295 5.918l74.74 74.74-74.761 74.74zm339.257-42.647l-48.848 48.87h-24.305c-5.309 0-10.508-2.155-14.251-5.92l-75.023-75.043 75.023-75.023c3.743-3.764 8.942-5.918 14.252-5.918h24.304l48.847 48.891c8.573 8.551 13.273 19.93 13.273 32.05 0 12.141-4.7 23.52-13.273 32.093z"/> </g> </symbol>
	<symbol id="Facebook" xmlns="http://www.w3.org/2000/svg" viewBox="0 0 24 24" stroke="currentColor" fill="none" stroke-linecap="round" stroke-linejoin="round"><path stroke="none" d="M0 0h24v24H0z" fill="none" /><path d="M7 10v4h3v7h4v-7h3l1 -4h-4v-2a1 1 0 0 1 1 -1h3v-4h-3a5 5 0 0 0 -5 5v2h-3" /></symbol>
	<symbol id="Instagram" xmlns="http://www.w3.org/2000/svg" viewBox="0 0 24 24" stroke="currentColor" fill="none" stroke-linecap="round" stroke-linejoin="round"><path stroke="none" d="M0 0h24v24H0z" fill="none" /><rect x="4" y="4" width="16" height="16" rx="4" /><circle cx="12" cy="12" r="3" /><line x1="16.5" y1="7.5" x2="16.5" y2="7.501" /></symbol>
	<symbol id="Tiktok" xmlns="http://www.w3.org/2000/svg" viewBox="0 0 24 24" stroke="currentColor" fill="none" stroke-linecap="round" stroke-linejoin="round"><path stroke="none" d="M0 0h24v24H0z" fill="none" /><path d="M9 12a4 4 0 1 0 4 4v-12a5 5 0 0 0 5 5" /></symbol>
	<symbol id="Truck" xmlns="http://www.w3.org/2000/svg"  viewBox="0 0 36 28" stroke="currentColor" fill="none"><path d="M14 22.333C14 24.174 12.5077 25.6663 10.6667 25.6663C8.82576 25.6663 7.33337 24.174 7.33337 22.333M14 22.333C14 20.4921 12.5077 18.9997 10.6667 18.9997C8.82576 18.9997 7.33337 20.4921 7.33337 22.333M14 22.333H24M7.33337 22.333H4.00004V15.6663M30.6667 22.333C30.6667 24.174 29.1743 25.6663 27.3334 25.6663C25.4924 25.6663 24 24.174 24 22.333M30.6667 22.333C30.6667 20.4921 29.1743 18.9997 27.3334 18.9997C25.4924 18.9997 24 20.4921 24 22.333M30.6667 22.333H34V12.333M2.33337 2.33301H20.6667V22.333M34 12.333H20.6667M34 12.333L29 3.99967H20.6667M4.00004 8.99967H10.6667" stroke-linecap="round" stroke-linejoin="round"/></symbol>
	<symbol id="Discount" xmlns="http://www.w3.org/2000/svg" viewBox="0 0 34 34" stroke="currentColor" fill="none"><path d="M12 21.9998L22 11.9998M13.6667 12.8332C13.6667 13.2934 13.2936 13.6665 12.8333 13.6665C12.3731 13.6665 12 13.2934 12 12.8332C12 12.3729 12.3731 11.9998 12.8333 11.9998C13.2936 11.9998 13.6667 12.3729 13.6667 12.8332ZM22 21.1665C22 21.6267 21.6269 21.9998 21.1667 21.9998C20.7064 21.9998 20.3333 21.6267 20.3333 21.1665C20.3333 20.7063 20.7064 20.3332 21.1667 20.3332C21.6269 20.3332 22 20.7063 22 21.1665ZM5.33334 8.99979C5.33334 8.02733 5.71965 7.0947 6.40728 6.40707C7.09491 5.71943 8.02755 5.33313 9.00001 5.33313H10.6667C11.6348 5.33257 12.5635 4.94913 13.25 4.26646L14.4167 3.09979C14.7574 2.75713 15.1625 2.4852 15.6087 2.29964C16.0549 2.11408 16.5334 2.01855 17.0167 2.01855C17.4999 2.01855 17.9784 2.11408 18.4246 2.29964C18.8708 2.4852 19.2759 2.75713 19.6167 3.09979L20.7833 4.26646C21.4699 4.94913 22.3985 5.33257 23.3667 5.33313H25.0333C26.0058 5.33313 26.9384 5.71943 27.6261 6.40707C28.3137 7.0947 28.7 8.02733 28.7 8.99979V10.6665C28.7006 11.6346 29.084 12.5633 29.7667 13.2498L30.9333 14.4165C31.276 14.7572 31.5479 15.1623 31.7335 15.6085C31.9191 16.0547 32.0146 16.5332 32.0146 17.0165C32.0146 17.4997 31.9191 17.9782 31.7335 18.4244C31.5479 18.8706 31.276 19.2757 30.9333 19.6165L29.7667 20.7831C29.084 21.4696 28.7006 22.3983 28.7 23.3665V25.0331C28.7 26.0056 28.3137 26.9382 27.6261 27.6259C26.9384 28.3135 26.0058 28.6998 25.0333 28.6998H23.3667C22.3985 28.7003 21.4699 29.0838 20.7833 29.7665L19.6167 30.9331C19.2759 31.2758 18.8708 31.5477 18.4246 31.7333C17.9784 31.9188 17.4999 32.0144 17.0167 32.0144C16.5334 32.0144 16.0549 31.9188 15.6087 31.7333C15.1625 31.5477 14.7574 31.2758 14.4167 30.9331L13.25 29.7665C12.5635 29.0838 11.6348 28.7003 10.6667 28.6998H9.00001C8.02755 28.6998 7.09491 28.3135 6.40728 27.6259C5.71965 26.9382 5.33334 26.0056 5.33334 25.0331V23.3665C5.33279 22.3983 4.94934 21.4696 4.26667 20.7831L3.10001 19.6165C2.75734 19.2757 2.48541 18.8706 2.29985 18.4244C2.11429 17.9782 2.01877 17.4997 2.01877 17.0165C2.01877 16.5332 2.11429 16.0547 2.29985 15.6085C2.48541 15.1623 2.75734 14.7572 3.10001 14.4165L4.26667 13.2498C4.94934 12.5633 5.33279 11.6346 5.33334 10.6665V8.99979Z" stroke-linecap="round" stroke-linejoin="round"/></symbol>
	<symbol id="Return" xmlns="http://www.w3.org/2000/svg" viewBox="0 0 34 30" stroke="currentColor" fill="none"><path d="M32 6.66699H2M32 6.66699L27 11.667M32 6.66699L27 1.66699M7 28.3337L2 23.3337M2 23.3337L7 18.3337M2 23.3337H32" stroke-linecap="round" stroke-linejoin="round"/></symbol>			
	<symbol id="CreditCard" xmlns="http://www.w3.org/2000/svg" viewBox="0 0 34 28" stroke="currentColor" fill="none"><path d="M2 10.6663H32M8.66667 18.9997H8.68333M15.3333 18.9997H18.6667M7 2.33301H27C29.7614 2.33301 32 4.57158 32 7.33301V20.6663C32 23.4278 29.7614 25.6663 27 25.6663H7C4.23858 25.6663 2 23.4278 2 20.6663V7.33301C2 4.57158 4.23858 2.33301 7 2.33301Z" stroke-linecap="round" stroke-linejoin="round"/></symbol>		
	<symbol id="Deco" xmlns="http://www.w3.org/2000/svg" viewBox="0 0 58 20" stroke="currentColor" fill="none"><path d="M49.5359 16.9432C47.3666 16.9432 46.9948 14.8019 47.6797 12.7178C48.2221 11.0615 49.5066 9.31991 51.4201 9.31991C53.676 9.31991 53.9039 11.6038 53.247 13.6026C52.6753 15.3162 51.3908 16.9432 49.5359 16.9432ZM48.879 19.9973C52.6473 19.9973 56.0159 17.9133 57.3578 14.1449C58.7569 10.1767 57.1859 6.2085 52.0477 6.2085C47.9369 6.2085 44.7962 8.77758 43.5969 12.1755C42.2551 16.0011 43.7115 19.9973 48.879 19.9973ZM36.3747 19.9973C37.8591 19.9973 39.3729 19.6829 40.4282 19.2271C40.8 18.1998 40.828 17.2004 40.5428 16.201C39.8006 16.4862 38.7732 16.7727 37.7165 16.7727C34.861 16.7727 34.6051 14.6606 35.2048 12.8617C35.8617 10.9496 37.574 9.40786 40.287 9.40786C41.0012 9.40786 41.6861 9.52246 42.1138 9.77963C42.856 8.78025 43.2838 7.78086 43.3704 6.7535C42.7428 6.46834 41.6861 6.21117 40.3163 6.21117C35.863 6.21117 32.3505 8.80956 31.0953 12.406C29.896 15.8039 30.8101 20 36.3774 20L36.3747 19.9973ZM21.0442 11.8037C21.8143 10.0901 23.0136 9.09206 24.5846 9.09206C25.9838 9.09206 26.2116 9.86225 25.9838 10.4619C25.6413 11.2894 24.47 11.8037 21.0442 11.8037ZM22.2714 19.9973C23.7278 19.9973 25.7826 19.7122 27.4962 18.8554C27.7813 17.9133 27.7534 16.9712 27.4389 15.9998C26.3542 16.5421 24.8405 16.8566 23.4707 16.8566C21.4439 16.8566 20.3299 16.1997 20.3592 14.5447C25.8972 14.6873 28.7807 13.6879 29.7228 11.2334C30.6649 8.7496 29.0379 6.2085 25.1829 6.2085C21.0721 6.2085 18.046 9.14935 16.932 12.3181C15.7621 15.6867 16.5043 19.9973 22.2701 19.9973H22.2714ZM5.72293 19.9973C9.52059 19.9973 11.6806 18.2557 14.1924 12.9177C15.5622 9.97684 16.7335 7.09329 18.0753 4.23905L19.6743 4.7534C20.1021 4.89598 20.3313 4.6388 20.1314 4.23905L18.1899 0.270827C18.0473 -0.0143302 17.7329 -0.0436454 17.533 0.0429678L12.708 1.86984C12.3082 2.01242 12.3362 2.38419 12.7359 2.49745L14.1631 2.95451C12.9931 5.6102 11.5367 9.60641 10.3654 12.1182C9.05155 14.9165 8.39595 16.8859 6.16933 16.8859C3.9427 16.8859 3.57093 15.1443 4.51301 12.6605C5.59768 9.77697 7.42455 8.92016 9.5086 9.51979C10.0802 8.72028 10.508 7.52103 10.6785 6.43636C10.0789 6.26447 9.36469 6.2085 8.76639 6.2085C5.3978 6.2085 2.05719 7.95009 0.687373 11.6038C-1.0822 16.3143 0.554122 19.9973 5.7216 19.9973H5.72293Z" fill="currentColor"/></symbol>
	<symbol id="Discord" xmlns="http://www.w3.org/2000/svg" viewBox="0 0 127.14 96.36" stroke="currentColor" fill="none"><g id="图层_2" data-name="图层 2"><g id="Discord_Logos" data-name="Discord Logos"><g id="Discord_Logo_-_Large_-_White" data-name="Discord Logo - Large - White"><path class="cls-1" d="M107.7,8.07A105.15,105.15,0,0,0,81.47,0a72.06,72.06,0,0,0-3.36,6.83A97.68,97.68,0,0,0,49,6.83,72.37,72.37,0,0,0,45.64,0,105.89,105.89,0,0,0,19.39,8.09C2.79,32.65-1.71,56.6.54,80.21h0A105.73,105.73,0,0,0,32.71,96.36,77.7,77.7,0,0,0,39.6,85.25a68.42,68.42,0,0,1-10.85-5.18c.91-.66,1.8-1.34,2.66-2a75.57,75.57,0,0,0,64.32,0c.87.71,1.76,1.39,2.66,2a68.68,68.68,0,0,1-10.87,5.19,77,77,0,0,0,6.89,11.1A105.25,105.25,0,0,0,126.6,80.22h0C129.24,52.84,122.09,29.11,107.7,8.07ZM42.45,65.69C36.18,65.69,31,60,31,53s5-12.74,11.43-12.74S54,46,53.89,53,48.84,65.69,42.45,65.69Zm42.24,0C78.41,65.69,73.25,60,73.25,53s5-12.74,11.44-12.74S96.23,46,96.12,53,91.08,65.69,84.69,65.69Z"/></g></g></g></symbol>
	<symbol id="FilterList" xmlns="http://www.w3.org/2000/svg" viewBox="0 0 16 16" fill="none"><path d="M6.66667 12H9.33333V10.6667H6.66667V12ZM2 4V5.33333H14V4H2ZM4 8.66667H12V7.33333H4V8.66667Z" fill="currentColor"/></symbol>
	<symbol id="ChevronUp" xmlns="http://www.w3.org/2000/svg" viewBox="0 0 16 16" stroke="currentColor" fill="none"><path fill-rule="evenodd" clip-rule="evenodd" d="M7.52851 5.52827C7.78886 5.26792 8.21097 5.26792 8.47132 5.52827L12.4713 9.52827C12.7317 9.78862 12.7317 10.2107 12.4713 10.4711C12.211 10.7314 11.7889 10.7314 11.5285 10.4711L7.99992 6.94248L4.47132 10.4711C4.21097 10.7314 3.78886 10.7314 3.52851 10.4711C3.26816 10.2107 3.26816 9.78862 3.52851 9.52827L7.52851 5.52827Z" fill="black"/></symbol>
	<symbol id="Trash" width="20" height="20" viewBox="0 0 20 20" fill="none" xmlns="http://www.w3.org/2000/svg"><path fill-rule="evenodd" clip-rule="evenodd" d="M7.15482 2.15483C7.46738 1.84227 7.89131 1.66667 8.33333 1.66667H11.6667C12.1087 1.66667 12.5326 1.84227 12.8452 2.15483C13.1577 2.46739 13.3333 2.89131 13.3333 3.33334V5H15.8236C15.8295 4.99994 15.8353 4.99994 15.8412 5H16.6667C17.1269 5 17.5 5.3731 17.5 5.83334C17.5 6.29357 17.1269 6.66667 16.6667 6.66667H16.6001L15.833 15.8715C15.8231 16.5207 15.5609 17.1413 15.1011 17.6011C14.6323 18.0699 13.9964 18.3333 13.3333 18.3333H6.66667C6.00362 18.3333 5.36774 18.0699 4.8989 17.6011C4.43906 17.1413 4.17685 16.5207 4.16696 15.8715L3.39989 6.66667H3.33333C2.8731 6.66667 2.5 6.29357 2.5 5.83334C2.5 5.3731 2.8731 5 3.33333 5H4.15878C4.16467 4.99994 4.17055 4.99994 4.17641 5H6.66667V3.33334C6.66667 2.89131 6.84226 2.46739 7.15482 2.15483ZM5.07233 6.66667L5.83045 15.7641C5.83237 15.7871 5.83333 15.8102 5.83333 15.8333C5.83333 16.0543 5.92113 16.2663 6.07741 16.4226C6.23369 16.5789 6.44565 16.6667 6.66667 16.6667H13.3333C13.5543 16.6667 13.7663 16.5789 13.9226 16.4226C14.0789 16.2663 14.1667 16.0543 14.1667 15.8333C14.1667 15.8102 14.1676 15.7871 14.1695 15.7641L14.9277 6.66667H5.07233ZM11.6667 5H8.33333V3.33334H11.6667V5ZM8.33333 8.33334C8.79357 8.33334 9.16667 8.70643 9.16667 9.16667V14.1667C9.16667 14.6269 8.79357 15 8.33333 15C7.8731 15 7.5 14.6269 7.5 14.1667V9.16667C7.5 8.70643 7.8731 8.33334 8.33333 8.33334ZM11.6667 8.33334C12.1269 8.33334 12.5 8.70643 12.5 9.16667V14.1667C12.5 14.6269 12.1269 15 11.6667 15C11.2064 15 10.8333 14.6269 10.8333 14.1667V9.16667C10.8333 8.70643 11.2064 8.33334 11.6667 8.33334Z" fill="currentColor"/></symbol>
	<symbol id="WhatsApp"  xmlns="http://www.w3.org/2000/svg" viewBox="0 0 18 18" fill="none" ><path fill-rule="evenodd" clip-rule="evenodd" d="M13.333 3.94275C12.0977 2.88909 10.5203 2.32246 8.89688 2.34921C7.27345 2.37596 5.71558 2.99425 4.51564 4.08804C3.3157 5.18184 2.55617 6.67594 2.3796 8.28996C2.20302 9.90398 2.62153 11.527 3.5566 12.8543C3.72398 13.0919 3.75547 13.3996 3.63972 13.6661L2.88341 15.408L5.56246 14.9305C5.73665 14.8995 5.9162 14.9247 6.07512 15.0025C7.53336 15.7165 9.20204 15.8737 10.768 15.4448C12.334 15.0158 13.6896 14.0301 14.5804 12.6727C15.4712 11.3152 15.836 9.67933 15.6064 8.07201C15.3767 6.46468 14.5684 4.99641 13.333 3.94275ZM8.86942 0.682773C10.8987 0.649334 12.8704 1.35761 14.4146 2.67469C15.9588 3.99177 16.9692 5.8271 17.2563 7.83626C17.5433 9.84542 17.0873 11.8903 15.9738 13.5871C14.8603 15.2839 13.1658 16.516 11.2083 17.0522C9.34061 17.5638 7.35601 17.4083 5.59455 16.6177L1.64654 17.3213C1.34428 17.3752 1.03687 17.2585 0.846507 17.0176C0.656144 16.7767 0.613663 16.4506 0.735949 16.169L1.93091 13.417C0.947723 11.8367 0.519412 9.96793 0.722814 8.1087C0.943534 6.09118 1.89294 4.22355 3.39287 2.85631C4.8928 1.48907 6.84013 0.716212 8.86942 0.682773ZM6.03312 5.61685C6.26754 5.38243 6.58548 5.25073 6.917 5.25073C7.24852 5.25073 7.56646 5.38243 7.80088 5.61685C8.03531 5.85127 8.167 6.16921 8.167 6.50073V7.33407C8.167 7.66558 8.03531 7.98353 7.80088 8.21795C7.71659 8.30224 7.62149 8.37326 7.51885 8.42964C7.68255 8.89999 7.95113 9.33224 8.30998 9.69109C8.66883 10.0499 9.10107 10.3185 9.57143 10.4822C9.62781 10.3796 9.69882 10.2845 9.78312 10.2002C10.0175 9.96576 10.3355 9.83407 10.667 9.83407H11.5003C11.8319 9.83407 12.1498 9.96576 12.3842 10.2002C12.6186 10.4346 12.7503 10.7525 12.7503 11.0841C12.7503 11.4156 12.6186 11.7335 12.3842 11.9679C12.1498 12.2024 11.8319 12.3341 11.5003 12.3341H10.667C9.34092 12.3341 8.06915 11.8073 7.13147 10.8696C6.19378 9.93192 5.667 8.66015 5.667 7.33407V6.50073C5.667 6.16921 5.79869 5.85127 6.03312 5.61685Z" fill="currentColor"/></symbol>
	<symbol id="ArrowsPointingOut" xmlns="http://www.w3.org/2000/svg" fill="none" viewBox="0 0 24 24"><path stroke-linecap="round" stroke-linejoin="round" d="M3.75 3.75v4.5m0-4.5h4.5m-4.5 0L9 9M3.75 20.25v-4.5m0 4.5h4.5m-4.5 0L9 15M20.25 3.75h-4.5m4.5 0v4.5m0-4.5L15 9m5.25 11.25h-4.5m4.5 0v-4.5m0 4.5L15 15" /></symbol>
	<!-- Establishments Linked -->
	<symbol id="ALaCarte" xmlns="http://www.w3.org/2000/svg" width="25" height="24" viewBox="0 0 25 24" fill="none">
		<path d="M17.34 11.63C17.7405 11.635 18.138 11.5597 18.509 11.4085C18.88 11.2574 19.2169 11.0335 19.5 10.75L22.33 7.92003C22.5162 7.73267 22.6208 7.47922 22.6208 7.21503C22.6208 6.95085 22.5162 6.6974 22.33 6.51003C22.237 6.41631 22.1264 6.34191 22.0046 6.29114C21.8827 6.24037 21.752 6.21424 21.62 6.21424C21.488 6.21424 21.3573 6.24037 21.2354 6.29114C21.1136 6.34191 21.0029 6.41631 20.91 6.51003L18.05 9.33003C17.957 9.42376 17.8464 9.49816 17.7246 9.54893C17.6027 9.59969 17.472 9.62583 17.34 9.62583C17.208 9.62583 17.0773 9.59969 16.9554 9.54893C16.8336 9.49816 16.7229 9.42376 16.63 9.33003L20.17 5.80003C20.2632 5.7068 20.3372 5.59611 20.3876 5.47428C20.4381 5.35246 20.4641 5.22189 20.4641 5.09003C20.4641 4.95817 20.4381 4.82761 20.3876 4.70579C20.3372 4.58396 20.2632 4.47327 20.17 4.38003C20.0767 4.2868 19.9661 4.21283 19.8442 4.16237C19.7224 4.11191 19.5918 4.08594 19.46 4.08594C19.3281 4.08594 19.1976 4.11191 19.0757 4.16237C18.9539 4.21283 18.8432 4.2868 18.75 4.38003L15.22 7.92003C15.0337 7.73267 14.9292 7.47922 14.9292 7.21503C14.9292 6.95085 15.0337 6.6974 15.22 6.51003L18.05 3.68003C18.1432 3.5868 18.2172 3.47611 18.2676 3.35428C18.3181 3.23246 18.3441 3.10189 18.3441 2.97003C18.3441 2.83817 18.3181 2.70761 18.2676 2.58578C18.2172 2.46396 18.1432 2.35327 18.05 2.26003C17.9567 2.1668 17.8461 2.09283 17.7242 2.04237C17.6024 1.99191 17.4718 1.96594 17.34 1.96594C17.2081 1.96594 17.0776 1.99191 16.9557 2.04237C16.8339 2.09283 16.7232 2.1668 16.63 2.26003L13.8 5.09003C13.2382 5.65254 12.9226 6.41503 12.9226 7.21003C12.9226 8.00504 13.2382 8.76753 13.8 9.33003L12.5 10.62L4.22999 2.32003L4.12999 2.26003C4.07887 2.21543 4.02162 2.17839 3.95999 2.15003L3.77999 2.08003L3.65999 2.00003H3.58999H3.38999C3.33037 1.9905 3.26961 1.9905 3.20999 2.00003C3.14945 2.02207 3.09224 2.05235 3.03999 2.09003L2.87999 2.19003H2.80999L2.74999 2.29003C2.70766 2.34283 2.67081 2.39979 2.63999 2.46003C2.6107 2.52101 2.58726 2.58463 2.56999 2.65003C2.56999 2.65003 2.56999 2.72003 2.56999 2.76003C2.32732 4.45144 2.48204 6.17613 3.02186 7.79735C3.56169 9.41856 4.47179 10.8917 5.67999 12.1L8.31999 14.73L2.90999 20.13C2.81626 20.223 2.74186 20.3336 2.6911 20.4555C2.64033 20.5773 2.61419 20.708 2.61419 20.84C2.61419 20.972 2.64033 21.1028 2.6911 21.2246C2.74186 21.3465 2.81626 21.4571 2.90999 21.55C3.00343 21.6427 3.11424 21.716 3.23608 21.7658C3.35792 21.8156 3.48838 21.8408 3.61999 21.84C3.75159 21.8408 3.88206 21.8156 4.00389 21.7658C4.12573 21.716 4.23655 21.6427 4.32999 21.55L10.4 15.57L13.23 12.74L15.23 10.74C15.788 11.304 16.5466 11.624 17.34 11.63ZM9.68999 13.45L7.05999 10.81C5.61844 9.34877 4.71583 7.4413 4.49999 5.40003L11.11 12L9.68999 13.45ZM15.93 14.02C15.7417 13.8304 15.4858 13.7233 15.2185 13.7224C14.9513 13.7215 14.6946 13.8267 14.505 14.015C14.3154 14.2033 14.2083 14.4593 14.2074 14.7265C14.2064 14.9937 14.3117 15.2504 14.5 15.44L20.8 21.74C20.991 21.9138 21.2418 22.007 21.5 22C21.6316 22.0008 21.7621 21.9756 21.8839 21.9258C22.0057 21.876 22.1165 21.8027 22.21 21.71C22.3037 21.6171 22.3781 21.5065 22.4289 21.3846C22.4796 21.2628 22.5058 21.132 22.5058 21C22.5058 20.868 22.4796 20.7373 22.4289 20.6155C22.3781 20.4936 22.3037 20.383 22.21 20.29L15.93 14.02Z" fill="currentColor"/>
	</symbol>
	<svg id="Bar" xmlns="http://www.w3.org/2000/svg" width="25" height="24" viewBox="0 0 25 24" fill="none">
		<path d="M22.2799 3.62C22.396 3.47365 22.4688 3.29773 22.49 3.11215C22.5112 2.92657 22.48 2.73876 22.3999 2.57C22.3189 2.39983 22.1914 2.25603 22.0321 2.15518C21.8729 2.05433 21.6884 2.00053 21.4999 2H3.49992C3.31144 2.00053 3.12694 2.05433 2.9677 2.15518C2.80847 2.25603 2.68097 2.39983 2.59992 2.57C2.51987 2.73876 2.48868 2.92657 2.50989 3.11215C2.53109 3.29773 2.60386 3.47365 2.71992 3.62L11.4999 14.6V20H5.74992C5.48471 20 5.23035 20.1054 5.04282 20.2929C4.85528 20.4804 4.74992 20.7348 4.74992 21C4.74992 21.2652 4.85528 21.5196 5.04282 21.7071C5.23035 21.8946 5.48471 22 5.74992 22H19.2499C19.5151 22 19.7695 21.8946 19.957 21.7071C20.1446 21.5196 20.2499 21.2652 20.2499 21C20.2499 20.7348 20.1446 20.4804 19.957 20.2929C19.7695 20.1054 19.5151 20 19.2499 20H13.4999V14.6L22.2799 3.62ZM5.57992 4H19.4199L17.0199 7H8.01992L5.57992 4ZM12.4999 12.65L9.57992 9H15.4199L12.4999 12.65Z" fill="currentColor"/>
	</svg>
	<symbol id="Cafeteria" xmlns="http://www.w3.org/2000/svg" width="25" height="24" viewBox="0 0 25 24" fill="none">
		<path d="M9.5 17H13.5C14.8261 17 16.0979 16.4732 17.0355 15.5355C17.9732 14.5979 18.5 13.3261 18.5 12V11H19.5C20.2956 11 21.0587 10.6839 21.6213 10.1213C22.1839 9.55871 22.5 8.79565 22.5 8C22.5 7.20435 22.1839 6.44129 21.6213 5.87868C21.0587 5.31607 20.2956 5 19.5 5H18.5V4C18.5 3.73478 18.3946 3.48043 18.2071 3.29289C18.0196 3.10536 17.7652 3 17.5 3H5.5C5.23478 3 4.98043 3.10536 4.79289 3.29289C4.60536 3.48043 4.5 3.73478 4.5 4V12C4.5 13.3261 5.02678 14.5979 5.96447 15.5355C6.90215 16.4732 8.17392 17 9.5 17ZM18.5 7H19.5C19.7652 7 20.0196 7.10536 20.2071 7.29289C20.3946 7.48043 20.5 7.73478 20.5 8C20.5 8.26522 20.3946 8.51957 20.2071 8.70711C20.0196 8.89464 19.7652 9 19.5 9H18.5V7ZM6.5 5H16.5V12C16.5 12.7956 16.1839 13.5587 15.6213 14.1213C15.0587 14.6839 14.2956 15 13.5 15H9.5C8.70435 15 7.94129 14.6839 7.37868 14.1213C6.81607 13.5587 6.5 12.7956 6.5 12V5ZM21.5 19H3.5C3.23478 19 2.98043 19.1054 2.79289 19.2929C2.60536 19.4804 2.5 19.7348 2.5 20C2.5 20.2652 2.60536 20.5196 2.79289 20.7071C2.98043 20.8946 3.23478 21 3.5 21H21.5C21.7652 21 22.0196 20.8946 22.2071 20.7071C22.3946 20.5196 22.5 20.2652 22.5 20C22.5 19.7348 22.3946 19.4804 22.2071 19.2929C22.0196 19.1054 21.7652 19 21.5 19Z" fill="currentColor"/>
	</symbol>
	<symbol id="FastFood" xmlns="http://www.w3.org/2000/svg" width="25" height="24" viewBox="0 0 25 24" fill="none">
		<path d="M20.3901 9.55004C20.307 9.38513 20.1799 9.24645 20.0228 9.14937C19.8657 9.05229 19.6848 9.0006 19.5001 9.00004H14.5001V3.00004C14.5108 2.78073 14.4491 2.56397 14.3244 2.38324C14.1997 2.20251 14.019 2.06785 13.8101 2.00004C13.6093 1.93399 13.3928 1.93324 13.1916 1.99792C12.9903 2.0626 12.8148 2.18937 12.6901 2.36004L4.69011 13.36C4.58987 13.5049 4.52968 13.6737 4.51564 13.8493C4.50159 14.0249 4.53418 14.2011 4.61011 14.36C4.68003 14.5418 4.80149 14.6992 4.9596 14.8129C5.1177 14.9266 5.30555 14.9916 5.50011 15H10.5001V21C10.5003 21.2109 10.5671 21.4164 10.691 21.587C10.8149 21.7576 10.9896 21.8847 11.1901 21.95C11.2906 21.9812 11.3949 21.998 11.5001 22C11.6579 22.0005 11.8135 21.9635 11.9543 21.8923C12.0951 21.821 12.217 21.7174 12.3101 21.59L20.3101 10.59C20.4178 10.4408 20.4823 10.2648 20.4964 10.0813C20.5106 9.8978 20.4738 9.71397 20.3901 9.55004ZM12.5001 17.92V14C12.5001 13.7348 12.3947 13.4805 12.2072 13.2929C12.0197 13.1054 11.7653 13 11.5001 13H7.50011L12.5001 6.08004V10C12.5001 10.2653 12.6055 10.5196 12.793 10.7071C12.9805 10.8947 13.2349 11 13.5001 11H17.5001L12.5001 17.92Z" fill="currentColor"/>
	</symbol>
	<symbol id="Padaria" xmlns="http://www.w3.org/2000/svg" width="25" height="24" viewBox="0 0 25 24" fill="none">
		<path d="M15.5 13H9.5C9.23479 13 8.98043 13.1054 8.7929 13.2929C8.60536 13.4804 8.5 13.7348 8.5 14C8.5 14.2652 8.60536 14.5196 8.7929 14.7071C8.98043 14.8946 9.23479 15 9.5 15H15.5C15.7652 15 16.0196 14.8946 16.2071 14.7071C16.3946 14.5196 16.5 14.2652 16.5 14C16.5 13.7348 16.3946 13.4804 16.2071 13.2929C16.0196 13.1054 15.7652 13 15.5 13ZM15.5 9H9.5C9.23479 9 8.98043 9.10536 8.7929 9.29289C8.60536 9.48043 8.5 9.73478 8.5 10C8.5 10.2652 8.60536 10.5196 8.7929 10.7071C8.98043 10.8946 9.23479 11 9.5 11H15.5C15.7652 11 16.0196 10.8946 16.2071 10.7071C16.3946 10.5196 16.5 10.2652 16.5 10C16.5 9.73478 16.3946 9.48043 16.2071 9.29289C16.0196 9.10536 15.7652 9 15.5 9ZM12.5 2C10.5222 2 8.58879 2.58649 6.9443 3.6853C5.29981 4.78412 4.01809 6.3459 3.26121 8.17317C2.50433 10.0004 2.3063 12.0111 2.69215 13.9509C3.078 15.8907 4.03041 17.6725 5.42894 19.0711C6.82746 20.4696 8.60929 21.422 10.5491 21.8079C12.4889 22.1937 14.4996 21.9957 16.3268 21.2388C18.1541 20.4819 19.7159 19.2002 20.8147 17.5557C21.9135 15.9112 22.5 13.9778 22.5 12C22.5 10.6868 22.2413 9.38642 21.7388 8.17317C21.2363 6.95991 20.4997 5.85752 19.5711 4.92893C18.6425 4.00035 17.5401 3.26375 16.3268 2.7612C15.1136 2.25866 13.8132 2 12.5 2ZM12.5 20C10.9178 20 9.37104 19.5308 8.05544 18.6518C6.73985 17.7727 5.71447 16.5233 5.10897 15.0615C4.50347 13.5997 4.34504 11.9911 4.65372 10.4393C4.9624 8.88743 5.72433 7.46197 6.84315 6.34315C7.96197 5.22433 9.38743 4.4624 10.9393 4.15372C12.4911 3.84504 14.0997 4.00346 15.5615 4.60896C17.0233 5.21447 18.2727 6.23984 19.1518 7.55544C20.0308 8.87103 20.5 10.4177 20.5 12C20.5 14.1217 19.6572 16.1566 18.1569 17.6569C16.6566 19.1571 14.6217 20 12.5 20Z" fill="currentColor"/>
	</symbol>
	<symbol id="Pizzaria" xmlns="http://www.w3.org/2000/svg" width="25" height="24" viewBox="0 0 25 24" fill="none">
		<path d="M9.01009 12.4799C8.81231 12.4799 8.61897 12.5386 8.45452 12.6485C8.29007 12.7584 8.1619 12.9145 8.08621 13.0973C8.01052 13.28 7.99072 13.4811 8.0293 13.675C8.06789 13.869 8.16313 14.0472 8.30298 14.1871C8.44283 14.3269 8.62102 14.4221 8.815 14.4607C9.00898 14.4993 9.21005 14.4795 9.39277 14.4038C9.5755 14.3281 9.73168 14.2 9.84156 14.0355C9.95144 13.8711 10.0101 13.6777 10.0101 13.4799C10.0101 13.2147 9.90473 12.9604 9.7172 12.7728C9.52966 12.5853 9.27531 12.4799 9.01009 12.4799ZM9.01009 7.99995C8.81231 7.99995 8.61897 8.0586 8.45452 8.16848C8.29007 8.27836 8.1619 8.43454 8.08621 8.61726C8.01052 8.79999 7.99072 9.00106 8.0293 9.19504C8.06789 9.38902 8.16313 9.5672 8.30298 9.70705C8.44283 9.84691 8.62102 9.94215 8.815 9.98073C9.00898 10.0193 9.21005 9.99951 9.39277 9.92383C9.5755 9.84814 9.73168 9.71997 9.84156 9.55552C9.95144 9.39107 10.0101 9.19773 10.0101 8.99995C10.0101 8.73473 9.90473 8.48038 9.7172 8.29284C9.52966 8.1053 9.27531 7.99995 9.01009 7.99995ZM12.5001 9.99995C12.2349 9.99995 11.9805 10.1053 11.793 10.2928C11.6054 10.4804 11.5001 10.7347 11.5001 10.9999V11.9999C11.5001 12.2652 11.6054 12.5195 11.793 12.7071C11.9805 12.8946 12.2349 12.9999 12.5001 12.9999C12.7653 12.9999 13.0197 12.8946 13.2072 12.7071C13.3947 12.5195 13.5001 12.2652 13.5001 11.9999V10.9999C13.5001 10.7347 13.3947 10.4804 13.2072 10.2928C13.0197 10.1053 12.7653 9.99995 12.5001 9.99995ZM21.0001 8.56995C20.6551 8.37146 20.2741 8.2436 19.8792 8.19381C19.4844 8.14402 19.0835 8.1733 18.7001 8.27995C18.301 8.38684 17.9294 8.57777 17.6101 8.83995L6.01009 2.12995C5.85807 2.04218 5.68563 1.99597 5.51009 1.99597C5.33455 1.99597 5.16211 2.04218 5.01009 2.12995C4.85562 2.21677 4.727 2.34308 4.63739 2.49595C4.54778 2.64882 4.50039 2.82275 4.50009 2.99995V16.1699C3.90994 16.369 3.39826 16.7503 3.03881 17.259C2.67936 17.7676 2.49072 18.3772 2.50009 18.9999C2.49981 19.7819 2.80488 20.5331 3.3503 21.0935C3.89572 21.6538 4.63839 21.9791 5.42009 21.9999H6.00009C9.27683 21.9922 12.4932 21.1176 15.3226 19.465C18.152 17.8123 20.4938 15.4403 22.1101 12.5899C22.4834 11.9079 22.5773 11.1077 22.3721 10.3577C22.1669 9.60783 21.6786 8.96687 21.0101 8.56995H21.0001ZM6.50009 4.72995L16.3901 10.4399C15.2929 12.0772 13.8261 13.4334 12.1081 14.3993C10.3901 15.3651 8.46906 15.9134 6.50009 15.9999V4.72995ZM20.3701 11.6099C18.8855 14.2256 16.7175 16.3882 14.0981 17.8661C11.4787 19.3441 8.50657 20.0817 5.50009 19.9999C5.23487 19.9999 4.98052 19.8946 4.79298 19.7071C4.60545 19.5195 4.50009 19.2652 4.50009 18.9999C4.49931 18.866 4.52546 18.7332 4.57699 18.6095C4.62853 18.4858 4.7044 18.3737 4.80009 18.2799C4.98796 18.0989 5.23916 17.9984 5.50009 17.9999H6.01009C8.57781 17.9989 11.0992 17.316 13.3165 16.0211C15.5338 14.7263 17.3675 12.8658 18.6301 10.6299C18.6908 10.5203 18.7737 10.4245 18.8736 10.3487C18.9735 10.2729 19.0881 10.2188 19.2101 10.1899C19.4622 10.1207 19.7315 10.153 19.9601 10.2799C20.1895 10.4033 20.3618 10.6112 20.4402 10.8596C20.5187 11.108 20.4971 11.3772 20.3801 11.6099H20.3701Z" fill="currentColor"/>
	</symbol>
	<symbol id="SelfService" xmlns="http://www.w3.org/2000/svg" width="25" height="24" viewBox="0 0 25 24" fill="none">
		<path d="M23.4642 13.8226C23.4603 13.7638 23.4508 13.7055 23.436 13.6484L21.1313 7.51135C21.5508 7.24006 21.8957 6.86818 22.1347 6.42956C22.3738 5.99095 22.4993 5.49952 22.5 5C22.5 4.73478 22.3946 4.48043 22.2071 4.29289C22.0196 4.10536 21.7652 4 21.5 4C21.2348 4 20.9804 4.10536 20.7929 4.29289C20.6054 4.48043 20.5 4.73478 20.5 5C20.4999 5.22285 20.4254 5.43929 20.2884 5.61499C20.1513 5.79069 19.9595 5.91559 19.7433 5.96987C19.5272 6.02416 19.2991 6.00472 19.0953 5.91465C18.8915 5.82457 18.7235 5.66902 18.6182 5.47266C18.3616 5.01717 17.9863 4.63972 17.5324 4.38042C17.0784 4.12111 16.5627 3.98965 16.04 4H13.5V3C13.5 2.73478 13.3946 2.48043 13.2071 2.29289C13.0196 2.10536 12.7652 2 12.5 2C12.2348 2 11.9804 2.10536 11.7929 2.29289C11.6054 2.48043 11.5 2.73478 11.5 3V4H8.96C8.43731 3.98965 7.92158 4.12111 7.46762 4.38042C7.01366 4.63972 6.63844 5.01717 6.38184 5.47266C6.27647 5.66902 6.10855 5.82457 5.90471 5.91465C5.70088 6.00472 5.47281 6.02416 5.25668 5.96987C5.04054 5.91559 4.84872 5.79069 4.71165 5.61499C4.57457 5.43929 4.50008 5.22285 4.5 5C4.5 4.73478 4.39464 4.48043 4.20711 4.29289C4.01957 4.10536 3.76522 4 3.5 4C3.23478 4 2.98043 4.10536 2.79289 4.29289C2.60536 4.48043 2.5 4.73478 2.5 5C2.50065 5.49952 2.62621 5.99095 2.86525 6.42956C3.10429 6.86818 3.44922 7.24006 3.86865 7.51135L1.564 13.6484C1.54921 13.7055 1.53977 13.7638 1.53581 13.8226C1.51825 13.8805 1.50626 13.9399 1.5 14C1.5 14.0093 1.50269 14.0178 1.50275 14.0271C1.50305 14.0403 1.50575 14.0524 1.50665 14.0655C1.52222 15.1144 1.9498 16.115 2.697 16.8512C3.44421 17.5874 4.45105 18.0001 5.5 18.0001C6.54895 18.0001 7.55579 17.5874 8.303 16.8512C9.0502 16.115 9.47778 15.1144 9.49335 14.0655C9.4942 14.0524 9.49695 14.0403 9.49725 14.0271C9.49731 14.0178 9.5 14.0093 9.5 14C9.49376 13.9399 9.48178 13.8805 9.46423 13.8226C9.46027 13.7638 9.45083 13.7055 9.43604 13.6484L7.12866 7.50421C7.55242 7.23377 7.90114 6.86085 8.14258 6.41992C8.22984 6.2842 8.35137 6.1739 8.49489 6.10017C8.63841 6.02644 8.79885 5.99189 8.96 6H11.5V20H8.5C8.23478 20 7.98043 20.1054 7.79289 20.2929C7.60536 20.4804 7.5 20.7348 7.5 21C7.5 21.2652 7.60536 21.5196 7.79289 21.7071C7.98043 21.8946 8.23478 22 8.5 22H16.5C16.7652 22 17.0196 21.8946 17.2071 21.7071C17.3946 21.5196 17.5 21.2652 17.5 21C17.5 20.7348 17.3946 20.4804 17.2071 20.2929C17.0196 20.1054 16.7652 20 16.5 20H13.5V6H16.04C16.2011 5.9919 16.3616 6.02646 16.5051 6.10018C16.6486 6.17391 16.7701 6.2842 16.8574 6.41992C17.0988 6.86085 17.4475 7.23377 17.8713 7.50421L15.564 13.6484C15.5492 13.7055 15.5398 13.7638 15.5358 13.8226C15.5182 13.8805 15.5063 13.9399 15.5 14C15.5 14.0093 15.5027 14.0178 15.5028 14.0271C15.5031 14.0403 15.5057 14.0524 15.5066 14.0655C15.5222 15.1144 15.9498 16.115 16.697 16.8512C17.4442 17.5874 18.451 18.0001 19.5 18.0001C20.549 18.0001 21.5558 17.5874 22.303 16.8512C23.0502 16.115 23.4778 15.1144 23.4933 14.0655C23.4942 14.0524 23.497 14.0403 23.4972 14.0271C23.4973 14.0178 23.5 14.0093 23.5 14C23.4938 13.9399 23.4818 13.8805 23.4642 13.8226ZM5.5 8.85553L7.0564 13H3.9436L5.5 8.85553ZM7.22266 15C7.04618 15.3011 6.79479 15.5515 6.49293 15.7267C6.19107 15.9019 5.84901 15.9961 5.5 16C5.14903 15.9999 4.80428 15.9074 4.50036 15.7319C4.19644 15.5563 3.94405 15.3039 3.76855 15H7.22266ZM19.5 8.85553L21.0564 13H17.9436L19.5 8.85553ZM19.5 16C19.149 15.9999 18.8043 15.9074 18.5004 15.7319C18.1964 15.5563 17.9441 15.3039 17.7686 15H21.2227C21.0462 15.3011 20.7948 15.5515 20.4929 15.7267C20.1911 15.9019 19.849 15.9961 19.5 16Z" fill="currentColor"/>
	</symbol>
	<symbol id="Sorveteria" xmlns="http://www.w3.org/2000/svg" width="24" height="25" viewBox="0 0 24 25" fill="none">
		<g clip-path="url(#clip0_833_1551)">
			<path d="M14 5.86575C13.9961 4.78551 13.2026 3.85464 12.0955 3.63171C11.8171 2.43813 10.9812 1.43227 9.82834 0.899172C8.67476 0.366943 7.33013 0.366943 6.17644 0.899172C5.02364 1.43215 4.18776 2.43807 3.90933 3.63171C2.8855 3.82988 2.11565 4.64213 2.01185 5.63456C1.90805 6.62698 2.49388 7.56823 3.45639 7.95566L5.97272 15.0984C6.25974 15.9362 7.07912 16.5015 8.00229 16.5C8.92863 16.5052 9.75271 15.9392 10.0405 15.0984L12.5569 7.95566C13.4289 7.59383 13.9953 6.77409 14 5.86575ZM8.96734 14.7456V14.7463C8.83444 15.1247 8.4625 15.3799 8.04416 15.3799C7.62583 15.3799 7.25466 15.1247 7.12178 14.7463L4.78159 8.10054V8.09979C5.10557 8.06075 5.41695 7.95716 5.69613 7.79577C6.38969 8.24317 7.20749 8.48264 8.04416 8.48264C8.88164 8.48264 9.69945 8.24317 10.393 7.79577C10.6722 7.95716 10.9836 8.06076 11.3075 8.09979L8.96734 14.7456ZM11.9201 6.99478H11.9193C11.8383 7.00304 11.7573 7.00304 11.6763 6.99478C11.3634 6.99178 11.063 6.87467 10.8373 6.66674C10.6171 6.46555 10.2695 6.46555 10.0494 6.66674C9.49341 7.10138 8.79669 7.3386 8.07796 7.3386C7.35924 7.3386 6.66254 7.10138 6.10657 6.66674C5.88481 6.46932 5.54039 6.46932 5.31863 6.66674C5.09295 6.87467 4.79256 6.99178 4.47959 6.99478C4.40174 7.00304 4.32311 7.00304 4.24446 6.99478C3.62247 6.87542 3.20097 6.31842 3.27803 5.71637C3.35509 5.11433 3.90397 4.67067 4.53855 4.69694C4.83659 4.69844 5.08665 4.48374 5.11731 4.20074C5.22268 3.24813 5.81717 2.40811 6.7026 1.95844C7.58881 1.50879 8.65118 1.50879 9.53659 1.95844C10.4228 2.40809 11.0173 3.24811 11.1227 4.20074C11.1612 4.49051 11.4207 4.70745 11.7266 4.7052C12.3549 4.69319 12.8888 5.1406 12.9588 5.7374C13.028 6.33345 12.6104 6.88219 11.9947 7.00304L11.9201 6.99478Z" fill="currentColor" stroke="currentColor" stroke-width="0.2"/>
		</g>
		<defs>
			<clipPath id="clip0_833_1551">
				<rect width="24" height="24" fill="white" transform="translate(0 0.5)"/>
			</clipPath>
		</defs>
	</symbol>
	<symbol id="DeRua" xmlns="http://www.w3.org/2000/svg" width="24" height="25" viewBox="0 0 24 25" fill="none">
		<path d="M0.666992 8.83329V12.1666C0.666992 12.3434 0.73723 12.513 0.862254 12.638C0.987279 12.7631 1.15685 12.8333 1.33366 12.8333H2.00033C2.00033 13.3637 2.21104 13.8724 2.58611 14.2475C2.96118 14.6226 3.46989 14.8333 4.00033 14.8333C4.53076 14.8333 5.03947 14.6226 5.41454 14.2475C5.78961 13.8724 6.00033 13.3637 6.00033 12.8333H10.0003C10.0003 13.3637 10.211 13.8724 10.5861 14.2475C10.9612 14.6226 11.4699 14.8333 12.0003 14.8333C12.5308 14.8333 13.0395 14.6226 13.4145 14.2475C13.7896 13.8724 14.0003 13.3637 14.0003 12.8333H14.667C14.8438 12.8333 15.0134 12.7631 15.1384 12.638C15.2634 12.513 15.3337 12.3434 15.3337 12.1666V4.16663C15.3337 3.63619 15.1229 3.12749 14.7479 2.75241C14.3728 2.37734 13.8641 2.16663 13.3337 2.16663H7.33366C6.80323 2.16663 6.29452 2.37734 5.91944 2.75241C5.54437 3.12749 5.33366 3.63619 5.33366 4.16663V5.49996H4.00033C3.68984 5.49996 3.38361 5.57225 3.1059 5.7111C2.82819 5.84996 2.58662 6.05157 2.40033 6.29996L0.800326 8.43329C0.780826 8.46227 0.765142 8.49364 0.753659 8.52663L0.713659 8.59996C0.684236 8.67431 0.668429 8.75335 0.666992 8.83329ZM11.3337 12.8333C11.3337 12.7014 11.3728 12.5725 11.446 12.4629C11.5193 12.3533 11.6234 12.2678 11.7452 12.2174C11.867 12.1669 12.0011 12.1537 12.1304 12.1794C12.2597 12.2052 12.3785 12.2687 12.4717 12.3619C12.565 12.4551 12.6285 12.5739 12.6542 12.7032C12.6799 12.8326 12.6667 12.9666 12.6162 13.0884C12.5658 13.2102 12.4803 13.3144 12.3707 13.3876C12.2611 13.4609 12.1322 13.5 12.0003 13.5C11.8235 13.5 11.6539 13.4297 11.5289 13.3047C11.4039 13.1797 11.3337 13.0101 11.3337 12.8333ZM6.66699 4.16663C6.66699 3.98981 6.73723 3.82025 6.86225 3.69522C6.98728 3.5702 7.15685 3.49996 7.33366 3.49996H13.3337C13.5105 3.49996 13.68 3.5702 13.8051 3.69522C13.9301 3.82025 14.0003 3.98981 14.0003 4.16663V11.5H13.4803C13.2929 11.2937 13.0644 11.1289 12.8095 11.0162C12.5546 10.9034 12.279 10.8452 12.0003 10.8452C11.7216 10.8452 11.446 10.9034 11.1911 11.0162C10.9363 11.1289 10.7078 11.2937 10.5203 11.5H6.66699V4.16663ZM5.33366 8.16663H2.66699L3.46699 7.09996C3.52909 7.01716 3.60961 6.94996 3.70218 6.90367C3.79475 6.85739 3.89683 6.83329 4.00033 6.83329H5.33366V8.16663ZM3.33366 12.8333C3.33366 12.7014 3.37276 12.5725 3.44601 12.4629C3.51927 12.3533 3.62339 12.2678 3.7452 12.2174C3.86702 12.1669 4.00106 12.1537 4.13039 12.1794C4.25971 12.2052 4.37849 12.2687 4.47173 12.3619C4.56496 12.4551 4.62846 12.5739 4.65418 12.7032C4.67991 12.8326 4.6667 12.9666 4.61625 13.0884C4.56579 13.2102 4.48034 13.3144 4.37071 13.3876C4.26107 13.4609 4.13218 13.5 4.00033 13.5C3.82351 13.5 3.65395 13.4297 3.52892 13.3047C3.4039 13.1797 3.33366 13.0101 3.33366 12.8333ZM2.00033 9.49996H5.33366V11.3533C4.94021 11.0017 4.42375 10.8198 3.89679 10.8472C3.36983 10.8747 2.87507 11.1093 2.52033 11.5H2.00033V9.49996Z" fill="currentColor"/>
	</symbol>
	<symbol id="Japones" xmlns="http://www.w3.org/2000/svg" width="24" height="25" viewBox="0 0 24 25" fill="none">
		<path d="M9.07169 11.4361C10.9923 11.4226 12.7271 10.8646 13.9798 9.97608C15.2351 9.08575 15.9991 7.87 15.9991 6.54055C15.9991 5.20356 15.227 3.98137 13.96 3.08935C12.7104 2.20964 10.9866 1.65734 9.07876 1.64252H9.00002C7.06101 1.64252 5.30687 2.19803 4.04011 3.08992C2.77302 3.98204 2.00088 5.20424 2.00088 6.54086C2.00088 8.46098 3.60171 10.1463 5.95843 10.946C5.47811 10.5006 5.08146 9.97054 4.78971 9.38132L4.78911 9.38011L4.78912 9.3801C4.34361 8.44893 4.22987 7.39226 4.46884 6.38745L4.46894 6.38705C4.7139 5.37552 5.31622 4.48646 6.16421 3.88344L6.16791 3.88081L6.16796 3.8809C6.93825 3.38408 7.82919 3.10552 8.74527 3.07464C8.74529 3.07463 8.74532 3.07463 8.74535 3.07463L8.74872 3.17458C9.64603 3.1436 10.5356 3.35686 11.3225 3.79111L9.07169 11.4361ZM9.07169 11.4361C7.67107 11.0848 6.479 10.1681 5.7818 8.90348L9.07169 11.4361ZM17.1 12.4596V6.54127C17.1 4.87505 16.1809 3.37278 14.7136 2.29068C13.2462 1.20853 11.2249 0.541357 9 0.541357C6.77511 0.541357 4.75382 1.20858 3.2864 2.29075C1.81906 3.37287 0.9 4.87514 0.9 6.54127V12.4603C0.9 14.1262 1.81925 15.6281 3.28668 16.7099C4.75419 17.7918 6.77548 18.4588 9 18.4588C11.2249 18.4588 13.2462 17.7915 14.7136 16.7095C16.1809 15.6274 17.1 14.1253 17.1 12.4596ZM2.00086 12.4596V9.55119C3.40867 11.3418 6.02158 12.5428 9 12.5428C11.9783 12.5428 14.5913 11.3445 15.9991 9.55406V12.4624C15.9991 13.7991 15.2273 15.0211 13.9604 15.913C12.6939 16.8047 10.9397 17.3601 9 17.3601C7.05991 17.3604 5.3058 16.8044 4.03932 15.9119C2.77251 15.0191 2.00086 13.7962 2.00086 12.4596Z" fill="currentColor" stroke="currentColor" stroke-width="0.2"/>
	</symbol>
	<symbol id="RedesEFranquias" xmlns="http://www.w3.org/2000/svg" width="25" height="24" viewBox="0 0 25 24" fill="none">
		<path d="M22.5 5H2.5C2.23478 5 1.98043 5.10536 1.79289 5.29289C1.60536 5.48043 1.5 5.73478 1.5 6V10C1.50174 10.6189 1.69488 11.2222 2.05294 11.7271C2.411 12.2319 2.91645 12.6137 3.5 12.82V22C3.5 22.2652 3.60536 22.5196 3.79289 22.7071C3.98043 22.8946 4.23478 23 4.5 23H20.5C20.7652 23 21.0196 22.8946 21.2071 22.7071C21.3946 22.5196 21.5 22.2652 21.5 22V12.82C22.0835 12.6137 22.589 12.2319 22.9471 11.7271C23.3051 11.2222 23.4983 10.6189 23.5 10V6C23.5 5.73478 23.3946 5.48043 23.2071 5.29289C23.0196 5.10536 22.7652 5 22.5 5ZM15.5 7H17.5V10C17.5 10.2652 17.3946 10.5196 17.2071 10.7071C17.0196 10.8946 16.7652 11 16.5 11C16.2348 11 15.9804 10.8946 15.7929 10.7071C15.6054 10.5196 15.5 10.2652 15.5 10V7ZM11.5 7H13.5V10C13.5 10.2652 13.3946 10.5196 13.2071 10.7071C13.0196 10.8946 12.7652 11 12.5 11C12.2348 11 11.9804 10.8946 11.7929 10.7071C11.6054 10.5196 11.5 10.2652 11.5 10V7ZM7.5 7H9.5V10C9.5 10.2652 9.39464 10.5196 9.20711 10.7071C9.01957 10.8946 8.76522 11 8.5 11C8.23478 11 7.98043 10.8946 7.79289 10.7071C7.60536 10.5196 7.5 10.2652 7.5 10V7ZM4.5 11C4.23478 11 3.98043 10.8946 3.79289 10.7071C3.60536 10.5196 3.5 10.2652 3.5 10V7H5.5V10C5.5 10.2652 5.39464 10.5196 5.20711 10.7071C5.01957 10.8946 4.76522 11 4.5 11ZM14.5 21H10.5V19C10.5 18.4696 10.7107 17.9609 11.0858 17.5858C11.4609 17.2107 11.9696 17 12.5 17C13.0304 17 13.5391 17.2107 13.9142 17.5858C14.2893 17.9609 14.5 18.4696 14.5 19V21ZM19.5 21H16.5V19C16.5 17.9391 16.0786 16.9217 15.3284 16.1716C14.5783 15.4214 13.5609 15 12.5 15C11.4391 15 10.4217 15.4214 9.67157 16.1716C8.92143 16.9217 8.5 17.9391 8.5 19V21H5.5V12.82C5.86757 12.6836 6.20664 12.4801 6.5 12.22C7.05002 12.712 7.76207 12.9839 8.5 12.9839C9.23793 12.9839 9.94998 12.712 10.5 12.22C11.05 12.712 11.7621 12.9839 12.5 12.9839C13.2379 12.9839 13.95 12.712 14.5 12.22C15.05 12.712 15.7621 12.9839 16.5 12.9839C17.2379 12.9839 17.95 12.712 18.5 12.22C18.7934 12.4801 19.1324 12.6836 19.5 12.82V21ZM21.5 10C21.5 10.2652 21.3946 10.5196 21.2071 10.7071C21.0196 10.8946 20.7652 11 20.5 11C20.2348 11 19.9804 10.8946 19.7929 10.7071C19.6054 10.5196 19.5 10.2652 19.5 10V7H21.5V10ZM4.8 3H20.5C20.7652 3 21.0196 2.89464 21.2071 2.70711C21.3946 2.51957 21.5 2.26522 21.5 2C21.5 1.73478 21.3946 1.48043 21.2071 1.29289C21.0196 1.10536 20.7652 1 20.5 1H4.8C4.53478 1 4.28043 1.10536 4.09289 1.29289C3.90536 1.48043 3.8 1.73478 3.8 2C3.8 2.26522 3.90536 2.51957 4.09289 2.70711C4.28043 2.89464 4.53478 3 4.8 3Z" fill="#003330"/>
	</symbol>
	<symbol id="FineDining" xmlns="http://www.w3.org/2000/svg" width="25" height="24" viewBox="0 0 25 24" fill="none">
		<path d="M9 0.5C4.58866 0.5 1 4.08866 1 8.5C1 12.9113 4.58866 16.5 9 16.5C13.4113 16.5 17 12.9113 17 8.5C17 4.08866 13.4113 0.5 9 0.5ZM9 15.8043C4.97252 15.8043 1.69571 12.5275 1.69571 8.5C1.69571 4.47252 4.97252 1.19571 9 1.19571C13.0275 1.19571 16.3043 4.47252 16.3043 8.5C16.3043 12.5275 13.0275 15.8043 9 15.8043ZM14.9129 8.5C14.9129 11.7605 12.2605 14.4129 9 14.4129C5.73954 14.4129 3.08714 11.7605 3.08714 8.5C3.08714 5.23954 5.73954 2.58714 9 2.58714C9.19228 2.58714 9.34786 2.74272 9.34786 2.93499C9.34786 3.12727 9.19227 3.28285 9 3.28285C6.1234 3.28285 3.78215 5.6234 3.78215 8.5C3.78215 11.3766 6.1234 13.7178 9 13.7178C11.8766 13.7178 14.2178 11.3766 14.2178 8.5C14.2178 8.30772 14.3734 8.15214 14.5657 8.15214C14.758 8.15214 14.9129 8.30773 14.9129 8.5ZM10.7643 3.21624C10.8363 3.03824 11.0395 2.95263 11.2175 3.02464C12.6905 3.62184 13.8781 4.80879 14.4752 6.28231C14.5472 6.46031 14.4616 6.66278 14.2836 6.73548C14.1103 6.8075 13.9024 6.72393 13.8304 6.54388C13.3039 5.24417 12.2562 4.19655 10.9566 3.67007C10.7786 3.59737 10.6923 3.39425 10.7643 3.21624Z" fill="currentColor" stroke="currentColor" stroke-width="0.4"/>
	</symbol>
	<symbol id="Churrascaria" xmlns="http://www.w3.org/2000/svg" width="25" height="24" viewBox="0 0 25 24" fill="none">
		<path fill-rule="evenodd" clip-rule="evenodd" d="M2.23756 2.12914C1.6471 2.74511 1.3105 3.19898 1.15049 3.54317C1.01253 3.84115 0.995976 4.07774 1.04564 4.27226C1.12841 4.58059 1.40431 4.80751 1.79611 5.00756C1.97269 5.09792 2.13271 5.12689 2.28171 5.11517C2.44726 5.10137 2.60729 5.03033 2.76731 4.90341C2.78939 5.14277 2.86112 5.3835 2.97148 5.61802C3.26393 6.22502 3.82128 6.78788 4.32342 7.13345C4.75384 7.4259 5.30013 7.36521 5.84093 7.07689C5.73057 7.73425 5.92922 8.43436 6.4369 8.94141C6.93906 9.44771 7.63986 9.64499 8.29648 9.53325C8.12542 9.81329 8.05368 10.0609 8.07575 10.3106C8.09231 10.5714 8.21371 10.8438 8.46203 11.1652C8.8207 11.6274 9.13524 12.0868 9.47186 12.3751C9.80295 12.6531 10.1506 12.7959 10.5755 12.7034C10.5589 12.7345 10.5424 12.7655 10.5314 12.7959C10.4044 13.0518 10.3603 13.2739 10.3824 13.4677C10.4044 13.6802 10.4982 13.8671 10.6693 14.0361C10.8238 14.1899 10.9507 14.3472 11.0832 14.4493C11.2156 14.552 11.3591 14.61 11.5246 14.6093C11.6681 14.6086 11.8392 14.5596 12.0378 14.4168C12.2585 14.2575 12.5455 13.9623 12.9207 13.4629C13.0201 13.3339 13.1194 13.2139 13.2132 13.1028L16.5296 16.4206C16.6399 16.5282 16.811 16.5282 16.9214 16.4206C17.0262 16.3123 17.0262 16.1385 16.9214 16.0302L13.5884 12.6979C14.0298 12.2586 14.4106 11.9771 14.6424 11.7267C14.8355 11.5226 14.9403 11.3281 14.9569 11.1197C14.9679 10.9728 14.9403 10.8142 14.8465 10.6369C14.6479 10.2444 14.4216 9.97127 14.1126 9.88918C13.9195 9.83676 13.6822 9.85331 13.3842 9.98989C13.3014 10.0271 13.2187 10.074 13.1249 10.1313C13.2021 9.78019 13.1635 9.44497 12.9703 9.16284C12.6227 8.65655 12.0599 8.09853 11.4528 7.81159C10.9893 7.59086 10.4982 7.52051 10.0457 7.71364C10.1285 7.08181 9.92429 6.42032 9.43869 5.93546C8.94205 5.43607 8.2578 5.23741 7.60665 5.33812C7.66184 5.25121 7.70598 5.16843 7.74461 5.08981C8.02052 4.49935 7.88808 4.04826 7.54044 3.63645C7.24799 3.29639 6.78997 2.98531 6.32644 2.62593C6.03399 2.39761 5.78014 2.27689 5.54286 2.24379C5.5539 2.22723 5.56493 2.21205 5.57597 2.19688C5.71944 1.99685 5.76912 1.82786 5.76912 1.6837C5.76912 1.52091 5.70842 1.37744 5.60909 1.24293C5.50424 1.10981 5.34973 0.982881 5.19522 0.82906C5.02415 0.660066 4.84205 0.565565 4.62683 0.542115C4.43369 0.521421 4.21296 0.562809 3.95362 0.689036C3.61149 0.858721 3.18107 1.19809 2.62925 1.73749L1.47043 0.579361C1.36007 0.471756 1.189 0.471756 1.07863 0.579361C0.973789 0.687655 0.973789 0.861486 1.07863 0.969766L2.23756 2.12914ZM12.3193 11.5086C12.7994 11.0444 13.1691 10.7423 13.4616 10.5705C13.6823 10.4422 13.8423 10.3871 13.9693 10.4216C14.041 10.4409 14.0907 10.4878 14.1459 10.5464C14.2231 10.6368 14.2893 10.7547 14.3555 10.8872C14.4935 11.1513 14.3114 11.2962 14.0576 11.53C13.6713 11.8804 13.0864 12.3322 12.4794 13.1303C12.2035 13.4979 11.9883 13.7435 11.8061 13.8966C11.6847 13.9994 11.602 14.0573 11.5192 14.058C11.464 14.058 11.4199 14.0166 11.3757 13.9732C11.2764 13.8828 11.1771 13.7628 11.0612 13.6455C10.9012 13.4876 10.8957 13.3 11.0226 13.0399C11.2102 12.6592 11.6351 12.1743 12.3193 11.5086ZM11.8227 11.2244C12.0324 11.0037 12.231 10.7609 12.3745 10.5167C12.5952 10.1436 12.7166 9.76833 12.518 9.4745C12.22 9.03995 11.7399 8.55642 11.2212 8.30947C10.7632 8.09425 10.2721 8.0708 9.87476 8.5095C9.37812 9.05441 9.01392 9.43931 8.80423 9.76351C8.68283 9.95044 8.61109 10.107 8.62214 10.2705C8.6387 10.4429 8.7325 10.614 8.89805 10.8271C9.23465 11.2555 9.51609 11.6866 9.83062 11.9549C10.0734 12.1618 10.3438 12.2481 10.6915 12.0825C10.9839 11.9446 11.3481 11.6825 11.6847 11.3624C11.7289 11.3176 11.773 11.2713 11.8227 11.2244ZM6.8233 6.32501C7.44134 5.7111 8.43461 5.7111 9.05265 6.32501C9.66518 6.9396 9.66518 7.93632 9.05265 8.55082C8.43461 9.16541 7.44134 9.16541 6.8233 8.55082C6.21077 7.93623 6.21077 6.93951 6.8233 6.32501ZM6.4867 5.88562C6.8233 5.54073 7.09923 5.15791 7.24821 4.85371C7.41376 4.5033 7.32547 4.23705 7.11577 3.99287C6.8509 3.67764 6.42048 3.39484 5.99006 3.061C5.77485 2.89614 5.60379 2.79888 5.43274 2.78715C5.26719 2.77474 5.11268 2.8444 4.92506 2.96649C4.59948 3.17893 4.21874 3.54176 3.67243 4.03702C3.23097 4.4357 3.25856 4.92683 3.47377 5.38139C3.71657 5.90216 4.20217 6.38088 4.63812 6.67817C4.93057 6.87889 5.30581 6.7568 5.68105 6.53608C5.92385 6.39053 6.17216 6.19395 6.39288 5.97804C6.40392 5.96356 6.42047 5.94907 6.43703 5.93528L6.4867 5.88562ZM2.66812 2.47953C3.33581 1.79321 3.82141 1.37176 4.19665 1.18414C4.46152 1.05515 4.64914 1.06136 4.80365 1.21932C4.91953 1.33589 5.04094 1.43454 5.13474 1.53455C5.17336 1.58146 5.21751 1.62215 5.21751 1.6801C5.21751 1.76011 5.15681 1.84564 5.05748 1.96635C4.90297 2.14569 4.66017 2.36297 4.29045 2.64095C3.49032 3.24382 3.03781 3.82943 2.69017 4.21502C2.45288 4.47299 2.30943 4.64957 2.04455 4.51575C1.91212 4.44816 1.79625 4.38194 1.70795 4.304C1.64725 4.25295 1.59759 4.19915 1.58104 4.13017C1.54793 3.99981 1.60311 3.84254 1.73003 3.6225C1.90109 3.32796 2.20459 2.95824 2.66812 2.47953Z" fill="currentColor" stroke="currentColor" stroke-width="0.6"/>
	</symbol>
	<symbol id="Outros" xmlns="http://www.w3.org/2000/svg" width="25" height="24" viewBox="0 0 25 24" fill="none">
		<path d="M10.5 13H3.5C3.23478 13 2.98043 13.1054 2.79289 13.2929C2.60536 13.4804 2.5 13.7348 2.5 14V21C2.5 21.2652 2.60536 21.5196 2.79289 21.7071C2.98043 21.8946 3.23478 22 3.5 22H10.5C10.7652 22 11.0196 21.8946 11.2071 21.7071C11.3946 21.5196 11.5 21.2652 11.5 21V14C11.5 13.7348 11.3946 13.4804 11.2071 13.2929C11.0196 13.1054 10.7652 13 10.5 13ZM9.5 20H4.5V15H9.5V20ZM21.5 2H14.5C14.2348 2 13.9804 2.10536 13.7929 2.29289C13.6054 2.48043 13.5 2.73478 13.5 3V10C13.5 10.2652 13.6054 10.5196 13.7929 10.7071C13.9804 10.8946 14.2348 11 14.5 11H21.5C21.7652 11 22.0196 10.8946 22.2071 10.7071C22.3946 10.5196 22.5 10.2652 22.5 10V3C22.5 2.73478 22.3946 2.48043 22.2071 2.29289C22.0196 2.10536 21.7652 2 21.5 2ZM20.5 9H15.5V4H20.5V9ZM21.5 13H14.5C14.2348 13 13.9804 13.1054 13.7929 13.2929C13.6054 13.4804 13.5 13.7348 13.5 14V21C13.5 21.2652 13.6054 21.5196 13.7929 21.7071C13.9804 21.8946 14.2348 22 14.5 22H21.5C21.7652 22 22.0196 21.8946 22.2071 21.7071C22.3946 21.5196 22.5 21.2652 22.5 21V14C22.5 13.7348 22.3946 13.4804 22.2071 13.2929C22.0196 13.1054 21.7652 13 21.5 13ZM20.5 20H15.5V15H20.5V20ZM10.5 2H3.5C3.23478 2 2.98043 2.10536 2.79289 2.29289C2.60536 2.48043 2.5 2.73478 2.5 3V10C2.5 10.2652 2.60536 10.5196 2.79289 10.7071C2.98043 10.8946 3.23478 11 3.5 11H10.5C10.7652 11 11.0196 10.8946 11.2071 10.7071C11.3946 10.5196 11.5 10.2652 11.5 10V3C11.5 2.73478 11.3946 2.48043 11.2071 2.29289C11.0196 2.10536 10.7652 2 10.5 2ZM9.5 9H4.5V4H9.5V9Z" fill="#003330"/>
	</symbol>
  <!-- Others Linked -->
	<symbol id="Share" xmlns="http://www.w3.org/2000/svg" width="24" height="24" viewBox="0 0 24 24" fill="none">
		<path d="M18.0002 14.0001C17.4093 14.004 16.8267 14.1388 16.2942 14.3947C15.7616 14.6506 15.2924 15.0213 14.9202 15.4801L9.82015 13.1301C10.0599 12.3959 10.0599 11.6044 9.82015 10.8701L14.9202 8.52011C15.5218 9.24608 16.3605 9.73619 17.2883 9.90395C18.2161 10.0717 19.1734 9.90634 19.9911 9.43702C20.8088 8.96769 21.4345 8.22459 21.7577 7.33886C22.0809 6.45312 22.0808 5.4817 21.7575 4.59602C21.4341 3.71035 20.8083 2.96736 19.9905 2.49818C19.1726 2.02901 18.2154 1.86381 17.2876 2.03174C16.3598 2.19967 15.5212 2.68993 14.9197 3.41601C14.3182 4.14208 13.9925 5.05729 14.0002 6.00011C14.0032 6.23835 14.0266 6.47588 14.0702 6.71011L8.79015 9.14011C8.22723 8.58969 7.5144 8.21763 6.74096 8.07054C5.96752 7.92345 5.16787 8.00788 4.4422 8.31325C3.71653 8.61861 3.09711 9.13133 2.66155 9.78718C2.22599 10.443 1.99365 11.2128 1.99365 12.0001C1.99365 12.7874 2.22599 13.5572 2.66155 14.2131C3.09711 14.8689 3.71653 15.3816 4.4422 15.687C5.16787 15.9923 5.96752 16.0768 6.74096 15.9297C7.5144 15.7826 8.22723 15.4105 8.79015 14.8601L14.0702 17.2901C14.0266 17.5243 14.0032 17.7619 14.0002 18.0001C14.0002 18.7912 14.2347 19.5646 14.6743 20.2224C15.1138 20.8802 15.7385 21.3929 16.4694 21.6956C17.2003 21.9984 18.0046 22.0776 18.7805 21.9233C19.5564 21.7689 20.2692 21.388 20.8286 20.8285C21.388 20.2691 21.769 19.5564 21.9233 18.7805C22.0776 18.0046 21.9984 17.2003 21.6957 16.4694C21.3929 15.7385 20.8802 15.1138 20.2224 14.6742C19.5646 14.2347 18.7913 14.0001 18.0002 14.0001ZM18.0002 4.00011C18.3957 4.00011 18.7824 4.11741 19.1113 4.33718C19.4402 4.55694 19.6965 4.8693 19.8479 5.23475C19.9993 5.6002 20.0389 6.00233 19.9617 6.3903C19.8846 6.77826 19.6941 7.13462 19.4144 7.41433C19.1347 7.69403 18.7783 7.88451 18.3903 7.96169C18.0024 8.03886 17.6002 7.99925 17.2348 7.84787C16.8693 7.6965 16.557 7.44015 16.3372 7.11125C16.1174 6.78236 16.0002 6.39568 16.0002 6.00011C16.0002 5.46968 16.2109 4.96097 16.5859 4.5859C16.961 4.21083 17.4697 4.00011 18.0002 4.00011ZM6.00015 14.0001C5.60459 14.0001 5.21791 13.8828 4.88901 13.6631C4.56011 13.4433 4.30377 13.1309 4.15239 12.7655C4.00102 12.4 3.96141 11.9979 4.03858 11.6099C4.11575 11.222 4.30623 10.8656 4.58594 10.5859C4.86564 10.3062 5.22201 10.1157 5.60997 10.0385C5.99793 9.96137 6.40006 10.001 6.76552 10.1524C7.13097 10.3037 7.44333 10.5601 7.66309 10.889C7.88285 11.2179 8.00015 11.6046 8.00015 12.0001C8.00015 12.5305 7.78944 13.0393 7.41436 13.4143C7.03929 13.7894 6.53058 14.0001 6.00015 14.0001ZM18.0002 20.0001C17.6046 20.0001 17.2179 19.8828 16.889 19.6631C16.5601 19.4433 16.3038 19.1309 16.1524 18.7655C16.001 18.4 15.9614 17.9979 16.0386 17.6099C16.1158 17.222 16.3062 16.8656 16.5859 16.5859C16.8656 16.3062 17.222 16.1157 17.61 16.0385C17.9979 15.9614 18.4001 16.001 18.7655 16.1524C19.131 16.3037 19.4433 16.5601 19.6631 16.889C19.8829 17.2179 20.0002 17.6046 20.0002 18.0001C20.0002 18.5305 19.7894 19.0393 19.4144 19.4143C19.0393 19.7894 18.5306 20.0001 18.0002 20.0001Z" fill="#3BEDB2"/>
	</symbol>
	<symbol id="Arrow" xmlns="http://www.w3.org/2000/svg" width="32" height="33" viewBox="0 0 32 33" fill="none">
		<path d="M22.6669 15.1667H12.5469L16.9469 10.78C17.1979 10.5289 17.339 10.1884 17.339 9.83333C17.339 9.47826 17.1979 9.13773 16.9469 8.88666C16.6958 8.63559 16.3553 8.49454 16.0002 8.49454C15.6451 8.49454 15.3046 8.63559 15.0535 8.88666L8.38685 15.5533C8.26547 15.6801 8.17031 15.8297 8.10685 15.9933C7.9735 16.3179 7.9735 16.682 8.10685 17.0067C8.17031 17.1703 8.26547 17.3199 8.38685 17.4467L15.0535 24.1133C15.1775 24.2383 15.3249 24.3375 15.4874 24.4052C15.6499 24.4729 15.8242 24.5077 16.0002 24.5077C16.1762 24.5077 16.3505 24.4729 16.513 24.4052C16.6754 24.3375 16.8229 24.2383 16.9469 24.1133C17.0718 23.9894 17.171 23.8419 17.2387 23.6794C17.3064 23.5169 17.3413 23.3427 17.3413 23.1667C17.3413 22.9906 17.3064 22.8164 17.2387 22.6539C17.171 22.4914 17.0718 22.3439 16.9469 22.22L12.5469 17.8333H22.6669C23.0205 17.8333 23.3596 17.6928 23.6097 17.4428C23.8597 17.1928 24.0002 16.8536 24.0002 16.5C24.0002 16.1464 23.8597 15.8072 23.6097 15.5572C23.3596 15.3071 23.0205 15.1667 22.6669 15.1667Z" fill="currentColor"/>
	</symbol>
	<symbol id="SocialYouTube" xmlns="http://www.w3.org/2000/svg" width="33" height="32" viewBox="0 0 33 32" fill="none">
		<path d="M31.1674 12.9466C31.2333 11.0382 30.8159 9.144 29.954 7.43998C29.3692 6.74078 28.5576 6.26893 27.6607 6.10665C23.9507 5.77001 20.2254 5.63204 16.5007 5.69331C12.7895 5.62926 9.07763 5.76278 5.38069 6.09331C4.64978 6.22627 3.97338 6.5691 3.43402 7.07998C2.23402 8.18665 2.10069 10.08 1.96735 11.68C1.7739 14.5567 1.7739 17.4432 1.96735 20.32C2.00593 21.2205 2.14001 22.1144 2.36735 22.9866C2.52812 23.6601 2.85338 24.2831 3.31402 24.8C3.85704 25.3379 4.5492 25.7003 5.30069 25.84C8.17524 26.1948 11.0716 26.3419 13.9674 26.28C18.634 26.3466 22.7274 26.28 27.5674 25.9066C28.3373 25.7755 29.0489 25.4127 29.6074 24.8666C29.9806 24.4932 30.2595 24.0361 30.4207 23.5333C30.8975 22.0701 31.1317 20.5388 31.114 19C31.1674 18.2533 31.1674 13.7466 31.1674 12.9466ZM13.4874 19.8V11.5466L21.3807 15.6933C19.1674 16.92 16.2474 18.3066 13.4874 19.8Z" fill="currentColor" />
	</symbol>
	<symbol id="SocialFacebook" xmlns="http://www.w3.org/2000/svg" width="33" height="32" viewBox="0 0 33 32" fill="none">
		<path d="M27.8667 2.66663H4.13335C3.74437 2.66663 3.37132 2.82115 3.09626 3.0962C2.82121 3.37126 2.66669 3.74431 2.66669 4.13329V27.8666C2.66669 28.0592 2.70462 28.25 2.77833 28.4279C2.85204 28.6058 2.96007 28.7675 3.09626 28.9037C3.23246 29.0399 3.39414 29.1479 3.57208 29.2216C3.75003 29.2954 3.94075 29.3333 4.13335 29.3333H16.9067V19H13.44V15H16.9067V12C16.8349 11.2956 16.918 10.5841 17.1503 9.91534C17.3826 9.24656 17.7584 8.63669 18.2513 8.12851C18.7442 7.62033 19.3424 7.22615 20.0038 6.97361C20.6652 6.72107 21.3738 6.6163 22.08 6.66663C23.1178 6.66024 24.1551 6.71366 25.1867 6.82663V10.4266H23.0667C21.3867 10.4266 21.0667 11.2266 21.0667 12.3866V14.96H25.0667L24.5467 18.96H21.0667V29.3333H27.8667C28.0593 29.3333 28.25 29.2954 28.428 29.2216C28.6059 29.1479 28.7676 29.0399 28.9038 28.9037C29.04 28.7675 29.148 28.6058 29.2217 28.4279C29.2954 28.25 29.3334 28.0592 29.3334 27.8666V4.13329C29.3334 3.94069 29.2954 3.74997 29.2217 3.57202C29.148 3.39408 29.04 3.2324 28.9038 3.0962C28.7676 2.96001 28.6059 2.85198 28.428 2.77827C28.25 2.70456 28.0593 2.66663 27.8667 2.66663Z" fill="currentColor"/>
	</symbol>
	<symbol id="SocialInstagram" xmlns="http://www.w3.org/2000/svg" width="33" height="32" viewBox="0 0 33 32" fill="none">
		<path d="M16.4993 12.6932C15.8454 12.6932 15.206 12.8871 14.6623 13.2504C14.1185 13.6138 13.6947 14.1302 13.4444 14.7344C13.1941 15.3386 13.1286 16.0035 13.2562 16.6449C13.3838 17.2864 13.6987 17.8756 14.1612 18.338C14.6236 18.8004 15.2128 19.1154 15.8543 19.243C16.4957 19.3706 17.1605 19.3051 17.7648 19.0548C18.369 18.8045 18.8854 18.3807 19.2487 17.8369C19.6121 17.2931 19.806 16.6538 19.806 15.9998C19.806 15.5656 19.7205 15.1356 19.5543 14.7344C19.3881 14.3332 19.1446 13.9687 18.8375 13.6617C18.5305 13.3546 18.1659 13.1111 17.7648 12.9449C17.3636 12.7787 16.9336 12.6932 16.4993 12.6932ZM29.7393 9.4265C29.7323 8.39685 29.5427 7.3766 29.1793 6.41317C28.9117 5.70818 28.4976 5.06796 27.9644 4.53475C27.4312 4.00154 26.791 3.58746 26.086 3.31984C25.1226 2.95646 24.1023 2.76685 23.0727 2.75984C21.3527 2.6665 20.846 2.6665 16.4993 2.6665C12.1527 2.6665 11.646 2.6665 9.92602 2.75984C8.89636 2.76685 7.87611 2.95646 6.91268 3.31984C6.2077 3.58746 5.56747 4.00154 5.03426 4.53475C4.50105 5.06796 4.08697 5.70818 3.81935 6.41317C3.45597 7.3766 3.26636 8.39685 3.25935 9.4265C3.16602 11.1465 3.16602 11.6532 3.16602 15.9998C3.16602 20.3465 3.16602 20.8532 3.25935 22.5732C3.2737 23.6065 3.46305 24.6298 3.81935 25.5998C4.08579 26.3016 4.49952 26.9381 5.03268 27.4665C5.56361 28.0029 6.2052 28.417 6.91268 28.6798C7.87611 29.0432 8.89636 29.2328 9.92602 29.2398C11.646 29.3332 12.1527 29.3332 16.4993 29.3332C20.846 29.3332 21.3527 29.3332 23.0727 29.2398C24.1023 29.2328 25.1226 29.0432 26.086 28.6798C26.7935 28.417 27.4351 28.0029 27.966 27.4665C28.4992 26.9381 28.9129 26.3016 29.1793 25.5998C29.5424 24.6317 29.7319 23.6071 29.7393 22.5732C29.8327 20.8532 29.8327 20.3465 29.8327 15.9998C29.8327 11.6532 29.8327 11.1465 29.7393 9.4265ZM26.3527 20.0932C26.3099 20.916 26.1343 21.7264 25.8327 22.4932C25.5738 23.1328 25.189 23.7138 24.7012 24.2016C24.2133 24.6895 23.6323 25.0743 22.9927 25.3332C22.2187 25.618 21.4037 25.7756 20.5793 25.7998C19.526 25.7998 19.246 25.7998 16.4993 25.7998C13.7527 25.7998 13.4727 25.7998 12.4193 25.7998C11.595 25.7756 10.78 25.618 10.006 25.3332C9.34482 25.0875 8.74772 24.6955 8.25935 24.1865C7.77624 23.7082 7.40314 23.1303 7.16602 22.4932C6.88009 21.72 6.72682 20.9041 6.71268 20.0798C6.71268 19.0265 6.71268 18.7465 6.71268 15.9998C6.71268 13.2532 6.71268 12.9732 6.71268 11.9198C6.72682 11.0956 6.88009 10.2797 7.16602 9.5065C7.41172 8.84531 7.80371 8.24821 8.31268 7.75984C8.79313 7.27934 9.37037 6.90663 10.006 6.6665C10.78 6.38171 11.595 6.22412 12.4193 6.19984C13.4727 6.19984 13.7527 6.19984 16.4993 6.19984C19.246 6.19984 19.526 6.19984 20.5793 6.19984C21.4037 6.22412 22.2187 6.38171 22.9927 6.6665C23.6539 6.91221 24.251 7.3042 24.7393 7.81317C25.2225 8.2915 25.5956 8.86935 25.8327 9.5065C26.1175 10.2805 26.2751 11.0955 26.2994 11.9198C26.2994 12.9732 26.2994 13.2532 26.2994 15.9998C26.2994 18.7465 26.3927 19.0265 26.3527 20.0798V20.0932ZM24.2194 10.1732C24.0606 9.74248 23.8103 9.35136 23.4857 9.02679C23.1612 8.70222 22.77 8.45192 22.3393 8.29317C21.748 8.08818 21.1251 7.98889 20.4993 7.99984C19.4593 7.99984 19.166 7.99984 16.4993 7.99984C13.8327 7.99984 13.5393 7.99984 12.4993 7.99984C11.8704 8.00599 11.2474 8.12335 10.6593 8.3465C10.2353 8.49805 9.84827 8.73812 9.52413 9.05077C9.19998 9.36342 8.9461 9.74149 8.77935 10.1598C8.58572 10.7537 8.49112 11.3753 8.49935 11.9998C8.49935 13.0398 8.49935 13.3332 8.49935 15.9998C8.49935 18.6665 8.49935 18.9598 8.49935 19.9998C8.51257 20.6281 8.62971 21.2498 8.84602 21.8398C9.00477 22.2705 9.25506 22.6616 9.57963 22.9862C9.90421 23.3108 10.2953 23.5611 10.726 23.7198C11.2949 23.9291 11.8936 24.0461 12.4993 24.0665C13.5393 24.0665 13.8327 24.0665 16.4993 24.0665C19.166 24.0665 19.4593 24.0665 20.4993 24.0665C21.1283 24.0604 21.7513 23.943 22.3393 23.7198C22.77 23.5611 23.1612 23.3108 23.4857 22.9862C23.8103 22.6616 24.0606 22.2705 24.2194 21.8398C24.4425 21.2517 24.5599 20.6288 24.566 19.9998C24.566 18.9598 24.566 18.6665 24.566 15.9998C24.566 13.3332 24.566 13.0398 24.566 11.9998C24.5664 11.3702 24.4488 10.7461 24.2194 10.1598V10.1732ZM16.4993 21.0932C15.8311 21.0932 15.1694 20.9613 14.5522 20.7052C13.935 20.4491 13.3744 20.0737 12.9025 19.6006C12.4306 19.1274 12.0567 18.5658 11.8022 17.948C11.5477 17.3301 11.4176 16.6681 11.4193 15.9998C11.4194 14.9919 11.7184 14.0066 12.2787 13.1688C12.8389 12.3309 13.6352 11.6781 14.5666 11.2929C15.4981 10.9078 16.5229 10.8078 17.5113 11.0054C18.4996 11.203 19.4071 11.6894 20.1189 12.403C20.8307 13.1167 21.3148 14.0255 21.5098 15.0144C21.7048 16.0033 21.602 17.0278 21.2145 17.9582C20.8269 18.8887 20.172 19.6832 19.3327 20.2413C18.4933 20.7993 17.5073 21.0958 16.4993 21.0932ZM21.8327 11.9065C21.5379 11.8753 21.2652 11.7361 21.0669 11.5158C20.8687 11.2955 20.759 11.0096 20.759 10.7132C20.759 10.4168 20.8687 10.1309 21.0669 9.91054C21.2652 9.69021 21.5379 9.55104 21.8327 9.51984C22.1274 9.55104 22.4002 9.69021 22.5984 9.91054C22.7967 10.1309 22.9064 10.4168 22.9064 10.7132C22.9064 11.0096 22.7967 11.2955 22.5984 11.5158C22.4002 11.7361 22.1274 11.8753 21.8327 11.9065Z" fill="currentColor" />
	</symbol>
	<symbol id="SocialLinkedin" xmlns="http://www.w3.org/2000/svg" width="32" height="32" viewBox="0 0 32 32" fill="none">
		<path d="M27.2933 2.66669H4.70667C4.45278 2.66316 4.20067 2.70969 3.96476 2.8036C3.72885 2.89752 3.51374 3.03698 3.33174 3.21404C3.14973 3.39109 3.00438 3.60227 2.904 3.8355C2.80361 4.06874 2.75015 4.31946 2.74667 4.57336V27.4267C2.75015 27.6806 2.80361 27.9313 2.904 28.1645C3.00438 28.3978 3.14973 28.6089 3.33174 28.786C3.51374 28.9631 3.72885 29.1025 3.96476 29.1964C4.20067 29.2904 4.45278 29.3369 4.70667 29.3334H27.2933C27.5472 29.3369 27.7993 29.2904 28.0353 29.1964C28.2712 29.1025 28.4863 28.9631 28.6683 28.786C28.8503 28.6089 28.9956 28.3978 29.096 28.1645C29.1964 27.9313 29.2499 27.6806 29.2533 27.4267V4.57336C29.2499 4.31946 29.1964 4.06874 29.096 3.8355C28.9956 3.60227 28.8503 3.39109 28.6683 3.21404C28.4863 3.03698 28.2712 2.89752 28.0353 2.8036C27.7993 2.70969 27.5472 2.66316 27.2933 2.66669ZM10.7867 24.9867H6.78667V12.9867H10.7867V24.9867ZM8.78667 11.3067C8.23502 11.3067 7.70597 11.0875 7.31589 10.6975C6.92582 10.3074 6.70667 9.77834 6.70667 9.22669C6.70667 8.67504 6.92582 8.14598 7.31589 7.75591C7.70597 7.36583 8.23502 7.14669 8.78667 7.14669C9.0796 7.11347 9.37624 7.1425 9.65717 7.23187C9.93811 7.32124 10.197 7.46894 10.4169 7.66531C10.6368 7.86167 10.8127 8.10226 10.9332 8.37133C11.0536 8.6404 11.1159 8.93188 11.1159 9.22669C11.1159 9.52149 11.0536 9.81298 10.9332 10.082C10.8127 10.3511 10.6368 10.5917 10.4169 10.7881C10.197 10.9844 9.93811 11.1321 9.65717 11.2215C9.37624 11.3109 9.0796 11.3399 8.78667 11.3067ZM25.2133 24.9867H21.2133V18.5467C21.2133 16.9334 20.64 15.88 19.1867 15.88C18.7369 15.8833 18.2989 16.0244 17.9318 16.2843C17.5647 16.5441 17.286 16.9103 17.1333 17.3334C17.029 17.6467 16.9838 17.9768 17 18.3067V24.9734H13C13 24.9734 13 14.0667 13 12.9734H17V14.6667C17.3634 14.0362 17.8919 13.5167 18.5286 13.1643C19.1653 12.8119 19.8861 12.6398 20.6133 12.6667C23.28 12.6667 25.2133 14.3867 25.2133 18.08V24.9867Z" fill="currentColor"/>
	</symbol>
	<symbol id="Phone" xmlns="http://www.w3.org/2000/svg" width="24" height="24" viewBox="0 0 24 24" fill="none">
		<path d="M15.5506 9.00005C15.6751 9.04746 15.8074 9.0712 15.9406 9.07005H19.9406C20.2058 9.07005 20.4602 8.96469 20.6477 8.77716C20.8352 8.58962 20.9406 8.33527 20.9406 8.07005C20.9406 7.80483 20.8352 7.55048 20.6477 7.36294C20.4602 7.17541 20.2058 7.07005 19.9406 7.07005H18.3506L21.6406 3.78005C21.7453 3.6904 21.8303 3.58009 21.8903 3.45602C21.9503 3.33196 21.9841 3.19682 21.9894 3.0591C21.9947 2.92139 21.9715 2.78405 21.9212 2.65573C21.871 2.5274 21.7947 2.41086 21.6972 2.3134C21.5998 2.21595 21.4832 2.13969 21.3549 2.08941C21.2266 2.03914 21.0893 2.01593 20.9515 2.02125C20.8138 2.02657 20.6787 2.0603 20.5546 2.12033C20.4306 2.18035 20.3202 2.26537 20.2306 2.37005L16.9406 5.65005V4.06005C16.9406 3.79483 16.8352 3.54048 16.6477 3.35294C16.4602 3.16541 16.2058 3.06005 15.9406 3.06005C15.6754 3.06005 15.421 3.16541 15.2335 3.35294C15.0459 3.54048 14.9406 3.79483 14.9406 4.06005V8.06005C14.9394 8.19328 14.9632 8.32554 15.0106 8.45005C15.0597 8.57289 15.1328 8.68476 15.2255 8.77917C15.3182 8.87358 15.4287 8.94866 15.5506 9.00005ZM19.4406 13.0001C19.2206 13.0001 18.9906 12.9301 18.7706 12.8801C18.3251 12.7819 17.8873 12.6515 17.4606 12.4901C16.9967 12.3213 16.4867 12.33 16.0289 12.5147C15.5711 12.6993 15.1977 13.0467 14.9806 13.4901L14.7606 13.9401C13.7866 13.3982 12.8916 12.7253 12.1006 11.9401C11.3154 11.1491 10.6424 10.254 10.1006 9.28005L10.5206 9.00005C10.964 8.78297 11.3114 8.40958 11.496 7.95174C11.6806 7.4939 11.6894 6.98396 11.5206 6.52005C11.3618 6.09247 11.2315 5.65485 11.1306 5.21005C11.0806 4.99005 11.0406 4.76005 11.0106 4.53005C10.8892 3.82567 10.5202 3.18779 9.97021 2.73129C9.42021 2.27479 8.72529 2.02966 8.01059 2.04005H5.01059C4.57962 2.036 4.15284 2.12486 3.7593 2.30058C3.36576 2.4763 3.0147 2.73475 2.73002 3.05833C2.44534 3.38192 2.23372 3.76305 2.10958 4.17577C1.98543 4.58849 1.95167 5.02311 2.01059 5.45005C2.54333 9.63943 4.45662 13.5319 7.44824 16.5127C10.4399 19.4934 14.3393 21.3926 18.5306 21.9101H18.9106C19.648 21.9111 20.36 21.6406 20.9106 21.1501C21.227 20.8671 21.4797 20.5202 21.6521 20.1324C21.8244 19.7445 21.9126 19.3245 21.9106 18.9001V15.9001C21.8983 15.2054 21.6454 14.5366 21.1949 14.0077C20.7445 13.4788 20.1244 13.1227 19.4406 13.0001ZM19.9406 19.0001C19.9404 19.142 19.91 19.2824 19.8514 19.4117C19.7927 19.541 19.7073 19.6563 19.6006 19.7501C19.4889 19.8465 19.3582 19.9186 19.217 19.9616C19.0758 20.0047 18.9271 20.0178 18.7806 20.0001C15.0355 19.5199 11.5568 17.8065 8.89331 15.1303C6.22978 12.4541 4.533 8.96739 4.07059 5.22005C4.05467 5.07357 4.06862 4.92538 4.11159 4.78444C4.15456 4.6435 4.22566 4.51274 4.32059 4.40005C4.4143 4.29338 4.52965 4.20789 4.65897 4.14927C4.78829 4.09064 4.9286 4.06023 5.07059 4.06005H8.07059C8.30314 4.05488 8.53021 4.13093 8.71273 4.27512C8.89525 4.41931 9.0218 4.62262 9.07059 4.85005C9.11059 5.12338 9.16059 5.39338 9.22059 5.66005C9.33611 6.1872 9.48985 6.70523 9.68059 7.21005L8.28059 7.86005C8.16089 7.91497 8.05321 7.993 7.96375 8.08965C7.87428 8.1863 7.80479 8.29967 7.75926 8.42325C7.71373 8.54683 7.69306 8.67818 7.69844 8.80977C7.70381 8.94136 7.73513 9.0706 7.79059 9.19005C9.22979 12.2728 11.7078 14.7509 14.7906 16.1901C15.0341 16.2901 15.3071 16.2901 15.5506 16.1901C15.6753 16.1454 15.7899 16.0765 15.8878 15.9872C15.9856 15.898 16.0648 15.7902 16.1206 15.6701L16.7406 14.2701C17.2576 14.4549 17.7852 14.6085 18.3206 14.7301C18.5873 14.7901 18.8573 14.8401 19.1306 14.8801C19.358 14.9288 19.5613 15.0554 19.7055 15.2379C19.8497 15.4204 19.9258 15.6475 19.9206 15.8801L19.9406 19.0001Z" fill="currentColor"/>
	</symbol>
	<svg id="Email" xmlns="http://www.w3.org/2000/svg" width="25" height="24" viewBox="0 0 25 24" fill="none">
		<path d="M19.5 4H5.5C4.70435 4 3.94129 4.31607 3.37868 4.87868C2.81607 5.44129 2.5 6.20435 2.5 7V17C2.5 17.7956 2.81607 18.5587 3.37868 19.1213C3.94129 19.6839 4.70435 20 5.5 20H19.5C20.2956 20 21.0587 19.6839 21.6213 19.1213C22.1839 18.5587 22.5 17.7956 22.5 17V7C22.5 6.20435 22.1839 5.44129 21.6213 4.87868C21.0587 4.31607 20.2956 4 19.5 4ZM19.09 6L13.21 11.88C13.117 11.9737 13.0064 12.0481 12.8846 12.0989C12.7627 12.1497 12.632 12.1758 12.5 12.1758C12.368 12.1758 12.2373 12.1497 12.1154 12.0989C11.9936 12.0481 11.883 11.9737 11.79 11.88L5.91 6H19.09ZM20.5 17C20.5 17.2652 20.3946 17.5196 20.2071 17.7071C20.0196 17.8946 19.7652 18 19.5 18H5.5C5.23478 18 4.98043 17.8946 4.79289 17.7071C4.60536 17.5196 4.5 17.2652 4.5 17V7.41L10.38 13.29C10.9425 13.8518 11.705 14.1674 12.5 14.1674C13.295 14.1674 14.0575 13.8518 14.62 13.29L20.5 7.41V17Z" fill="currentColor"/>
	</svg>
</svg>
