<svg style="display:none" xmlns="http://www.w3.org/2000/svg" xmlns:xlink="http://www.w3.org/1999/xlink" version="1.1">
	<symbol id="Logo" viewBox="0 0 126 16" fill="none" xmlns="http://www.w3.org/2000/svg"><path d="M0.459999 0.999999H10.02V2.98H2.84V6.92H8.22V8.9H2.84V15H0.459999V0.999999Z" fill="#161616"/><path d="M23.6177 2.98H22.8977L18.6977 15H16.2577L21.2177 0.999999H25.2577L30.2377 15H27.7977L23.6177 2.98ZM18.9777 9.62H27.1377V11.58H18.9777V9.62Z" fill="#161616"/><path d="M40.435 11.16C40.515 11.5333 40.6683 11.8733 40.895 12.18C41.135 12.4733 41.4483 12.7067 41.835 12.88C42.235 13.0533 42.7083 13.14 43.255 13.14C44.095 13.14 44.7217 12.9467 45.135 12.56C45.5483 12.16 45.755 11.6933 45.755 11.16C45.755 10.72 45.6217 10.3533 45.355 10.06C45.1017 9.76667 44.7417 9.52 44.275 9.32C43.8083 9.10667 43.275 8.90667 42.675 8.72C42.1283 8.56 41.6017 8.39333 41.095 8.22C40.5883 8.03333 40.1283 7.80667 39.715 7.54C39.315 7.26 38.995 6.90667 38.755 6.48C38.515 6.04 38.4017 5.49333 38.415 4.84C38.415 3.98667 38.615 3.26667 39.015 2.68C39.415 2.08 39.975 1.62667 40.695 1.32C41.415 1.01333 42.2417 0.86 43.175 0.86C43.9617 0.86 44.6683 0.973333 45.295 1.2C45.935 1.41333 46.475 1.73333 46.915 2.16C47.355 2.57333 47.6817 3.08667 47.895 3.7L45.715 4.42C45.635 4.12667 45.475 3.86667 45.235 3.64C44.995 3.4 44.695 3.21333 44.335 3.08C43.9883 2.94667 43.6083 2.87333 43.195 2.86C42.7417 2.84667 42.335 2.91333 41.975 3.06C41.6283 3.20667 41.3483 3.42 41.135 3.7C40.9217 3.96667 40.815 4.28 40.815 4.64C40.815 5.05333 40.935 5.38 41.175 5.62C41.415 5.84667 41.7283 6.04 42.115 6.2C42.515 6.34667 42.955 6.5 43.435 6.66C43.995 6.82 44.5483 7.00667 45.095 7.22C45.655 7.42 46.1617 7.68 46.615 8C47.0817 8.30667 47.455 8.7 47.735 9.18C48.015 9.66 48.155 10.26 48.155 10.98C48.155 11.7533 47.975 12.4533 47.615 13.08C47.2683 13.7067 46.735 14.2067 46.015 14.58C45.295 14.9533 44.4017 15.14 43.335 15.14C42.4683 15.14 41.675 15.0133 40.955 14.76C40.2483 14.4933 39.655 14.12 39.175 13.64C38.7083 13.1467 38.4017 12.5667 38.255 11.9L40.435 11.16Z" fill="#161616"/><path d="M57.4952 0.999999H59.8752V6.92H66.4752V0.999999H68.8352V15H66.4752V8.9H59.8752V15H57.4952V0.999999Z" fill="#161616"/><path d="M78.7725 0.999999H81.1525V15H78.7725V0.999999Z" fill="#161616"/><path d="M97.485 15.14C96.4983 15.14 95.5717 14.9667 94.705 14.62C93.8383 14.2733 93.0783 13.7867 92.425 13.16C91.785 12.52 91.2783 11.7667 90.905 10.9C90.545 10.02 90.365 9.05333 90.365 8C90.365 6.96 90.545 6.00667 90.905 5.14C91.2783 4.26 91.785 3.5 92.425 2.86C93.0783 2.22 93.8383 1.72667 94.705 1.38C95.5717 1.03333 96.4983 0.86 97.485 0.86C98.4717 0.86 99.3917 1.03333 100.245 1.38C101.112 1.72667 101.865 2.22 102.505 2.86C103.158 3.5 103.665 4.26 104.025 5.14C104.398 6.00667 104.585 6.96 104.585 8C104.585 9.05333 104.398 10.02 104.025 10.9C103.665 11.7667 103.158 12.52 102.505 13.16C101.865 13.7867 101.112 14.2733 100.245 14.62C99.3917 14.9667 98.4717 15.14 97.485 15.14ZM97.485 13.12C98.3917 13.12 99.1983 12.9133 99.905 12.5C100.612 12.0733 101.165 11.48 101.565 10.72C101.965 9.94667 102.165 9.04 102.165 8C102.165 6.94667 101.965 6.04 101.565 5.28C101.165 4.52 100.612 3.93333 99.905 3.52C99.1983 3.09333 98.3917 2.88 97.485 2.88C96.5783 2.88 95.7717 3.09333 95.065 3.52C94.3583 3.93333 93.7983 4.52 93.385 5.28C92.985 6.04 92.785 6.94667 92.785 8C92.785 9.04 92.985 9.94667 93.385 10.72C93.7983 11.48 94.3583 12.0733 95.065 12.5C95.7717 12.9133 96.5783 13.12 97.485 13.12Z" fill="#161616"/><path d="M125.089 0.999999V15H122.669L116.149 4.74V15H113.769V0.999999H116.209L122.729 11.22V0.999999H125.089Z" fill="#161616"/></symbol>
	<symbol id="ChevronLeft" xmlns="http://www.w3.org/2000/svg" fill="none" viewBox="0 0 24 24" stroke="currentColor"><path stroke-linecap="round" stroke-linejoin="round" d="M15.75 19.5L8.25 12l7.5-7.5" /></symbol>
	<symbol id="ChevronRight" xmlns="http://www.w3.org/2000/svg" fill="none" viewBox="0 0 24 24" stroke="currentColor"><path stroke-linecap="round" stroke-linejoin="round" d="M8.25 4.5l7.5 7.5-7.5 7.5" /></symbol>
	<symbol id="ChevronUp" xmlns="http://www.w3.org/2000/svg" fill="none" viewBox="0 0 24 24" stroke="currentColor"><path stroke-linecap="round" stroke-linejoin="round" d="M4.5 15.75l7.5-7.5 7.5 7.5" /></symbol>	
	<symbol id="ChevronDown" xmlns="http://www.w3.org/2000/svg" fill="none" viewBox="0 0 24 24" stroke="currentColor"><path stroke-linecap="round" stroke-linejoin="round" d="M19.5 8.25l-7.5 7.5-7.5-7.5" /></symbol>
	<symbol id="QuestionMarkCircle" xmlns="http://www.w3.org/2000/svg" fill="none" viewBox="0 0 24 24" stroke="currentColor"><path stroke-linecap="round" stroke-linejoin="round" d="M9.879 7.519c1.171-1.025 3.071-1.025 4.242 0 1.172 1.025 1.172 2.687 0 3.712-.203.179-.43.326-.67.442-.745.361-1.45.999-1.45 1.827v.75M21 12a9 9 0 11-18 0 9 9 0 0118 0zm-9 5.25h.008v.008H12v-.008z" /></symbol>
	<symbol id="User" width="20" height="20" viewBox="0 0 20 20" fill="none" xmlns="http://www.w3.org/2000/svg"><path fill-rule="evenodd" clip-rule="evenodd" d="M10.0003 3.33366C8.61961 3.33366 7.50033 4.45295 7.50033 5.83366C7.50033 7.21437 8.61961 8.33366 10.0003 8.33366C11.381 8.33366 12.5003 7.21437 12.5003 5.83366C12.5003 4.45295 11.381 3.33366 10.0003 3.33366ZM5.83366 5.83366C5.83366 3.53247 7.69914 1.66699 10.0003 1.66699C12.3015 1.66699 14.167 3.53247 14.167 5.83366C14.167 8.13484 12.3015 10.0003 10.0003 10.0003C7.69914 10.0003 5.83366 8.13484 5.83366 5.83366ZM8.33366 13.3337C7.67062 13.3337 7.03473 13.597 6.56589 14.0659C6.09705 14.5347 5.83366 15.1706 5.83366 15.8337V17.5003C5.83366 17.9606 5.46056 18.3337 5.00033 18.3337C4.54009 18.3337 4.16699 17.9606 4.16699 17.5003V15.8337C4.16699 14.7286 4.60598 13.6688 5.38738 12.8874C6.16878 12.106 7.22859 11.667 8.33366 11.667H11.667C12.7721 11.667 13.8319 12.106 14.6133 12.8874C15.3947 13.6688 15.8337 14.7286 15.8337 15.8337V17.5003C15.8337 17.9606 15.4606 18.3337 15.0003 18.3337C14.5401 18.3337 14.167 17.9606 14.167 17.5003V15.8337C14.167 15.1706 13.9036 14.5347 13.4348 14.0659C12.9659 13.597 12.33 13.3337 11.667 13.3337H8.33366Z" fill="currentColor"/></symbol>
	<symbol id="ShoppingCart" width="20" height="20" viewBox="0 0 20 20" fill="none" xmlns="http://www.w3.org/2000/svg"><path d="M14.9997 5.00033H13.333C13.333 3.15866 11.8413 1.66699 9.99968 1.66699C8.15801 1.66699 6.66634 3.15866 6.66634 5.00033H4.99967C4.08301 5.00033 3.33301 5.75033 3.33301 6.66699V16.667C3.33301 17.5837 4.08301 18.3337 4.99967 18.3337H14.9997C15.9163 18.3337 16.6663 17.5837 16.6663 16.667V6.66699C16.6663 5.75033 15.9163 5.00033 14.9997 5.00033ZM9.99968 3.33366C10.9163 3.33366 11.6663 4.08366 11.6663 5.00033H8.33301C8.33301 4.08366 9.08301 3.33366 9.99968 3.33366ZM14.9997 16.667H4.99967V6.66699H6.66634V8.33366C6.66634 8.79199 7.04134 9.16699 7.49967 9.16699C7.95801 9.16699 8.33301 8.79199 8.33301 8.33366V6.66699H11.6663V8.33366C11.6663 8.79199 12.0413 9.16699 12.4997 9.16699C12.958 9.16699 13.333 8.79199 13.333 8.33366V6.66699H14.9997V16.667Z" fill="currentColor"/></symbol>
	<symbol id="Bars3" xmlns="http://www.w3.org/2000/svg" viewBox="0 0 20 20" stroke="currentColor" fill="none"><path fill-rule="evenodd" clip-rule="evenodd" d="M2.5 5.00033C2.5 4.54009 2.8731 4.16699 3.33333 4.16699H16.6667C17.1269 4.16699 17.5 4.54009 17.5 5.00033C17.5 5.46056 17.1269 5.83366 16.6667 5.83366H3.33333C2.8731 5.83366 2.5 5.46056 2.5 5.00033ZM2.5 10.0003C2.5 9.54009 2.8731 9.16699 3.33333 9.16699H16.6667C17.1269 9.16699 17.5 9.54009 17.5 10.0003C17.5 10.4606 17.1269 10.8337 16.6667 10.8337H3.33333C2.8731 10.8337 2.5 10.4606 2.5 10.0003ZM2.5 15.0003C2.5 14.5401 2.8731 14.167 3.33333 14.167H16.6667C17.1269 14.167 17.5 14.5401 17.5 15.0003C17.5 15.4606 17.1269 15.8337 16.6667 15.8337H3.33333C2.8731 15.8337 2.5 15.4606 2.5 15.0003Z" fill="currentColor"/></symbol>
	<symbol id="Heart" xmlns="http://www.w3.org/2000/svg" viewBox="0 0 24 24" stroke="currentColor"><path stroke-linecap="round" stroke-linejoin="round" d="M21 8.25c0-2.485-2.099-4.5-4.688-4.5-1.935 0-3.597 1.126-4.312 2.733-.715-1.607-2.377-2.733-4.313-2.733C5.1 3.75 3 5.765 3 8.25c0 7.22 9 12 9 12s9-4.78 9-12z" /></symbol>
	<symbol id="MagnifyingGlass" width="20" height="20" viewBox="0 0 20 20" fill="none" xmlns="http://www.w3.org/2000/svg"><path fill-rule="evenodd" clip-rule="evenodd" d="M8.33366 3.33366C5.57223 3.33366 3.33366 5.57223 3.33366 8.33366C3.33366 11.0951 5.57223 13.3337 8.33366 13.3337C11.0951 13.3337 13.3337 11.0951 13.3337 8.33366C13.3337 5.57223 11.0951 3.33366 8.33366 3.33366ZM1.66699 8.33366C1.66699 4.65176 4.65176 1.66699 8.33366 1.66699C12.0156 1.66699 15.0003 4.65176 15.0003 8.33366C15.0003 9.87425 14.4778 11.2928 13.6002 12.4217L18.0896 16.9111C18.415 17.2365 18.415 17.7641 18.0896 18.0896C17.7641 18.415 17.2365 18.415 16.9111 18.0896L12.4217 13.6002C11.2928 14.4778 9.87425 15.0003 8.33366 15.0003C4.65176 15.0003 1.66699 12.0156 1.66699 8.33366Z" fill="currentColor"/></symbol>
	<symbol id="XMark" xmlns="http://www.w3.org/2000/svg" fill="none" viewBox="0 0 24 24" stroke="currentColor"><path stroke-linecap="round" stroke-linejoin="round" d="M6 18L18 6M6 6l12 12" /></symbol>
	<symbol id="Plus" xmlns="http://www.w3.org/2000/svg" fill="none" viewBox="0 0 24 24" stroke="currentColor"><path stroke-linecap="round" stroke-linejoin="round" d="M12 4.5v15m7.5-7.5h-15" /></symbol>
	<symbol id="Minus" xmlns="http://www.w3.org/2000/svg" fill="none" viewBox="0 0 24 24" stroke="currentColor"><path stroke-linecap="round" stroke-linejoin="round" d="M19.5 12h-15" /></symbol>
	<symbol id="MapPin" xmlns="http://www.w3.org/2000/svg" fill="none" viewBox="0 0 24 24" stroke="currentColor"><path stroke-linecap="round" stroke-linejoin="round" d="M15 10.5a3 3 0 11-6 0 3 3 0 016 0z" /><path stroke-linecap="round" stroke-linejoin="round" d="M19.5 10.5c0 7.142-7.5 11.25-7.5 11.25S4.5 17.642 4.5 10.5a7.5 7.5 0 1115 0z" /></symbol>	
	<symbol id="Phone" xmlns="http://www.w3.org/2000/svg" fill="none" viewBox="0 0 24 24" stroke="currentColor"><path stroke-linecap="round" stroke-linejoin="round" d="M2.25 6.75c0 8.284 6.716 15 15 15h2.25a2.25 2.25 0 002.25-2.25v-1.372c0-.516-.351-.966-.852-1.091l-4.423-1.106c-.44-.11-.902.055-1.173.417l-.97 1.293c-.282.376-.769.542-1.21.38a12.035 12.035 0 01-7.143-7.143c-.162-.441.004-.928.38-1.21l1.293-.97c.363-.271.527-.734.417-1.173L6.963 3.102a1.125 1.125 0 00-1.091-.852H4.5A2.25 2.25 0 002.25 4.5v2.25z" /></symbol>
	<symbol id="Elo" xmlns="http://www.w3.org/2000/svg" viewBox="0 0 40 14" stroke="currentColor" fill="none"><path d="M6.57655 3.09309C6.98496 2.95495 7.4234 2.88288 7.87985 2.88288C9.87385 2.88288 11.5375 4.3003 11.9159 6.18018L14.7387 5.6036C14.0901 2.40841 11.2672 0 7.87985 0C7.10508 0 6.36033 0.126126 5.66364 0.36036L6.57655 3.09309Z" fill="currentColor"/><path d="M3.24323 12.2463L5.15314 10.0841C4.30029 9.32733 3.76576 8.22823 3.76576 6.997C3.76576 5.77178 4.30029 4.66667 5.15314 3.91592L3.24323 1.75977C1.79579 3.04505 0.882874 4.91292 0.882874 7.00301C0.882874 9.08709 1.79579 10.961 3.24323 12.2463Z" fill="currentColor"/><path d="M11.9159 7.82617C11.5315 9.70605 9.87387 11.1175 7.87988 11.1175C7.42342 11.1175 6.98498 11.0454 6.57057 10.9073L5.65765 13.64C6.35435 13.8742 7.1051 14.0003 7.87988 14.0003C11.2673 14.0003 14.0901 11.5979 14.7387 8.40275L11.9159 7.82617Z" fill="currentColor"/><path d="M24.1441 9.75962C23.6757 10.2161 23.045 10.4924 22.3484 10.4803C21.8679 10.4743 21.4234 10.3302 21.0511 10.0899L20.1141 11.5794C20.7568 11.9818 21.5075 12.2221 22.3243 12.2341C23.5075 12.2521 24.5886 11.7836 25.3754 11.0209L24.1441 9.75962ZM22.4505 3.68755C20.0961 3.65151 18.1502 5.5374 18.1141 7.89175C18.1021 8.77463 18.3544 9.60346 18.8048 10.2881L26.5405 6.97884C26.1081 5.12298 24.4505 3.72358 22.4505 3.68755ZM19.8859 8.22809C19.8739 8.13199 19.8679 8.02989 19.8679 7.92779C19.8919 6.5404 21.033 5.42929 22.4204 5.45331C23.1772 5.46532 23.8499 5.80767 24.3003 6.34821L19.8859 8.22809ZM28.973 1.76562V10.0119L30.4024 10.6065L29.7237 12.2341L28.3063 11.6455C27.988 11.5074 27.7718 11.2972 27.6096 11.0569C27.4535 10.8167 27.3333 10.4803 27.3333 10.0359V1.76562H28.973Z" fill="currentColor"/><path d="M34.1321 5.57925C34.3844 5.49516 34.6487 5.45312 34.9309 5.45312C36.1502 5.45312 37.1592 6.31798 37.3934 7.46513L39.1171 7.11078C38.7207 5.15882 36.997 3.69336 34.9309 3.69336C34.4565 3.69336 34 3.77144 33.5796 3.90958L34.1321 5.57925ZM32.0961 11.1588L33.2613 9.84351C32.7387 9.38105 32.4144 8.70837 32.4144 7.95762C32.4144 7.20687 32.7448 6.5342 33.2613 6.07774L32.0961 4.76243C31.2132 5.54321 30.6547 6.69036 30.6547 7.96363C30.6547 9.2369 31.2132 10.378 32.0961 11.1588ZM37.3934 8.46813C37.1592 9.61528 36.1442 10.4801 34.9309 10.4801C34.6547 10.4801 34.3844 10.4321 34.1321 10.348L33.5736 12.0177C34 12.1618 34.4565 12.2399 34.9309 12.2399C36.997 12.2399 38.7207 10.7744 39.1171 8.82249L37.3934 8.46813Z" fill="currentColor"/></symbol>
	<symbol id="Mastercard" xmlns="http://www.w3.org/2000/svg" viewBox="0 0 26 20" fill="none" stroke="currentColor"><g clip-path="url(#clip0_81_156)"><path d="M4.77191 19.9552V18.6263C4.77191 18.1167 4.46174 17.7846 3.95265 17.7846C3.68527 17.7846 3.39918 17.8734 3.19971 18.159C3.04463 17.9151 2.82538 17.7846 2.49116 17.7846C2.36689 17.7793 2.24323 17.8048 2.13124 17.8589C2.01926 17.913 1.92244 17.9941 1.84944 18.0948V17.8274H1.42859V19.9536H1.84944V18.737C1.84944 18.3627 2.07083 18.1836 2.381 18.1836C2.69116 18.1836 2.86816 18.383 2.86816 18.737V19.9552H3.28902V18.737C3.28902 18.3627 3.51041 18.1836 3.82057 18.1836C4.13073 18.1836 4.30773 18.383 4.30773 18.737V19.9552H4.77191ZM11.6821 17.8509H10.9067V17.2092H10.4869V17.8509H10.0441V18.2253H10.4869V19.2242C10.4869 19.7114 10.6639 19.9996 11.1954 19.9996C11.3968 19.9954 11.5941 19.9422 11.7703 19.8445L11.6371 19.4702C11.5177 19.5449 11.3791 19.5833 11.2382 19.5809C11.0168 19.5809 10.9061 19.4477 10.9061 19.2263V18.2082H11.6815V17.8536L11.6821 17.8509ZM15.6243 17.7846C15.5097 17.7821 15.3964 17.8093 15.2954 17.8637C15.1945 17.918 15.1093 17.9977 15.0484 18.0948V17.8274H14.6275V19.9536H15.0484V18.7595C15.0484 18.405 15.2254 18.1836 15.5136 18.1836C15.6109 18.1875 15.7074 18.2024 15.8013 18.2279L15.9345 17.829C15.8329 17.8034 15.729 17.7885 15.6243 17.7846ZM9.66656 18.006C9.44517 17.8509 9.13501 17.7846 8.80292 17.7846C8.27137 17.7846 7.93928 18.0285 7.93928 18.4493C7.93928 18.8039 8.18314 19.0028 8.64784 19.0697L8.86923 19.0916C9.11308 19.136 9.26816 19.2247 9.26816 19.3354C9.26816 19.4905 9.09116 19.6028 8.75854 19.6028C8.50456 19.608 8.2558 19.5303 8.04998 19.3814L7.82859 19.7135C8.13875 19.9349 8.51522 19.9809 8.73768 19.9809C9.358 19.9809 9.69009 19.6932 9.69009 19.2943C9.69009 18.9199 9.42271 18.7408 8.95907 18.6739L8.73768 18.652C8.53822 18.6301 8.36335 18.5632 8.36335 18.4306C8.36335 18.2755 8.54036 18.1632 8.78421 18.1632C9.05159 18.1632 9.31576 18.2739 9.44891 18.3402L9.66656 18.006ZM16.0896 18.8921C16.0896 19.5338 16.5104 19.9996 17.197 19.9996C17.5072 19.9996 17.7286 19.9333 17.95 19.7558L17.7286 19.4237C17.5718 19.5506 17.3768 19.6209 17.1751 19.6231C16.8008 19.6231 16.5104 19.3354 16.5104 18.9146C16.5104 18.4937 16.797 18.2082 17.1751 18.2082C17.3768 18.2104 17.5718 18.2807 17.7286 18.4076L17.95 18.0755C17.7286 17.8985 17.5072 17.8317 17.197 17.8317C16.5323 17.7873 16.0896 18.2525 16.0896 18.8948V18.8921ZM13.1216 17.7846C12.5013 17.7846 12.0805 18.2274 12.0805 18.8921C12.0805 19.5568 12.5232 19.9996 13.1655 19.9996C13.4779 20.0062 13.7831 19.9046 14.0291 19.7119L13.8077 19.4017C13.6298 19.5396 13.4125 19.6172 13.1874 19.6231C12.8997 19.6231 12.5896 19.4461 12.5457 19.0697H14.1184V18.8927C14.1184 18.2279 13.7195 17.7852 13.1216 17.7852V17.7846ZM13.0997 18.1836C13.4099 18.1836 13.6313 18.383 13.6532 18.7151H12.5019C12.5682 18.405 12.7692 18.1836 13.0997 18.1836ZM7.36335 18.8921V17.829H6.94249V18.0964C6.78741 17.8969 6.56816 17.7862 6.25586 17.7862C5.658 17.7862 5.21469 18.2515 5.21469 18.8937C5.21469 19.536 5.65747 20.0012 6.25586 20.0012C6.56602 20.0012 6.78741 19.8905 6.94249 19.691V19.9584H7.36335V18.8921ZM5.658 18.8921C5.658 18.4932 5.90185 18.1836 6.32271 18.1836C6.72164 18.1836 6.96442 18.4937 6.96442 18.8921C6.96442 19.313 6.69704 19.6007 6.32271 19.6007C5.90185 19.6226 5.658 19.2905 5.658 18.8921ZM22.0259 17.7846C21.9113 17.7821 21.798 17.8093 21.697 17.8637C21.5961 17.918 21.5109 17.9977 21.45 18.0948V17.8274H21.0291V19.9536H21.4495V18.7595C21.4495 18.405 21.6265 18.1836 21.9147 18.1836C22.012 18.1875 22.1085 18.2024 22.2024 18.2279L22.3355 17.829C22.234 17.8034 22.13 17.7885 22.0254 17.7846H22.0259ZM20.3869 18.8921V17.829H19.966V18.0964C19.8109 17.8969 19.5917 17.7862 19.2794 17.7862C18.6815 17.7862 18.2382 18.2515 18.2382 18.8937C18.2382 19.536 18.681 20.0012 19.2794 20.0012C19.5896 20.0012 19.8109 19.8905 19.966 19.691V19.9584H20.3869V18.8921ZM18.6815 18.8921C18.6815 18.4932 18.9254 18.1836 19.3462 18.1836C19.7452 18.1836 19.988 18.4937 19.988 18.8921C19.988 19.313 19.7206 19.6007 19.3462 19.6007C18.9254 19.6226 18.6815 19.2905 18.6815 18.8921ZM24.6618 18.8921V16.9873H24.2409V18.0948C24.0858 17.8953 23.8666 17.7846 23.5543 17.7846C22.9564 17.7846 22.5131 18.2499 22.5131 18.8921C22.5131 19.5344 22.9559 19.9996 23.5543 19.9996C23.8644 19.9996 24.0858 19.8889 24.2409 19.6894V19.9568H24.6618V18.8921ZM22.9564 18.8921C22.9564 18.4932 23.2003 18.1836 23.6211 18.1836C24.02 18.1836 24.2628 18.4937 24.2628 18.8921C24.2628 19.313 23.9954 19.6007 23.6211 19.6007C23.1997 19.6231 22.9559 19.291 22.9559 18.8921H22.9564Z" fill="currentColor"/><path d="M9.95478 7.97327C9.95505 6.76731 10.2281 5.57704 10.7536 4.49159C11.279 3.40613 12.0433 2.45361 12.989 1.70535C11.8128 0.780601 10.4002 0.205442 8.9126 0.045623C7.42499 -0.114196 5.92242 0.147775 4.57667 0.801588C3.23091 1.4554 2.09627 2.47468 1.30244 3.74289C0.508619 5.01111 0.0876465 6.47709 0.0876465 7.97327C0.0876465 9.46944 0.508619 10.9354 1.30244 12.2036C2.09627 13.4719 3.23091 14.4911 4.57667 15.1449C5.92242 15.7988 7.42499 16.0607 8.9126 15.9009C10.4002 15.7411 11.8128 15.1659 12.989 14.2412C12.0433 13.4929 11.279 12.5404 10.7536 11.4549C10.2281 10.3695 9.95505 9.17922 9.95478 7.97327Z" fill="currentColor"/><path d="M25.9019 7.97297C25.9029 9.46805 25.4832 10.9333 24.6907 12.201C23.8982 13.4688 22.7648 14.4879 21.4203 15.1418C20.0758 15.7957 18.5744 16.0579 17.0879 15.8986C15.6013 15.7393 14.1896 15.1648 13.0142 14.2409C13.9601 13.4928 14.7245 12.5403 15.25 11.4548C15.7755 10.3693 16.0485 9.17898 16.0485 7.97297C16.0485 6.76696 15.7755 5.5766 15.25 4.4911C14.7245 3.4056 13.9601 2.45312 13.0142 1.70506C14.1896 0.781104 15.6013 0.20662 17.0879 0.0473072C18.5744 -0.112005 20.0758 0.150287 21.4203 0.804186C22.7648 1.45808 23.8982 2.47719 24.6907 3.74493C25.4832 5.01268 25.9029 6.47789 25.9019 7.97297Z" fill="currentColor" fill-opacity="0.4"/><path fill-rule="evenodd" clip-rule="evenodd" d="M13.0141 1.70508H12.989C12.0432 2.45333 11.279 3.40585 10.7536 4.49131C10.2281 5.57677 9.95504 6.76704 9.95477 7.97299C9.95504 9.17894 10.2281 10.3692 10.7536 11.4547C11.279 12.5401 12.0433 13.4926 12.989 14.2409H13.0141C13.0141 14.2409 13.0141 14.2409 13.0141 14.2409C13.9601 13.4928 14.7245 12.5404 15.25 11.4549C15.7755 10.3694 16.0484 9.17899 16.0484 7.97299C16.0484 6.76698 15.7755 5.57661 15.25 4.49111C14.7245 3.40561 13.9601 2.45314 13.0141 1.70508Z" fill="currentColor" fill-opacity="0.6"/></g><defs><clipPath id="clip0_81_156"><rect width="25.8027" height="20" fill="white" transform="translate(0.0986328)"/></clipPath></defs></symbol>
	<symbol id="Visa" xmlns="http://www.w3.org/2000/svg" viewBox="0 0 40 12" fill="none" stroke="currentColor"><path d="M14.2514 11.8628L16.2325 0.237305H19.4012L17.4187 11.8628H14.2514Z" fill="currentColor"/><path d="M28.8667 0.488266C28.2389 0.252744 27.2552 0 26.0267 0C22.8956 0 20.6902 1.57674 20.6714 3.83653C20.6537 5.50698 22.2459 6.43886 23.4479 6.99494C24.6813 7.56486 25.0959 7.92824 25.09 8.437C25.0821 9.21631 24.105 9.57221 23.1942 9.57221C21.926 9.57221 21.2522 9.39601 20.2115 8.96208L19.8031 8.77728L19.3585 11.3797C20.0986 11.7043 21.4671 11.9854 22.8882 12C26.2191 12 28.3815 10.4413 28.4061 8.02807C28.4179 6.70556 27.5737 5.69921 25.7455 4.86948C24.638 4.33169 23.9597 3.97282 23.9669 3.42826C23.9669 2.94504 24.541 2.42833 25.7816 2.42833C26.8177 2.41223 27.5684 2.6382 28.1533 2.87372L28.4372 3.00787L28.8667 0.488266Z" fill="currentColor"/><path d="M37.0208 0.237305H34.5723C33.8138 0.237305 33.2461 0.444322 32.913 1.20137L28.2071 11.8552H31.5345C31.5345 11.8552 32.0785 10.4228 32.2015 10.1082C32.5651 10.1082 35.7976 10.1132 36.2597 10.1132C36.3545 10.5202 36.6452 11.8552 36.6452 11.8552H39.5855L37.0208 0.237305ZM33.136 7.74409C33.3981 7.07428 34.3985 4.49428 34.3985 4.49428C34.3798 4.52522 34.6587 3.82121 34.8186 3.38473L35.0328 4.38703C35.0328 4.38703 35.6395 7.16205 35.7663 7.74391H33.136V7.74409Z" fill="currentColor"/><path d="M0.45503 0.237305L0.414551 0.479138C1.66716 0.782359 2.78593 1.22123 3.76542 1.76717L6.57706 11.8441L9.92966 11.8404L14.9183 0.237305H11.5615L8.45929 8.16502L8.12885 6.55384C8.11337 6.50406 8.09654 6.4542 8.07932 6.40422L7.00087 1.21879C6.80912 0.482646 6.25282 0.262959 5.56461 0.237305H0.45503Z" fill="currentColor"/></symbol>		
	<symbol id="Pix" viewBox="0 0 512 512" xmlns="http://www.w3.org/2000/svg" fill="none" stroke="currentColor"> <defs/> <g fill="currentColor" fill-rule="evenodd"> <path d="M393.072 391.897c-20.082 0-38.969-7.81-53.176-22.02l-77.069-77.067c-5.375-5.375-14.773-5.395-20.17 0l-76.784 76.786c-14.209 14.207-33.095 22.019-53.179 22.019h-9.247l97.521 97.52c30.375 30.375 79.614 30.375 109.988 0l97.239-97.238h-15.123zm-105.049 74.327c-8.55 8.53-19.93 13.25-32.05 13.25h-.02c-12.12 0-23.522-4.721-32.05-13.25l-56.855-56.855c7.875-4.613 15.165-10.248 21.758-16.84l63.948-63.948 64.23 64.23c7.637 7.66 16.188 14.013 25.478 18.952l-54.439 54.46zM310.958 22.78c-30.374-30.374-79.613-30.374-109.988 0l-97.52 97.52h9.247c20.082 0 38.97 7.834 53.178 22.02l76.784 76.785c5.57 5.592 14.622 5.57 20.17 0l77.069-77.068c14.207-14.187 33.094-22.02 53.176-22.02h15.123l-97.239-97.237zm6.028 96.346l-64.23 64.23-63.97-63.97c-6.593-6.592-13.86-12.206-21.736-16.818l56.853-56.877c17.69-17.645 46.476-17.668 64.121 0l54.44 54.461c-9.292 4.961-17.842 11.315-25.479 18.974h.001z"/> <path d="M489.149 200.97l-58.379-58.377h-37.706c-13.838 0-27.394 5.635-37.185 15.426l-77.068 77.069c-7.202 7.18-16.623 10.77-26.067 10.77-9.443 0-18.885-3.59-26.066-10.77l-76.785-76.785c-9.792-9.814-23.346-15.427-37.207-15.427h-31.81L22.78 200.97c-30.374 30.375-30.374 79.614 0 109.988l58.095 58.074 31.81.021c13.86 0 27.416-5.635 37.208-15.426l76.784-76.764c13.925-13.947 38.208-13.924 52.133-.02l77.068 77.066c9.791 9.792 23.346 15.405 37.185 15.405h37.706l58.379-58.356c30.374-30.374 30.374-79.613 0-109.988zm-362.19 129.724c-3.763 3.786-8.942 5.917-14.273 5.917H94.302l-48.59-48.564c-17.689-17.69-17.689-46.476 0-64.143L94.3 175.296h18.385c5.331 0 10.51 2.154 14.295 5.918l74.74 74.74-74.761 74.74zm339.257-42.647l-48.848 48.87h-24.305c-5.309 0-10.508-2.155-14.251-5.92l-75.023-75.043 75.023-75.023c3.743-3.764 8.942-5.918 14.252-5.918h24.304l48.847 48.891c8.573 8.551 13.273 19.93 13.273 32.05 0 12.141-4.7 23.52-13.273 32.093z"/> </g> </symbol>
	<symbol id="Facebook" xmlns="http://www.w3.org/2000/svg" viewBox="0 0 24 24" stroke="currentColor" fill="none" stroke-linecap="round" stroke-linejoin="round"><path stroke="none" d="M0 0h24v24H0z" fill="none" /><path d="M7 10v4h3v7h4v-7h3l1 -4h-4v-2a1 1 0 0 1 1 -1h3v-4h-3a5 5 0 0 0 -5 5v2h-3" /></symbol>
	<symbol id="Instagram" xmlns="http://www.w3.org/2000/svg" viewBox="0 0 24 24" stroke="currentColor" fill="none" stroke-linecap="round" stroke-linejoin="round"><path stroke="none" d="M0 0h24v24H0z" fill="none" /><rect x="4" y="4" width="16" height="16" rx="4" /><circle cx="12" cy="12" r="3" /><line x1="16.5" y1="7.5" x2="16.5" y2="7.501" /></symbol>
	<symbol id="Tiktok" xmlns="http://www.w3.org/2000/svg" viewBox="0 0 24 24" stroke="currentColor" fill="none" stroke-linecap="round" stroke-linejoin="round"><path stroke="none" d="M0 0h24v24H0z" fill="none" /><path d="M9 12a4 4 0 1 0 4 4v-12a5 5 0 0 0 5 5" /></symbol>
	<symbol id="Truck" xmlns="http://www.w3.org/2000/svg"  viewBox="0 0 36 28" stroke="currentColor" fill="none"><path d="M14 22.333C14 24.174 12.5077 25.6663 10.6667 25.6663C8.82576 25.6663 7.33337 24.174 7.33337 22.333M14 22.333C14 20.4921 12.5077 18.9997 10.6667 18.9997C8.82576 18.9997 7.33337 20.4921 7.33337 22.333M14 22.333H24M7.33337 22.333H4.00004V15.6663M30.6667 22.333C30.6667 24.174 29.1743 25.6663 27.3334 25.6663C25.4924 25.6663 24 24.174 24 22.333M30.6667 22.333C30.6667 20.4921 29.1743 18.9997 27.3334 18.9997C25.4924 18.9997 24 20.4921 24 22.333M30.6667 22.333H34V12.333M2.33337 2.33301H20.6667V22.333M34 12.333H20.6667M34 12.333L29 3.99967H20.6667M4.00004 8.99967H10.6667" stroke-linecap="round" stroke-linejoin="round"/></symbol>
	<symbol id="Discount" xmlns="http://www.w3.org/2000/svg" viewBox="0 0 34 34" stroke="currentColor" fill="none"><path d="M12 21.9998L22 11.9998M13.6667 12.8332C13.6667 13.2934 13.2936 13.6665 12.8333 13.6665C12.3731 13.6665 12 13.2934 12 12.8332C12 12.3729 12.3731 11.9998 12.8333 11.9998C13.2936 11.9998 13.6667 12.3729 13.6667 12.8332ZM22 21.1665C22 21.6267 21.6269 21.9998 21.1667 21.9998C20.7064 21.9998 20.3333 21.6267 20.3333 21.1665C20.3333 20.7063 20.7064 20.3332 21.1667 20.3332C21.6269 20.3332 22 20.7063 22 21.1665ZM5.33334 8.99979C5.33334 8.02733 5.71965 7.0947 6.40728 6.40707C7.09491 5.71943 8.02755 5.33313 9.00001 5.33313H10.6667C11.6348 5.33257 12.5635 4.94913 13.25 4.26646L14.4167 3.09979C14.7574 2.75713 15.1625 2.4852 15.6087 2.29964C16.0549 2.11408 16.5334 2.01855 17.0167 2.01855C17.4999 2.01855 17.9784 2.11408 18.4246 2.29964C18.8708 2.4852 19.2759 2.75713 19.6167 3.09979L20.7833 4.26646C21.4699 4.94913 22.3985 5.33257 23.3667 5.33313H25.0333C26.0058 5.33313 26.9384 5.71943 27.6261 6.40707C28.3137 7.0947 28.7 8.02733 28.7 8.99979V10.6665C28.7006 11.6346 29.084 12.5633 29.7667 13.2498L30.9333 14.4165C31.276 14.7572 31.5479 15.1623 31.7335 15.6085C31.9191 16.0547 32.0146 16.5332 32.0146 17.0165C32.0146 17.4997 31.9191 17.9782 31.7335 18.4244C31.5479 18.8706 31.276 19.2757 30.9333 19.6165L29.7667 20.7831C29.084 21.4696 28.7006 22.3983 28.7 23.3665V25.0331C28.7 26.0056 28.3137 26.9382 27.6261 27.6259C26.9384 28.3135 26.0058 28.6998 25.0333 28.6998H23.3667C22.3985 28.7003 21.4699 29.0838 20.7833 29.7665L19.6167 30.9331C19.2759 31.2758 18.8708 31.5477 18.4246 31.7333C17.9784 31.9188 17.4999 32.0144 17.0167 32.0144C16.5334 32.0144 16.0549 31.9188 15.6087 31.7333C15.1625 31.5477 14.7574 31.2758 14.4167 30.9331L13.25 29.7665C12.5635 29.0838 11.6348 28.7003 10.6667 28.6998H9.00001C8.02755 28.6998 7.09491 28.3135 6.40728 27.6259C5.71965 26.9382 5.33334 26.0056 5.33334 25.0331V23.3665C5.33279 22.3983 4.94934 21.4696 4.26667 20.7831L3.10001 19.6165C2.75734 19.2757 2.48541 18.8706 2.29985 18.4244C2.11429 17.9782 2.01877 17.4997 2.01877 17.0165C2.01877 16.5332 2.11429 16.0547 2.29985 15.6085C2.48541 15.1623 2.75734 14.7572 3.10001 14.4165L4.26667 13.2498C4.94934 12.5633 5.33279 11.6346 5.33334 10.6665V8.99979Z" stroke-linecap="round" stroke-linejoin="round"/></symbol>
	<symbol id="Return" xmlns="http://www.w3.org/2000/svg" viewBox="0 0 34 30" stroke="currentColor" fill="none"><path d="M32 6.66699H2M32 6.66699L27 11.667M32 6.66699L27 1.66699M7 28.3337L2 23.3337M2 23.3337L7 18.3337M2 23.3337H32" stroke-linecap="round" stroke-linejoin="round"/></symbol>			
	<symbol id="CreditCard" xmlns="http://www.w3.org/2000/svg" viewBox="0 0 34 28" stroke="currentColor" fill="none"><path d="M2 10.6663H32M8.66667 18.9997H8.68333M15.3333 18.9997H18.6667M7 2.33301H27C29.7614 2.33301 32 4.57158 32 7.33301V20.6663C32 23.4278 29.7614 25.6663 27 25.6663H7C4.23858 25.6663 2 23.4278 2 20.6663V7.33301C2 4.57158 4.23858 2.33301 7 2.33301Z" stroke-linecap="round" stroke-linejoin="round"/></symbol>		
	<symbol id="Deco" xmlns="http://www.w3.org/2000/svg" viewBox="0 0 58 20" stroke="currentColor" fill="none"><path d="M49.5359 16.9432C47.3666 16.9432 46.9948 14.8019 47.6797 12.7178C48.2221 11.0615 49.5066 9.31991 51.4201 9.31991C53.676 9.31991 53.9039 11.6038 53.247 13.6026C52.6753 15.3162 51.3908 16.9432 49.5359 16.9432ZM48.879 19.9973C52.6473 19.9973 56.0159 17.9133 57.3578 14.1449C58.7569 10.1767 57.1859 6.2085 52.0477 6.2085C47.9369 6.2085 44.7962 8.77758 43.5969 12.1755C42.2551 16.0011 43.7115 19.9973 48.879 19.9973ZM36.3747 19.9973C37.8591 19.9973 39.3729 19.6829 40.4282 19.2271C40.8 18.1998 40.828 17.2004 40.5428 16.201C39.8006 16.4862 38.7732 16.7727 37.7165 16.7727C34.861 16.7727 34.6051 14.6606 35.2048 12.8617C35.8617 10.9496 37.574 9.40786 40.287 9.40786C41.0012 9.40786 41.6861 9.52246 42.1138 9.77963C42.856 8.78025 43.2838 7.78086 43.3704 6.7535C42.7428 6.46834 41.6861 6.21117 40.3163 6.21117C35.863 6.21117 32.3505 8.80956 31.0953 12.406C29.896 15.8039 30.8101 20 36.3774 20L36.3747 19.9973ZM21.0442 11.8037C21.8143 10.0901 23.0136 9.09206 24.5846 9.09206C25.9838 9.09206 26.2116 9.86225 25.9838 10.4619C25.6413 11.2894 24.47 11.8037 21.0442 11.8037ZM22.2714 19.9973C23.7278 19.9973 25.7826 19.7122 27.4962 18.8554C27.7813 17.9133 27.7534 16.9712 27.4389 15.9998C26.3542 16.5421 24.8405 16.8566 23.4707 16.8566C21.4439 16.8566 20.3299 16.1997 20.3592 14.5447C25.8972 14.6873 28.7807 13.6879 29.7228 11.2334C30.6649 8.7496 29.0379 6.2085 25.1829 6.2085C21.0721 6.2085 18.046 9.14935 16.932 12.3181C15.7621 15.6867 16.5043 19.9973 22.2701 19.9973H22.2714ZM5.72293 19.9973C9.52059 19.9973 11.6806 18.2557 14.1924 12.9177C15.5622 9.97684 16.7335 7.09329 18.0753 4.23905L19.6743 4.7534C20.1021 4.89598 20.3313 4.6388 20.1314 4.23905L18.1899 0.270827C18.0473 -0.0143302 17.7329 -0.0436454 17.533 0.0429678L12.708 1.86984C12.3082 2.01242 12.3362 2.38419 12.7359 2.49745L14.1631 2.95451C12.9931 5.6102 11.5367 9.60641 10.3654 12.1182C9.05155 14.9165 8.39595 16.8859 6.16933 16.8859C3.9427 16.8859 3.57093 15.1443 4.51301 12.6605C5.59768 9.77697 7.42455 8.92016 9.5086 9.51979C10.0802 8.72028 10.508 7.52103 10.6785 6.43636C10.0789 6.26447 9.36469 6.2085 8.76639 6.2085C5.3978 6.2085 2.05719 7.95009 0.687373 11.6038C-1.0822 16.3143 0.554122 19.9973 5.7216 19.9973H5.72293Z" fill="currentColor"/></symbol>
	<symbol id="Discord" xmlns="http://www.w3.org/2000/svg" viewBox="0 0 127.14 96.36" stroke="currentColor" fill="none"><g id="图层_2" data-name="图层 2"><g id="Discord_Logos" data-name="Discord Logos"><g id="Discord_Logo_-_Large_-_White" data-name="Discord Logo - Large - White"><path class="cls-1" d="M107.7,8.07A105.15,105.15,0,0,0,81.47,0a72.06,72.06,0,0,0-3.36,6.83A97.68,97.68,0,0,0,49,6.83,72.37,72.37,0,0,0,45.64,0,105.89,105.89,0,0,0,19.39,8.09C2.79,32.65-1.71,56.6.54,80.21h0A105.73,105.73,0,0,0,32.71,96.36,77.7,77.7,0,0,0,39.6,85.25a68.42,68.42,0,0,1-10.85-5.18c.91-.66,1.8-1.34,2.66-2a75.57,75.57,0,0,0,64.32,0c.87.71,1.76,1.39,2.66,2a68.68,68.68,0,0,1-10.87,5.19,77,77,0,0,0,6.89,11.1A105.25,105.25,0,0,0,126.6,80.22h0C129.24,52.84,122.09,29.11,107.7,8.07ZM42.45,65.69C36.18,65.69,31,60,31,53s5-12.74,11.43-12.74S54,46,53.89,53,48.84,65.69,42.45,65.69Zm42.24,0C78.41,65.69,73.25,60,73.25,53s5-12.74,11.44-12.74S96.23,46,96.12,53,91.08,65.69,84.69,65.69Z"/></g></g></g></symbol>
	<symbol id="FilterList" xmlns="http://www.w3.org/2000/svg" viewBox="0 0 16 16" fill="none"><path d="M6.66667 12H9.33333V10.6667H6.66667V12ZM2 4V5.33333H14V4H2ZM4 8.66667H12V7.33333H4V8.66667Z" fill="currentColor"/></symbol>
	<symbol id="ChevronUp" xmlns="http://www.w3.org/2000/svg" viewBox="0 0 16 16" stroke="currentColor" fill="none"><path fill-rule="evenodd" clip-rule="evenodd" d="M7.52851 5.52827C7.78886 5.26792 8.21097 5.26792 8.47132 5.52827L12.4713 9.52827C12.7317 9.78862 12.7317 10.2107 12.4713 10.4711C12.211 10.7314 11.7889 10.7314 11.5285 10.4711L7.99992 6.94248L4.47132 10.4711C4.21097 10.7314 3.78886 10.7314 3.52851 10.4711C3.26816 10.2107 3.26816 9.78862 3.52851 9.52827L7.52851 5.52827Z" fill="black"/></symbol>
	<symbol id="Trash" width="20" height="20" viewBox="0 0 20 20" fill="none" xmlns="http://www.w3.org/2000/svg"><path fill-rule="evenodd" clip-rule="evenodd" d="M7.15482 2.15483C7.46738 1.84227 7.89131 1.66667 8.33333 1.66667H11.6667C12.1087 1.66667 12.5326 1.84227 12.8452 2.15483C13.1577 2.46739 13.3333 2.89131 13.3333 3.33334V5H15.8236C15.8295 4.99994 15.8353 4.99994 15.8412 5H16.6667C17.1269 5 17.5 5.3731 17.5 5.83334C17.5 6.29357 17.1269 6.66667 16.6667 6.66667H16.6001L15.833 15.8715C15.8231 16.5207 15.5609 17.1413 15.1011 17.6011C14.6323 18.0699 13.9964 18.3333 13.3333 18.3333H6.66667C6.00362 18.3333 5.36774 18.0699 4.8989 17.6011C4.43906 17.1413 4.17685 16.5207 4.16696 15.8715L3.39989 6.66667H3.33333C2.8731 6.66667 2.5 6.29357 2.5 5.83334C2.5 5.3731 2.8731 5 3.33333 5H4.15878C4.16467 4.99994 4.17055 4.99994 4.17641 5H6.66667V3.33334C6.66667 2.89131 6.84226 2.46739 7.15482 2.15483ZM5.07233 6.66667L5.83045 15.7641C5.83237 15.7871 5.83333 15.8102 5.83333 15.8333C5.83333 16.0543 5.92113 16.2663 6.07741 16.4226C6.23369 16.5789 6.44565 16.6667 6.66667 16.6667H13.3333C13.5543 16.6667 13.7663 16.5789 13.9226 16.4226C14.0789 16.2663 14.1667 16.0543 14.1667 15.8333C14.1667 15.8102 14.1676 15.7871 14.1695 15.7641L14.9277 6.66667H5.07233ZM11.6667 5H8.33333V3.33334H11.6667V5ZM8.33333 8.33334C8.79357 8.33334 9.16667 8.70643 9.16667 9.16667V14.1667C9.16667 14.6269 8.79357 15 8.33333 15C7.8731 15 7.5 14.6269 7.5 14.1667V9.16667C7.5 8.70643 7.8731 8.33334 8.33333 8.33334ZM11.6667 8.33334C12.1269 8.33334 12.5 8.70643 12.5 9.16667V14.1667C12.5 14.6269 12.1269 15 11.6667 15C11.2064 15 10.8333 14.6269 10.8333 14.1667V9.16667C10.8333 8.70643 11.2064 8.33334 11.6667 8.33334Z" fill="currentColor"/></symbol>
	<symbol id="WhatsApp"  xmlns="http://www.w3.org/2000/svg" viewBox="0 0 18 18" fill="none" ><path fill-rule="evenodd" clip-rule="evenodd" d="M13.333 3.94275C12.0977 2.88909 10.5203 2.32246 8.89688 2.34921C7.27345 2.37596 5.71558 2.99425 4.51564 4.08804C3.3157 5.18184 2.55617 6.67594 2.3796 8.28996C2.20302 9.90398 2.62153 11.527 3.5566 12.8543C3.72398 13.0919 3.75547 13.3996 3.63972 13.6661L2.88341 15.408L5.56246 14.9305C5.73665 14.8995 5.9162 14.9247 6.07512 15.0025C7.53336 15.7165 9.20204 15.8737 10.768 15.4448C12.334 15.0158 13.6896 14.0301 14.5804 12.6727C15.4712 11.3152 15.836 9.67933 15.6064 8.07201C15.3767 6.46468 14.5684 4.99641 13.333 3.94275ZM8.86942 0.682773C10.8987 0.649334 12.8704 1.35761 14.4146 2.67469C15.9588 3.99177 16.9692 5.8271 17.2563 7.83626C17.5433 9.84542 17.0873 11.8903 15.9738 13.5871C14.8603 15.2839 13.1658 16.516 11.2083 17.0522C9.34061 17.5638 7.35601 17.4083 5.59455 16.6177L1.64654 17.3213C1.34428 17.3752 1.03687 17.2585 0.846507 17.0176C0.656144 16.7767 0.613663 16.4506 0.735949 16.169L1.93091 13.417C0.947723 11.8367 0.519412 9.96793 0.722814 8.1087C0.943534 6.09118 1.89294 4.22355 3.39287 2.85631C4.8928 1.48907 6.84013 0.716212 8.86942 0.682773ZM6.03312 5.61685C6.26754 5.38243 6.58548 5.25073 6.917 5.25073C7.24852 5.25073 7.56646 5.38243 7.80088 5.61685C8.03531 5.85127 8.167 6.16921 8.167 6.50073V7.33407C8.167 7.66558 8.03531 7.98353 7.80088 8.21795C7.71659 8.30224 7.62149 8.37326 7.51885 8.42964C7.68255 8.89999 7.95113 9.33224 8.30998 9.69109C8.66883 10.0499 9.10107 10.3185 9.57143 10.4822C9.62781 10.3796 9.69882 10.2845 9.78312 10.2002C10.0175 9.96576 10.3355 9.83407 10.667 9.83407H11.5003C11.8319 9.83407 12.1498 9.96576 12.3842 10.2002C12.6186 10.4346 12.7503 10.7525 12.7503 11.0841C12.7503 11.4156 12.6186 11.7335 12.3842 11.9679C12.1498 12.2024 11.8319 12.3341 11.5003 12.3341H10.667C9.34092 12.3341 8.06915 11.8073 7.13147 10.8696C6.19378 9.93192 5.667 8.66015 5.667 7.33407V6.50073C5.667 6.16921 5.79869 5.85127 6.03312 5.61685Z" fill="currentColor"/></symbol>
	<symbol id="ArrowsPointingOut" xmlns="http://www.w3.org/2000/svg" fill="none" viewBox="0 0 24 24"><path stroke-linecap="round" stroke-linejoin="round" d="M3.75 3.75v4.5m0-4.5h4.5m-4.5 0L9 9M3.75 20.25v-4.5m0 4.5h4.5m-4.5 0L9 15M20.25 3.75h-4.5m4.5 0v4.5m0-4.5L15 9m5.25 11.25h-4.5m4.5 0v-4.5m0 4.5L15 15" /></symbol>

	<symbol id="ALaCarte" xmlns="http://www.w3.org/2000/svg" width="25" height="24" viewBox="0 0 25 24" fill="none">
		<path d="M17.34 11.63C17.7405 11.635 18.138 11.5597 18.509 11.4085C18.88 11.2574 19.2169 11.0335 19.5 10.75L22.33 7.92003C22.5162 7.73267 22.6208 7.47922 22.6208 7.21503C22.6208 6.95085 22.5162 6.6974 22.33 6.51003C22.237 6.41631 22.1264 6.34191 22.0046 6.29114C21.8827 6.24037 21.752 6.21424 21.62 6.21424C21.488 6.21424 21.3573 6.24037 21.2354 6.29114C21.1136 6.34191 21.0029 6.41631 20.91 6.51003L18.05 9.33003C17.957 9.42376 17.8464 9.49816 17.7246 9.54893C17.6027 9.59969 17.472 9.62583 17.34 9.62583C17.208 9.62583 17.0773 9.59969 16.9554 9.54893C16.8336 9.49816 16.7229 9.42376 16.63 9.33003L20.17 5.80003C20.2632 5.7068 20.3372 5.59611 20.3876 5.47428C20.4381 5.35246 20.4641 5.22189 20.4641 5.09003C20.4641 4.95817 20.4381 4.82761 20.3876 4.70579C20.3372 4.58396 20.2632 4.47327 20.17 4.38003C20.0767 4.2868 19.9661 4.21283 19.8442 4.16237C19.7224 4.11191 19.5918 4.08594 19.46 4.08594C19.3281 4.08594 19.1976 4.11191 19.0757 4.16237C18.9539 4.21283 18.8432 4.2868 18.75 4.38003L15.22 7.92003C15.0337 7.73267 14.9292 7.47922 14.9292 7.21503C14.9292 6.95085 15.0337 6.6974 15.22 6.51003L18.05 3.68003C18.1432 3.5868 18.2172 3.47611 18.2676 3.35428C18.3181 3.23246 18.3441 3.10189 18.3441 2.97003C18.3441 2.83817 18.3181 2.70761 18.2676 2.58578C18.2172 2.46396 18.1432 2.35327 18.05 2.26003C17.9567 2.1668 17.8461 2.09283 17.7242 2.04237C17.6024 1.99191 17.4718 1.96594 17.34 1.96594C17.2081 1.96594 17.0776 1.99191 16.9557 2.04237C16.8339 2.09283 16.7232 2.1668 16.63 2.26003L13.8 5.09003C13.2382 5.65254 12.9226 6.41503 12.9226 7.21003C12.9226 8.00504 13.2382 8.76753 13.8 9.33003L12.5 10.62L4.22999 2.32003L4.12999 2.26003C4.07887 2.21543 4.02162 2.17839 3.95999 2.15003L3.77999 2.08003L3.65999 2.00003H3.58999H3.38999C3.33037 1.9905 3.26961 1.9905 3.20999 2.00003C3.14945 2.02207 3.09224 2.05235 3.03999 2.09003L2.87999 2.19003H2.80999L2.74999 2.29003C2.70766 2.34283 2.67081 2.39979 2.63999 2.46003C2.6107 2.52101 2.58726 2.58463 2.56999 2.65003C2.56999 2.65003 2.56999 2.72003 2.56999 2.76003C2.32732 4.45144 2.48204 6.17613 3.02186 7.79735C3.56169 9.41856 4.47179 10.8917 5.67999 12.1L8.31999 14.73L2.90999 20.13C2.81626 20.223 2.74186 20.3336 2.6911 20.4555C2.64033 20.5773 2.61419 20.708 2.61419 20.84C2.61419 20.972 2.64033 21.1028 2.6911 21.2246C2.74186 21.3465 2.81626 21.4571 2.90999 21.55C3.00343 21.6427 3.11424 21.716 3.23608 21.7658C3.35792 21.8156 3.48838 21.8408 3.61999 21.84C3.75159 21.8408 3.88206 21.8156 4.00389 21.7658C4.12573 21.716 4.23655 21.6427 4.32999 21.55L10.4 15.57L13.23 12.74L15.23 10.74C15.788 11.304 16.5466 11.624 17.34 11.63ZM9.68999 13.45L7.05999 10.81C5.61844 9.34877 4.71583 7.4413 4.49999 5.40003L11.11 12L9.68999 13.45ZM15.93 14.02C15.7417 13.8304 15.4858 13.7233 15.2185 13.7224C14.9513 13.7215 14.6946 13.8267 14.505 14.015C14.3154 14.2033 14.2083 14.4593 14.2074 14.7265C14.2064 14.9937 14.3117 15.2504 14.5 15.44L20.8 21.74C20.991 21.9138 21.2418 22.007 21.5 22C21.6316 22.0008 21.7621 21.9756 21.8839 21.9258C22.0057 21.876 22.1165 21.8027 22.21 21.71C22.3037 21.6171 22.3781 21.5065 22.4289 21.3846C22.4796 21.2628 22.5058 21.132 22.5058 21C22.5058 20.868 22.4796 20.7373 22.4289 20.6155C22.3781 20.4936 22.3037 20.383 22.21 20.29L15.93 14.02Z" fill="#01251D"/>
	</symbol>
	<svg id="Bar" xmlns="http://www.w3.org/2000/svg" width="25" height="24" viewBox="0 0 25 24" fill="none">
		<path d="M22.2799 3.62C22.396 3.47365 22.4688 3.29773 22.49 3.11215C22.5112 2.92657 22.48 2.73876 22.3999 2.57C22.3189 2.39983 22.1914 2.25603 22.0321 2.15518C21.8729 2.05433 21.6884 2.00053 21.4999 2H3.49992C3.31144 2.00053 3.12694 2.05433 2.9677 2.15518C2.80847 2.25603 2.68097 2.39983 2.59992 2.57C2.51987 2.73876 2.48868 2.92657 2.50989 3.11215C2.53109 3.29773 2.60386 3.47365 2.71992 3.62L11.4999 14.6V20H5.74992C5.48471 20 5.23035 20.1054 5.04282 20.2929C4.85528 20.4804 4.74992 20.7348 4.74992 21C4.74992 21.2652 4.85528 21.5196 5.04282 21.7071C5.23035 21.8946 5.48471 22 5.74992 22H19.2499C19.5151 22 19.7695 21.8946 19.957 21.7071C20.1446 21.5196 20.2499 21.2652 20.2499 21C20.2499 20.7348 20.1446 20.4804 19.957 20.2929C19.7695 20.1054 19.5151 20 19.2499 20H13.4999V14.6L22.2799 3.62ZM5.57992 4H19.4199L17.0199 7H8.01992L5.57992 4ZM12.4999 12.65L9.57992 9H15.4199L12.4999 12.65Z" fill="#003330"/>
	</svg>
	<symbol id="Cafeteria" xmlns="http://www.w3.org/2000/svg" width="25" height="24" viewBox="0 0 25 24" fill="none">
		<path d="M9.5 17H13.5C14.8261 17 16.0979 16.4732 17.0355 15.5355C17.9732 14.5979 18.5 13.3261 18.5 12V11H19.5C20.2956 11 21.0587 10.6839 21.6213 10.1213C22.1839 9.55871 22.5 8.79565 22.5 8C22.5 7.20435 22.1839 6.44129 21.6213 5.87868C21.0587 5.31607 20.2956 5 19.5 5H18.5V4C18.5 3.73478 18.3946 3.48043 18.2071 3.29289C18.0196 3.10536 17.7652 3 17.5 3H5.5C5.23478 3 4.98043 3.10536 4.79289 3.29289C4.60536 3.48043 4.5 3.73478 4.5 4V12C4.5 13.3261 5.02678 14.5979 5.96447 15.5355C6.90215 16.4732 8.17392 17 9.5 17ZM18.5 7H19.5C19.7652 7 20.0196 7.10536 20.2071 7.29289C20.3946 7.48043 20.5 7.73478 20.5 8C20.5 8.26522 20.3946 8.51957 20.2071 8.70711C20.0196 8.89464 19.7652 9 19.5 9H18.5V7ZM6.5 5H16.5V12C16.5 12.7956 16.1839 13.5587 15.6213 14.1213C15.0587 14.6839 14.2956 15 13.5 15H9.5C8.70435 15 7.94129 14.6839 7.37868 14.1213C6.81607 13.5587 6.5 12.7956 6.5 12V5ZM21.5 19H3.5C3.23478 19 2.98043 19.1054 2.79289 19.2929C2.60536 19.4804 2.5 19.7348 2.5 20C2.5 20.2652 2.60536 20.5196 2.79289 20.7071C2.98043 20.8946 3.23478 21 3.5 21H21.5C21.7652 21 22.0196 20.8946 22.2071 20.7071C22.3946 20.5196 22.5 20.2652 22.5 20C22.5 19.7348 22.3946 19.4804 22.2071 19.2929C22.0196 19.1054 21.7652 19 21.5 19Z" fill="#003330"/>
	</symbol>
	<symbol id="FastFood" xmlns="http://www.w3.org/2000/svg" width="25" height="24" viewBox="0 0 25 24" fill="none">
		<path d="M20.3901 9.55004C20.307 9.38513 20.1799 9.24645 20.0228 9.14937C19.8657 9.05229 19.6848 9.0006 19.5001 9.00004H14.5001V3.00004C14.5108 2.78073 14.4491 2.56397 14.3244 2.38324C14.1997 2.20251 14.019 2.06785 13.8101 2.00004C13.6093 1.93399 13.3928 1.93324 13.1916 1.99792C12.9903 2.0626 12.8148 2.18937 12.6901 2.36004L4.69011 13.36C4.58987 13.5049 4.52968 13.6737 4.51564 13.8493C4.50159 14.0249 4.53418 14.2011 4.61011 14.36C4.68003 14.5418 4.80149 14.6992 4.9596 14.8129C5.1177 14.9266 5.30555 14.9916 5.50011 15H10.5001V21C10.5003 21.2109 10.5671 21.4164 10.691 21.587C10.8149 21.7576 10.9896 21.8847 11.1901 21.95C11.2906 21.9812 11.3949 21.998 11.5001 22C11.6579 22.0005 11.8135 21.9635 11.9543 21.8923C12.0951 21.821 12.217 21.7174 12.3101 21.59L20.3101 10.59C20.4178 10.4408 20.4823 10.2648 20.4964 10.0813C20.5106 9.8978 20.4738 9.71397 20.3901 9.55004ZM12.5001 17.92V14C12.5001 13.7348 12.3947 13.4805 12.2072 13.2929C12.0197 13.1054 11.7653 13 11.5001 13H7.50011L12.5001 6.08004V10C12.5001 10.2653 12.6055 10.5196 12.793 10.7071C12.9805 10.8947 13.2349 11 13.5001 11H17.5001L12.5001 17.92Z" fill="#003330"/>
	</symbol>
	<symbol id="Padaria" xmlns="http://www.w3.org/2000/svg" width="25" height="24" viewBox="0 0 25 24" fill="none">
		<path d="M15.5 13H9.5C9.23479 13 8.98043 13.1054 8.7929 13.2929C8.60536 13.4804 8.5 13.7348 8.5 14C8.5 14.2652 8.60536 14.5196 8.7929 14.7071C8.98043 14.8946 9.23479 15 9.5 15H15.5C15.7652 15 16.0196 14.8946 16.2071 14.7071C16.3946 14.5196 16.5 14.2652 16.5 14C16.5 13.7348 16.3946 13.4804 16.2071 13.2929C16.0196 13.1054 15.7652 13 15.5 13ZM15.5 9H9.5C9.23479 9 8.98043 9.10536 8.7929 9.29289C8.60536 9.48043 8.5 9.73478 8.5 10C8.5 10.2652 8.60536 10.5196 8.7929 10.7071C8.98043 10.8946 9.23479 11 9.5 11H15.5C15.7652 11 16.0196 10.8946 16.2071 10.7071C16.3946 10.5196 16.5 10.2652 16.5 10C16.5 9.73478 16.3946 9.48043 16.2071 9.29289C16.0196 9.10536 15.7652 9 15.5 9ZM12.5 2C10.5222 2 8.58879 2.58649 6.9443 3.6853C5.29981 4.78412 4.01809 6.3459 3.26121 8.17317C2.50433 10.0004 2.3063 12.0111 2.69215 13.9509C3.078 15.8907 4.03041 17.6725 5.42894 19.0711C6.82746 20.4696 8.60929 21.422 10.5491 21.8079C12.4889 22.1937 14.4996 21.9957 16.3268 21.2388C18.1541 20.4819 19.7159 19.2002 20.8147 17.5557C21.9135 15.9112 22.5 13.9778 22.5 12C22.5 10.6868 22.2413 9.38642 21.7388 8.17317C21.2363 6.95991 20.4997 5.85752 19.5711 4.92893C18.6425 4.00035 17.5401 3.26375 16.3268 2.7612C15.1136 2.25866 13.8132 2 12.5 2ZM12.5 20C10.9178 20 9.37104 19.5308 8.05544 18.6518C6.73985 17.7727 5.71447 16.5233 5.10897 15.0615C4.50347 13.5997 4.34504 11.9911 4.65372 10.4393C4.9624 8.88743 5.72433 7.46197 6.84315 6.34315C7.96197 5.22433 9.38743 4.4624 10.9393 4.15372C12.4911 3.84504 14.0997 4.00346 15.5615 4.60896C17.0233 5.21447 18.2727 6.23984 19.1518 7.55544C20.0308 8.87103 20.5 10.4177 20.5 12C20.5 14.1217 19.6572 16.1566 18.1569 17.6569C16.6566 19.1571 14.6217 20 12.5 20Z" fill="#003330"/>
	</symbol>
	<symbol id="Pizzaria" xmlns="http://www.w3.org/2000/svg" width="25" height="24" viewBox="0 0 25 24" fill="none">
		<path d="M9.01009 12.4799C8.81231 12.4799 8.61897 12.5386 8.45452 12.6485C8.29007 12.7584 8.1619 12.9145 8.08621 13.0973C8.01052 13.28 7.99072 13.4811 8.0293 13.675C8.06789 13.869 8.16313 14.0472 8.30298 14.1871C8.44283 14.3269 8.62102 14.4221 8.815 14.4607C9.00898 14.4993 9.21005 14.4795 9.39277 14.4038C9.5755 14.3281 9.73168 14.2 9.84156 14.0355C9.95144 13.8711 10.0101 13.6777 10.0101 13.4799C10.0101 13.2147 9.90473 12.9604 9.7172 12.7728C9.52966 12.5853 9.27531 12.4799 9.01009 12.4799ZM9.01009 7.99995C8.81231 7.99995 8.61897 8.0586 8.45452 8.16848C8.29007 8.27836 8.1619 8.43454 8.08621 8.61726C8.01052 8.79999 7.99072 9.00106 8.0293 9.19504C8.06789 9.38902 8.16313 9.5672 8.30298 9.70705C8.44283 9.84691 8.62102 9.94215 8.815 9.98073C9.00898 10.0193 9.21005 9.99951 9.39277 9.92383C9.5755 9.84814 9.73168 9.71997 9.84156 9.55552C9.95144 9.39107 10.0101 9.19773 10.0101 8.99995C10.0101 8.73473 9.90473 8.48038 9.7172 8.29284C9.52966 8.1053 9.27531 7.99995 9.01009 7.99995ZM12.5001 9.99995C12.2349 9.99995 11.9805 10.1053 11.793 10.2928C11.6054 10.4804 11.5001 10.7347 11.5001 10.9999V11.9999C11.5001 12.2652 11.6054 12.5195 11.793 12.7071C11.9805 12.8946 12.2349 12.9999 12.5001 12.9999C12.7653 12.9999 13.0197 12.8946 13.2072 12.7071C13.3947 12.5195 13.5001 12.2652 13.5001 11.9999V10.9999C13.5001 10.7347 13.3947 10.4804 13.2072 10.2928C13.0197 10.1053 12.7653 9.99995 12.5001 9.99995ZM21.0001 8.56995C20.6551 8.37146 20.2741 8.2436 19.8792 8.19381C19.4844 8.14402 19.0835 8.1733 18.7001 8.27995C18.301 8.38684 17.9294 8.57777 17.6101 8.83995L6.01009 2.12995C5.85807 2.04218 5.68563 1.99597 5.51009 1.99597C5.33455 1.99597 5.16211 2.04218 5.01009 2.12995C4.85562 2.21677 4.727 2.34308 4.63739 2.49595C4.54778 2.64882 4.50039 2.82275 4.50009 2.99995V16.1699C3.90994 16.369 3.39826 16.7503 3.03881 17.259C2.67936 17.7676 2.49072 18.3772 2.50009 18.9999C2.49981 19.7819 2.80488 20.5331 3.3503 21.0935C3.89572 21.6538 4.63839 21.9791 5.42009 21.9999H6.00009C9.27683 21.9922 12.4932 21.1176 15.3226 19.465C18.152 17.8123 20.4938 15.4403 22.1101 12.5899C22.4834 11.9079 22.5773 11.1077 22.3721 10.3577C22.1669 9.60783 21.6786 8.96687 21.0101 8.56995H21.0001ZM6.50009 4.72995L16.3901 10.4399C15.2929 12.0772 13.8261 13.4334 12.1081 14.3993C10.3901 15.3651 8.46906 15.9134 6.50009 15.9999V4.72995ZM20.3701 11.6099C18.8855 14.2256 16.7175 16.3882 14.0981 17.8661C11.4787 19.3441 8.50657 20.0817 5.50009 19.9999C5.23487 19.9999 4.98052 19.8946 4.79298 19.7071C4.60545 19.5195 4.50009 19.2652 4.50009 18.9999C4.49931 18.866 4.52546 18.7332 4.57699 18.6095C4.62853 18.4858 4.7044 18.3737 4.80009 18.2799C4.98796 18.0989 5.23916 17.9984 5.50009 17.9999H6.01009C8.57781 17.9989 11.0992 17.316 13.3165 16.0211C15.5338 14.7263 17.3675 12.8658 18.6301 10.6299C18.6908 10.5203 18.7737 10.4245 18.8736 10.3487C18.9735 10.2729 19.0881 10.2188 19.2101 10.1899C19.4622 10.1207 19.7315 10.153 19.9601 10.2799C20.1895 10.4033 20.3618 10.6112 20.4402 10.8596C20.5187 11.108 20.4971 11.3772 20.3801 11.6099H20.3701Z" fill="#003330"/>
	</symbol>
	<symbol id="SelfService" xmlns="http://www.w3.org/2000/svg" width="25" height="24" viewBox="0 0 25 24" fill="none">
		<path d="M23.4642 13.8226C23.4603 13.7638 23.4508 13.7055 23.436 13.6484L21.1313 7.51135C21.5508 7.24006 21.8957 6.86818 22.1347 6.42956C22.3738 5.99095 22.4993 5.49952 22.5 5C22.5 4.73478 22.3946 4.48043 22.2071 4.29289C22.0196 4.10536 21.7652 4 21.5 4C21.2348 4 20.9804 4.10536 20.7929 4.29289C20.6054 4.48043 20.5 4.73478 20.5 5C20.4999 5.22285 20.4254 5.43929 20.2884 5.61499C20.1513 5.79069 19.9595 5.91559 19.7433 5.96987C19.5272 6.02416 19.2991 6.00472 19.0953 5.91465C18.8915 5.82457 18.7235 5.66902 18.6182 5.47266C18.3616 5.01717 17.9863 4.63972 17.5324 4.38042C17.0784 4.12111 16.5627 3.98965 16.04 4H13.5V3C13.5 2.73478 13.3946 2.48043 13.2071 2.29289C13.0196 2.10536 12.7652 2 12.5 2C12.2348 2 11.9804 2.10536 11.7929 2.29289C11.6054 2.48043 11.5 2.73478 11.5 3V4H8.96C8.43731 3.98965 7.92158 4.12111 7.46762 4.38042C7.01366 4.63972 6.63844 5.01717 6.38184 5.47266C6.27647 5.66902 6.10855 5.82457 5.90471 5.91465C5.70088 6.00472 5.47281 6.02416 5.25668 5.96987C5.04054 5.91559 4.84872 5.79069 4.71165 5.61499C4.57457 5.43929 4.50008 5.22285 4.5 5C4.5 4.73478 4.39464 4.48043 4.20711 4.29289C4.01957 4.10536 3.76522 4 3.5 4C3.23478 4 2.98043 4.10536 2.79289 4.29289C2.60536 4.48043 2.5 4.73478 2.5 5C2.50065 5.49952 2.62621 5.99095 2.86525 6.42956C3.10429 6.86818 3.44922 7.24006 3.86865 7.51135L1.564 13.6484C1.54921 13.7055 1.53977 13.7638 1.53581 13.8226C1.51825 13.8805 1.50626 13.9399 1.5 14C1.5 14.0093 1.50269 14.0178 1.50275 14.0271C1.50305 14.0403 1.50575 14.0524 1.50665 14.0655C1.52222 15.1144 1.9498 16.115 2.697 16.8512C3.44421 17.5874 4.45105 18.0001 5.5 18.0001C6.54895 18.0001 7.55579 17.5874 8.303 16.8512C9.0502 16.115 9.47778 15.1144 9.49335 14.0655C9.4942 14.0524 9.49695 14.0403 9.49725 14.0271C9.49731 14.0178 9.5 14.0093 9.5 14C9.49376 13.9399 9.48178 13.8805 9.46423 13.8226C9.46027 13.7638 9.45083 13.7055 9.43604 13.6484L7.12866 7.50421C7.55242 7.23377 7.90114 6.86085 8.14258 6.41992C8.22984 6.2842 8.35137 6.1739 8.49489 6.10017C8.63841 6.02644 8.79885 5.99189 8.96 6H11.5V20H8.5C8.23478 20 7.98043 20.1054 7.79289 20.2929C7.60536 20.4804 7.5 20.7348 7.5 21C7.5 21.2652 7.60536 21.5196 7.79289 21.7071C7.98043 21.8946 8.23478 22 8.5 22H16.5C16.7652 22 17.0196 21.8946 17.2071 21.7071C17.3946 21.5196 17.5 21.2652 17.5 21C17.5 20.7348 17.3946 20.4804 17.2071 20.2929C17.0196 20.1054 16.7652 20 16.5 20H13.5V6H16.04C16.2011 5.9919 16.3616 6.02646 16.5051 6.10018C16.6486 6.17391 16.7701 6.2842 16.8574 6.41992C17.0988 6.86085 17.4475 7.23377 17.8713 7.50421L15.564 13.6484C15.5492 13.7055 15.5398 13.7638 15.5358 13.8226C15.5182 13.8805 15.5063 13.9399 15.5 14C15.5 14.0093 15.5027 14.0178 15.5028 14.0271C15.5031 14.0403 15.5057 14.0524 15.5066 14.0655C15.5222 15.1144 15.9498 16.115 16.697 16.8512C17.4442 17.5874 18.451 18.0001 19.5 18.0001C20.549 18.0001 21.5558 17.5874 22.303 16.8512C23.0502 16.115 23.4778 15.1144 23.4933 14.0655C23.4942 14.0524 23.497 14.0403 23.4972 14.0271C23.4973 14.0178 23.5 14.0093 23.5 14C23.4938 13.9399 23.4818 13.8805 23.4642 13.8226ZM5.5 8.85553L7.0564 13H3.9436L5.5 8.85553ZM7.22266 15C7.04618 15.3011 6.79479 15.5515 6.49293 15.7267C6.19107 15.9019 5.84901 15.9961 5.5 16C5.14903 15.9999 4.80428 15.9074 4.50036 15.7319C4.19644 15.5563 3.94405 15.3039 3.76855 15H7.22266ZM19.5 8.85553L21.0564 13H17.9436L19.5 8.85553ZM19.5 16C19.149 15.9999 18.8043 15.9074 18.5004 15.7319C18.1964 15.5563 17.9441 15.3039 17.7686 15H21.2227C21.0462 15.3011 20.7948 15.5515 20.4929 15.7267C20.1911 15.9019 19.849 15.9961 19.5 16Z" fill="#003330"/>
	</symbol>
	<symbol id="Sorveteria" xmlns="http://www.w3.org/2000/svg" width="24" height="25" viewBox="0 0 24 25" fill="none">
		<g clip-path="url(#clip0_833_1551)">
			<path d="M14 5.86575C13.9961 4.78551 13.2026 3.85464 12.0955 3.63171C11.8171 2.43813 10.9812 1.43227 9.82834 0.899172C8.67476 0.366943 7.33013 0.366943 6.17644 0.899172C5.02364 1.43215 4.18776 2.43807 3.90933 3.63171C2.8855 3.82988 2.11565 4.64213 2.01185 5.63456C1.90805 6.62698 2.49388 7.56823 3.45639 7.95566L5.97272 15.0984C6.25974 15.9362 7.07912 16.5015 8.00229 16.5C8.92863 16.5052 9.75271 15.9392 10.0405 15.0984L12.5569 7.95566C13.4289 7.59383 13.9953 6.77409 14 5.86575ZM8.96734 14.7456V14.7463C8.83444 15.1247 8.4625 15.3799 8.04416 15.3799C7.62583 15.3799 7.25466 15.1247 7.12178 14.7463L4.78159 8.10054V8.09979C5.10557 8.06075 5.41695 7.95716 5.69613 7.79577C6.38969 8.24317 7.20749 8.48264 8.04416 8.48264C8.88164 8.48264 9.69945 8.24317 10.393 7.79577C10.6722 7.95716 10.9836 8.06076 11.3075 8.09979L8.96734 14.7456ZM11.9201 6.99478H11.9193C11.8383 7.00304 11.7573 7.00304 11.6763 6.99478C11.3634 6.99178 11.063 6.87467 10.8373 6.66674C10.6171 6.46555 10.2695 6.46555 10.0494 6.66674C9.49341 7.10138 8.79669 7.3386 8.07796 7.3386C7.35924 7.3386 6.66254 7.10138 6.10657 6.66674C5.88481 6.46932 5.54039 6.46932 5.31863 6.66674C5.09295 6.87467 4.79256 6.99178 4.47959 6.99478C4.40174 7.00304 4.32311 7.00304 4.24446 6.99478C3.62247 6.87542 3.20097 6.31842 3.27803 5.71637C3.35509 5.11433 3.90397 4.67067 4.53855 4.69694C4.83659 4.69844 5.08665 4.48374 5.11731 4.20074C5.22268 3.24813 5.81717 2.40811 6.7026 1.95844C7.58881 1.50879 8.65118 1.50879 9.53659 1.95844C10.4228 2.40809 11.0173 3.24811 11.1227 4.20074C11.1612 4.49051 11.4207 4.70745 11.7266 4.7052C12.3549 4.69319 12.8888 5.1406 12.9588 5.7374C13.028 6.33345 12.6104 6.88219 11.9947 7.00304L11.9201 6.99478Z" fill="#003330" stroke="#003330" stroke-width="0.2"/>
		</g>
		<defs>
			<clipPath id="clip0_833_1551">
				<rect width="24" height="24" fill="white" transform="translate(0 0.5)"/>
			</clipPath>
		</defs>
	</symbol>
	<symbol id="RedesEFranquias" xmlns="http://www.w3.org/2000/svg" width="25" height="24" viewBox="0 0 25 24" fill="none">
		<path d="M22.5 5H2.5C2.23478 5 1.98043 5.10536 1.79289 5.29289C1.60536 5.48043 1.5 5.73478 1.5 6V10C1.50174 10.6189 1.69488 11.2222 2.05294 11.7271C2.411 12.2319 2.91645 12.6137 3.5 12.82V22C3.5 22.2652 3.60536 22.5196 3.79289 22.7071C3.98043 22.8946 4.23478 23 4.5 23H20.5C20.7652 23 21.0196 22.8946 21.2071 22.7071C21.3946 22.5196 21.5 22.2652 21.5 22V12.82C22.0835 12.6137 22.589 12.2319 22.9471 11.7271C23.3051 11.2222 23.4983 10.6189 23.5 10V6C23.5 5.73478 23.3946 5.48043 23.2071 5.29289C23.0196 5.10536 22.7652 5 22.5 5ZM15.5 7H17.5V10C17.5 10.2652 17.3946 10.5196 17.2071 10.7071C17.0196 10.8946 16.7652 11 16.5 11C16.2348 11 15.9804 10.8946 15.7929 10.7071C15.6054 10.5196 15.5 10.2652 15.5 10V7ZM11.5 7H13.5V10C13.5 10.2652 13.3946 10.5196 13.2071 10.7071C13.0196 10.8946 12.7652 11 12.5 11C12.2348 11 11.9804 10.8946 11.7929 10.7071C11.6054 10.5196 11.5 10.2652 11.5 10V7ZM7.5 7H9.5V10C9.5 10.2652 9.39464 10.5196 9.20711 10.7071C9.01957 10.8946 8.76522 11 8.5 11C8.23478 11 7.98043 10.8946 7.79289 10.7071C7.60536 10.5196 7.5 10.2652 7.5 10V7ZM4.5 11C4.23478 11 3.98043 10.8946 3.79289 10.7071C3.60536 10.5196 3.5 10.2652 3.5 10V7H5.5V10C5.5 10.2652 5.39464 10.5196 5.20711 10.7071C5.01957 10.8946 4.76522 11 4.5 11ZM14.5 21H10.5V19C10.5 18.4696 10.7107 17.9609 11.0858 17.5858C11.4609 17.2107 11.9696 17 12.5 17C13.0304 17 13.5391 17.2107 13.9142 17.5858C14.2893 17.9609 14.5 18.4696 14.5 19V21ZM19.5 21H16.5V19C16.5 17.9391 16.0786 16.9217 15.3284 16.1716C14.5783 15.4214 13.5609 15 12.5 15C11.4391 15 10.4217 15.4214 9.67157 16.1716C8.92143 16.9217 8.5 17.9391 8.5 19V21H5.5V12.82C5.86757 12.6836 6.20664 12.4801 6.5 12.22C7.05002 12.712 7.76207 12.9839 8.5 12.9839C9.23793 12.9839 9.94998 12.712 10.5 12.22C11.05 12.712 11.7621 12.9839 12.5 12.9839C13.2379 12.9839 13.95 12.712 14.5 12.22C15.05 12.712 15.7621 12.9839 16.5 12.9839C17.2379 12.9839 17.95 12.712 18.5 12.22C18.7934 12.4801 19.1324 12.6836 19.5 12.82V21ZM21.5 10C21.5 10.2652 21.3946 10.5196 21.2071 10.7071C21.0196 10.8946 20.7652 11 20.5 11C20.2348 11 19.9804 10.8946 19.7929 10.7071C19.6054 10.5196 19.5 10.2652 19.5 10V7H21.5V10ZM4.8 3H20.5C20.7652 3 21.0196 2.89464 21.2071 2.70711C21.3946 2.51957 21.5 2.26522 21.5 2C21.5 1.73478 21.3946 1.48043 21.2071 1.29289C21.0196 1.10536 20.7652 1 20.5 1H4.8C4.53478 1 4.28043 1.10536 4.09289 1.29289C3.90536 1.48043 3.8 1.73478 3.8 2C3.8 2.26522 3.90536 2.51957 4.09289 2.70711C4.28043 2.89464 4.53478 3 4.8 3Z" fill="#003330"/>
	</symbol>
	<symbol id="Outros" xmlns="http://www.w3.org/2000/svg" width="25" height="24" viewBox="0 0 25 24" fill="none">
		<path d="M10.5 13H3.5C3.23478 13 2.98043 13.1054 2.79289 13.2929C2.60536 13.4804 2.5 13.7348 2.5 14V21C2.5 21.2652 2.60536 21.5196 2.79289 21.7071C2.98043 21.8946 3.23478 22 3.5 22H10.5C10.7652 22 11.0196 21.8946 11.2071 21.7071C11.3946 21.5196 11.5 21.2652 11.5 21V14C11.5 13.7348 11.3946 13.4804 11.2071 13.2929C11.0196 13.1054 10.7652 13 10.5 13ZM9.5 20H4.5V15H9.5V20ZM21.5 2H14.5C14.2348 2 13.9804 2.10536 13.7929 2.29289C13.6054 2.48043 13.5 2.73478 13.5 3V10C13.5 10.2652 13.6054 10.5196 13.7929 10.7071C13.9804 10.8946 14.2348 11 14.5 11H21.5C21.7652 11 22.0196 10.8946 22.2071 10.7071C22.3946 10.5196 22.5 10.2652 22.5 10V3C22.5 2.73478 22.3946 2.48043 22.2071 2.29289C22.0196 2.10536 21.7652 2 21.5 2ZM20.5 9H15.5V4H20.5V9ZM21.5 13H14.5C14.2348 13 13.9804 13.1054 13.7929 13.2929C13.6054 13.4804 13.5 13.7348 13.5 14V21C13.5 21.2652 13.6054 21.5196 13.7929 21.7071C13.9804 21.8946 14.2348 22 14.5 22H21.5C21.7652 22 22.0196 21.8946 22.2071 21.7071C22.3946 21.5196 22.5 21.2652 22.5 21V14C22.5 13.7348 22.3946 13.4804 22.2071 13.2929C22.0196 13.1054 21.7652 13 21.5 13ZM20.5 20H15.5V15H20.5V20ZM10.5 2H3.5C3.23478 2 2.98043 2.10536 2.79289 2.29289C2.60536 2.48043 2.5 2.73478 2.5 3V10C2.5 10.2652 2.60536 10.5196 2.79289 10.7071C2.98043 10.8946 3.23478 11 3.5 11H10.5C10.7652 11 11.0196 10.8946 11.2071 10.7071C11.3946 10.5196 11.5 10.2652 11.5 10V3C11.5 2.73478 11.3946 2.48043 11.2071 2.29289C11.0196 2.10536 10.7652 2 10.5 2ZM9.5 9H4.5V4H9.5V9Z" fill="#003330"/>
	</symbol>
</svg>
